DidactGothic.ufo
<glyph name="numbersign" format="1">
  <advance width="552"/>
  <unicode hex="0023"/>
  <outline>
    <contour>
      <point x="155" y="490" type="line"/>
      <point x="165" y="658" type="line"/>
      <point x="233" y="658" type="line"/>
      <point x="223" y="490" type="line"/>
      <point x="350" y="490" type="line"/>
      <point x="360" y="658" type="line"/>
      <point x="430" y="658" type="line"/>
      <point x="420" y="490" type="line"/>
      <point x="513" y="490" type="line"/>
      <point x="513" y="420" type="line"/>
      <point x="415" y="420" type="line"/>
      <point x="403" y="240" type="line"/>
      <point x="493" y="240" type="line"/>
      <point x="493" y="170" type="line"/>
      <point x="399" y="170" type="line"/>
      <point x="388" y="0" type="line"/>
      <point x="318" y="0" type="line"/>
      <point x="330" y="170" type="line"/>
      <point x="203" y="170" type="line"/>
      <point x="191" y="0" type="line"/>
      <point x="123" y="0" type="line"/>
      <point x="134" y="170" type="line"/>
      <point x="40" y="170" type="line"/>
      <point x="40" y="240" type="line"/>
      <point x="138" y="240" type="line"/>
      <point x="150" y="420" type="line"/>
      <point x="60" y="420" type="line"/>
      <point x="60" y="490" type="line"/>
    </contour>
    <contour>
      <point x="218" y="420" type="line"/>
      <point x="207" y="240" type="line"/>
      <point x="334" y="240" type="line"/>
      <point x="345" y="420" type="line"/>
    </contour>
  </outline>
</glyph>
<glyph name="dollar" format="1">
  <advance width="485"/>
  <unicode hex="0024"/>
  <outline>
    <contour>
      <point x="219" y="698" type="line"/>
      <point x="261" y="698" type="line"/>
      <point x="261" y="597" type="line"/>
      <point x="387" y="592"/>
      <point x="433" y="484" type="qcurve"/>
      <point x="371" y="453" type="line"/>
      <point x="341" y="528"/>
      <point x="261" y="532" type="qcurve"/>
      <point x="261" y="376" type="line"/>
      <point x="298" y="370"/>
      <point x="354" y="354"/>
      <point x="416" y="323"/>
      <point x="449" y="271"/>
      <point x="449" y="236" type="qcurve" smooth="yes"/>
      <point x="449" y="173"/>
      <point x="342" y="92"/>
      <point x="261" y="86" type="qcurve"/>
      <point x="261" y="0" type="line"/>
      <point x="219" y="0" type="line"/>
      <point x="219" y="85" type="line"/>
      <point x="155" y="87"/>
      <point x="58" y="146"/>
      <point x="36" y="198" type="qcurve"/>
      <point x="98" y="229" type="line"/>
      <point x="111" y="196"/>
      <point x="175" y="153"/>
      <point x="219" y="150" type="qcurve"/>
      <point x="219" y="313" type="line"/>
      <point x="193" y="318"/>
      <point x="154" y="328"/>
      <point x="104" y="349"/>
      <point x="72" y="376"/>
      <point x="50" y="419"/>
      <point x="50" y="446" type="qcurve" smooth="yes"/>
      <point x="50" y="509"/>
      <point x="143" y="589"/>
      <point x="219" y="596" type="qcurve"/>
    </contour>
    <contour>
      <point x="219" y="383" type="qcurve"/>
      <point x="219" y="531" type="line"/>
      <point x="171" y="525"/>
      <point x="121" y="480"/>
      <point x="121" y="446" type="qcurve" smooth="yes"/>
      <point x="121" y="417"/>
      <point x="173" y="390"/>
    </contour>
    <contour>
      <point x="261" y="305" type="qcurve"/>
      <point x="261" y="151" type="line"/>
      <point x="314" y="156"/>
      <point x="379" y="204"/>
      <point x="379" y="236" type="qcurve" smooth="yes"/>
      <point x="379" y="254"/>
      <point x="360" y="279"/>
      <point x="315" y="294"/>
      <point x="291" y="300"/>
    </contour>
  </outline>
</glyph>
<glyph name="quotesingle" format="1">
  <advance width="190"/>
  <unicode hex="0027"/>
  <outline>
    <contour>
      <point x="60" y="434" type="line"/>
      <point x="60" y="698" type="line"/>
      <point x="130" y="698" type="line"/>
      <point x="130" y="434" type="line"/>
    </contour>
  </outline>
</glyph>
<glyph name="parenright" format="1">
  <advance width="240"/>
  <unicode hex="0029"/>
  <outline>
    <contour>
      <point x="42" y="54" type="line"/>
      <point x="69" y="69"/>
      <point x="119" y="242"/>
      <point x="119" y="458"/>
      <point x="69" y="629"/>
      <point x="42" y="644" type="qcurve"/>
      <point x="42" y="714" type="line"/>
      <point x="112" y="714"/>
      <point x="197" y="503"/>
      <point x="197" y="197"/>
      <point x="112" y="-16"/>
      <point x="42" y="-16" type="qcurve"/>
    </contour>
  </outline>
</glyph>
<glyph name="asterisk" format="1">
  <advance width="356"/>
  <unicode hex="002A"/>
  <outline>
    <contour>
      <point x="221" y="605" type="line"/>
      <point x="309" y="605" type="line"/>
      <point x="309" y="557" type="line"/>
      <point x="220" y="557" type="line"/>
      <point x="265" y="479" type="line"/>
      <point x="223" y="455" type="line"/>
      <point x="179" y="531" type="line"/>
      <point x="134" y="455" type="line"/>
      <point x="92" y="479" type="line"/>
      <point x="137" y="557" type="line"/>
      <point x="47" y="557" type="line"/>
      <point x="47" y="605" type="line"/>
      <point x="136" y="605" type="line"/>
      <point x="92" y="682" type="line"/>
      <point x="134" y="706" type="line"/>
      <point x="179" y="629" type="line"/>
      <point x="223" y="706" type="line"/>
      <point x="265" y="682" type="line"/>
    </contour>
  </outline>
</glyph>
<glyph name="hyphen" format="1">
  <advance width="340"/>
  <unicode hex="002D"/>
  <outline>
    <contour>
      <point x="57" y="274" type="line"/>
      <point x="284" y="274" type="line"/>
      <point x="284" y="218" type="line"/>
      <point x="57" y="218" type="line"/>
    </contour>
  </outline>
</glyph>
<glyph name="period" format="1">
  <advance width="208"/>
  <unicode hex="002E"/>
  <outline>
    <contour>
      <point x="49" y="71"/>
      <point x="81" y="103"/>
      <point x="127" y="103"/>
      <point x="160" y="71"/>
      <point x="160" y="25"/>
      <point x="127" y="-8"/>
      <point x="81" y="-8"/>
      <point x="49" y="25"/>
    </contour>
  </outline>
</glyph>
<glyph name="zero" format="1">
  <advance width="574"/>
  <unicode hex="0030"/>
  <outline>
    <contour>
      <point x="109" y="223"/>
      <point x="211" y="47"/>
      <point x="345" y="47"/>
      <point x="445" y="223"/>
      <point x="445" y="475"/>
      <point x="345" y="650"/>
      <point x="211" y="650"/>
      <point x="109" y="475"/>
    </contour>
    <contour>
      <point x="40" y="514"/>
      <point x="184" y="714"/>
      <point x="372" y="714"/>
      <point x="515" y="515"/>
      <point x="515" y="183"/>
      <point x="373" y="-16"/>
      <point x="279" y="-16" type="qcurve" smooth="yes"/>
      <point x="184" y="-16"/>
      <point x="40" y="184"/>
    </contour>
  </outline>
</glyph>
<glyph name="one" format="1">
  <advance width="574"/>
  <unicode hex="0031"/>
  <outline>
    <contour>
      <point x="392" y="0" type="line"/>
      <point x="316" y="0" type="line"/>
      <point x="316" y="526" type="line"/>
      <point x="206" y="422" type="line"/>
      <point x="163" y="438" type="line"/>
      <point x="316" y="698" type="line"/>
      <point x="392" y="698" type="line"/>
    </contour>
  </outline>
</glyph>
<glyph name="two" format="1">
  <advance width="574"/>
  <unicode hex="0032"/>
  <outline>
    <contour>
      <point x="492" y="70" type="line"/>
      <point x="492" y="0" type="line"/>
      <point x="72" y="0" type="line"/>
      <point x="72" y="44" type="line" smooth="yes"/>
      <point x="72" y="115"/>
      <point x="180" y="257"/>
      <point x="278" y="335" type="qcurve"/>
      <point x="348" y="392"/>
      <point x="406" y="471"/>
      <point x="406" y="524" type="qcurve" smooth="yes"/>
      <point x="406" y="644"/>
      <point x="272" y="644" type="qcurve" smooth="yes"/>
      <point x="223" y="644"/>
      <point x="159" y="598"/>
      <point x="120" y="546" type="qcurve"/>
      <point x="63" y="594" type="line"/>
      <point x="112" y="658"/>
      <point x="206" y="714"/>
      <point x="272" y="714" type="qcurve" smooth="yes"/>
      <point x="370" y="714"/>
      <point x="484" y="615"/>
      <point x="484" y="524" type="qcurve" smooth="yes"/>
      <point x="484" y="454"/>
      <point x="409" y="346"/>
      <point x="312" y="274" type="qcurve" smooth="yes"/>
      <point x="254" y="232"/>
      <point x="164" y="121"/>
      <point x="153" y="70" type="qcurve"/>
    </contour>
  </outline>
</glyph>
<glyph name="three" format="1">
  <advance width="574"/>
  <unicode hex="0033"/>
  <outline>
    <contour>
      <point x="250" y="53" type="qcurve" smooth="yes"/>
      <point x="425" y="53"/>
      <point x="425" y="195" type="qcurve" smooth="yes"/>
      <point x="425" y="271"/>
      <point x="300" y="345"/>
      <point x="206" y="345" type="qcurve"/>
      <point x="206" y="414" type="line"/>
      <point x="274" y="414"/>
      <point x="401" y="479"/>
      <point x="401" y="586"/>
      <point x="333" y="645"/>
      <point x="275" y="645" type="qcurve" smooth="yes"/>
      <point x="198" y="645"/>
      <point x="150" y="578" type="qcurve"/>
      <point x="94" y="621" type="line"/>
      <point x="125" y="660"/>
      <point x="222" y="714"/>
      <point x="275" y="714" type="qcurve" smooth="yes"/>
      <point x="360" y="714"/>
      <point x="478" y="614"/>
      <point x="478" y="534" type="qcurve" smooth="yes"/>
      <point x="478" y="472"/>
      <point x="408" y="418" type="qcurve" smooth="yes"/>
      <point x="381" y="397"/>
      <point x="344" y="384" type="qcurve"/>
      <point x="502" y="343"/>
      <point x="502" y="190" type="qcurve" smooth="yes"/>
      <point x="502" y="96"/>
      <point x="353" y="-16"/>
      <point x="250" y="-16" type="qcurve" smooth="yes"/>
      <point x="193" y="-16"/>
      <point x="84" y="42"/>
      <point x="53" y="81" type="qcurve"/>
      <point x="108" y="124" type="line"/>
      <point x="129" y="94"/>
      <point x="206" y="53"/>
    </contour>
  </outline>
</glyph>
<glyph name="four" format="1">
  <advance width="574"/>
  <unicode hex="0034"/>
  <outline>
    <contour>
      <point x="365" y="580" type="line"/>
      <point x="137" y="256" type="line"/>
      <point x="365" y="256" type="line"/>
    </contour>
    <contour>
      <point x="365" y="698" type="line"/>
      <point x="441" y="698" type="line"/>
      <point x="441" y="256" type="line"/>
      <point x="510" y="256" type="line"/>
      <point x="510" y="180" type="line"/>
      <point x="441" y="180" type="line"/>
      <point x="441" y="0" type="line"/>
      <point x="365" y="0" type="line"/>
      <point x="365" y="180" type="line"/>
      <point x="55" y="180" type="line"/>
      <point x="55" y="256" type="line"/>
    </contour>
  </outline>
</glyph>
<glyph name="seven" format="1">
  <advance width="574"/>
  <unicode hex="0037"/>
  <outline>
    <contour>
      <point x="67" y="628" type="line"/>
      <point x="67" y="698" type="line"/>
      <point x="488" y="698" type="line"/>
      <point x="251" y="0" type="line"/>
      <point x="168" y="0" type="line"/>
      <point x="382" y="628" type="line"/>
    </contour>
  </outline>
</glyph>
<glyph name="eight" format="1">
  <advance width="574"/>
  <unicode hex="0038"/>
  <outline>
    <contour>
      <point x="485" y="531" type="qcurve" smooth="yes"/>
      <point x="485" y="422"/>
      <point x="375" y="382" type="qcurve"/>
      <point x="416" y="369"/>
      <point x="448" y="345" type="qcurve" smooth="yes"/>
      <point x="515" y="294"/>
      <point x="515" y="104"/>
      <point x="381" y="-16"/>
      <point x="176" y="-16"/>
      <point x="40" y="104"/>
      <point x="40" y="294"/>
      <point x="107" y="345" type="qcurve" smooth="yes"/>
      <point x="139" y="370"/>
      <point x="181" y="382" type="qcurve"/>
      <point x="70" y="422"/>
      <point x="70" y="531" type="qcurve" smooth="yes"/>
      <point x="70" y="618"/>
      <point x="196" y="714"/>
      <point x="360" y="714"/>
      <point x="485" y="618"/>
    </contour>
    <contour>
      <point x="114" y="128"/>
      <point x="202" y="52"/>
      <point x="352" y="52"/>
      <point x="440" y="128"/>
      <point x="440" y="272"/>
      <point x="353" y="347"/>
      <point x="203" y="347"/>
      <point x="114" y="272"/>
    </contour>
    <contour>
      <point x="144" y="588"/>
      <point x="144" y="475"/>
      <point x="217" y="416"/>
      <point x="340" y="416"/>
      <point x="410" y="473"/>
      <point x="410" y="588"/>
      <point x="340" y="645"/>
      <point x="216" y="645"/>
    </contour>
  </outline>
</glyph>
<glyph name="nine" format="1">
  <advance width="574"/>
  <unicode hex="0039"/>
  <outline>
    <contour>
      <point x="445" y="393"/>
      <point x="445" y="542"/>
      <point x="347" y="651"/>
      <point x="207" y="651"/>
      <point x="109" y="542"/>
      <point x="109" y="394"/>
      <point x="207" y="286"/>
      <point x="351" y="286"/>
    </contour>
    <contour>
      <point x="425" y="295" type="qcurve"/>
      <point x="368" y="222"/>
      <point x="183" y="222"/>
      <point x="40" y="371"/>
      <point x="40" y="566"/>
      <point x="184" y="714"/>
      <point x="376" y="714"/>
      <point x="515" y="573"/>
      <point x="515" y="468" type="qcurve" smooth="yes"/>
      <point x="515" y="265"/>
      <point x="327" y="-4"/>
      <point x="159" y="-16" type="qcurve"/>
      <point x="159" y="50" type="line"/>
      <point x="366" y="80"/>
    </contour>
  </outline>
</glyph>
<glyph name="colon" format="1">
  <advance width="225"/>
  <unicode hex="003A"/>
  <outline>
    <contour>
      <point x="57" y="71"/>
      <point x="90" y="103"/>
      <point x="136" y="103"/>
      <point x="168" y="71"/>
      <point x="168" y="25"/>
      <point x="136" y="-8"/>
      <point x="90" y="-8"/>
      <point x="57" y="25"/>
    </contour>
    <contour>
      <point x="57" y="451"/>
      <point x="90" y="483"/>
      <point x="136" y="483"/>
      <point x="168" y="451"/>
      <point x="168" y="405"/>
      <point x="136" y="372"/>
      <point x="90" y="372"/>
      <point x="57" y="405"/>
    </contour>
  </outline>
</glyph>
<glyph name="less" format="1">
  <advance width="492"/>
  <unicode hex="003C"/>
  <outline>
    <contour>
      <point x="27" y="292" type="line"/>
      <point x="394" y="600" type="line"/>
      <point x="439" y="546" type="line"/>
      <point x="136" y="292" type="line"/>
      <point x="439" y="38" type="line"/>
      <point x="394" y="-16" type="line"/>
    </contour>
  </outline>
</glyph>
<glyph name="equal" format="1">
  <advance width="408"/>
  <unicode hex="003D"/>
  <outline>
    <contour>
      <point x="67" y="330" type="line"/>
      <point x="342" y="330" type="line"/>
      <point x="342" y="274" type="line"/>
      <point x="67" y="274" type="line"/>
    </contour>
    <contour>
      <point x="67" y="218" type="line"/>
      <point x="342" y="218" type="line"/>
      <point x="342" y="162" type="line"/>
      <point x="67" y="162" type="line"/>
    </contour>
  </outline>
</glyph>
<glyph name="greater" format="1">
  <advance width="492"/>
  <unicode hex="003E"/>
  <outline>
    <contour>
      <point x="466" y="292" type="line"/>
      <point x="98" y="-16" type="line"/>
      <point x="53" y="38" type="line"/>
      <point x="356" y="292" type="line"/>
      <point x="53" y="546" type="line"/>
      <point x="98" y="600" type="line"/>
    </contour>
  </outline>
</glyph>
<glyph name="question" format="1">
  <advance width="472"/>
  <unicode hex="003F"/>
  <outline>
    <contour>
      <point x="192" y="-8"/>
      <point x="159" y="25"/>
      <point x="159" y="70"/>
      <point x="192" y="103"/>
      <point x="237" y="103"/>
      <point x="270" y="70"/>
      <point x="270" y="26"/>
      <point x="236" y="-8"/>
    </contour>
    <contour>
      <point x="286" y="650"/>
      <point x="175" y="650"/>
      <point x="108" y="596"/>
      <point x="94" y="552" type="qcurve"/>
      <point x="30" y="572" type="line"/>
      <point x="52" y="631"/>
      <point x="156" y="714"/>
      <point x="310" y="714"/>
      <point x="432" y="600"/>
      <point x="432" y="516" type="qcurve" smooth="yes"/>
      <point x="432" y="470"/>
      <point x="405" y="401"/>
      <point x="365" y="364"/>
      <point x="317" y="325"/>
      <point x="277" y="292"/>
      <point x="250" y="231"/>
      <point x="250" y="190" type="qcurve"/>
      <point x="180" y="190" type="line"/>
      <point x="180" y="241"/>
      <point x="207" y="316"/>
      <point x="247" y="354"/>
      <point x="295" y="391"/>
      <point x="315" y="406" type="qcurve" smooth="yes"/>
      <point x="362" y="441.25"/>
      <point x="362" y="576"/>
    </contour>
  </outline>
</glyph>
<glyph name="at" format="1">
  <advance width="769"/>
  <unicode hex="0040"/>
  <outline>
    <contour>
      <point x="384" y="56" type="qcurve" smooth="yes"/>
      <point x="304" y="56"/>
      <point x="219" y="178"/>
      <point x="219" y="285" type="qcurve" smooth="yes"/>
      <point x="219" y="390"/>
      <point x="303" y="508"/>
      <point x="382" y="508" type="qcurve" smooth="yes"/>
      <point x="439" y="508"/>
      <point x="481" y="469" type="qcurve"/>
      <point x="481" y="490" type="line"/>
      <point x="545" y="490" type="line"/>
      <point x="545" y="191" type="line" smooth="yes"/>
      <point x="545" y="159"/>
      <point x="580" y="127"/>
      <point x="597" y="127" type="qcurve" smooth="yes"/>
      <point x="628" y="127"/>
      <point x="664" y="220"/>
      <point x="664" y="294" type="qcurve" smooth="yes"/>
      <point x="664" y="462"/>
      <point x="525" y="648"/>
      <point x="382" y="648" type="qcurve" smooth="yes"/>
      <point x="286" y="648"/>
      <point x="111" y="449"/>
      <point x="111" y="319" type="qcurve" smooth="yes"/>
      <point x="111" y="133"/>
      <point x="277" y="-86"/>
      <point x="419" y="-86" type="qcurve" smooth="yes"/>
      <point x="479" y="-86"/>
      <point x="554" y="-59" type="qcurve"/>
      <point x="582" y="-119" type="line"/>
      <point x="495" y="-150"/>
      <point x="419" y="-150" type="qcurve" smooth="yes"/>
      <point x="250" y="-150"/>
      <point x="41" y="104"/>
      <point x="41" y="316" type="qcurve" smooth="yes"/>
      <point x="41" y="395"/>
      <point x="103" y="544"/>
      <point x="201" y="649"/>
      <point x="323" y="712"/>
      <point x="382" y="712" type="qcurve" smooth="yes"/>
      <point x="556" y="712"/>
      <point x="734" y="480"/>
      <point x="734" y="278" type="qcurve" smooth="yes"/>
      <point x="734" y="238"/>
      <point x="720" y="164"/>
      <point x="690" y="97"/>
      <point x="635" y="57"/>
      <point x="597" y="57" type="qcurve" smooth="yes"/>
      <point x="524" y="57"/>
      <point x="497" y="112" type="qcurve"/>
      <point x="453" y="56"/>
    </contour>
    <contour>
      <point x="481" y="282" type="qcurve" smooth="yes"/>
      <point x="481" y="348"/>
      <point x="427" y="444"/>
      <point x="337" y="444"/>
      <point x="282" y="348"/>
      <point x="282" y="282" type="qcurve" smooth="yes"/>
      <point x="282" y="214"/>
      <point x="336" y="119"/>
      <point x="382" y="119" type="qcurve" smooth="yes"/>
      <point x="427" y="119"/>
      <point x="481" y="212"/>
    </contour>
  </outline>
</glyph>
<glyph name="A" format="1">
  <advance width="589"/>
  <unicode hex="0041"/>
  <outline>
    <contour>
      <point x="295" y="743" type="move" name="above"/>
    </contour>
    <contour>
      <point x="295" y="0" type="move" name="below"/>
    </contour>
    <contour>
      <point x="515" y="0" type="move" name="ogonek"/>
    </contour>
    <contour>
      <point x="336" y="696" type="line"/>
      <point x="590" y="0" type="line"/>
      <point x="508" y="0" type="line"/>
      <point x="436" y="196" type="line"/>
      <point x="154" y="196" type="line"/>
      <point x="83" y="0" type="line"/>
      <point x="1" y="0" type="line"/>
      <point x="254" y="696" type="line"/>
      <point x="254" y="698" type="line"/>
      <point x="337" y="698" type="line"/>
    </contour>
    <contour>
      <point x="295" y="584" type="line"/>
      <point x="177" y="259" type="line"/>
      <point x="414" y="259" type="line"/>
    </contour>
  </outline>
</glyph>
<glyph name="F" format="1">
  <advance width="490"/>
  <unicode hex="0046"/>
  <outline>
    <contour>
      <point x="289" y="743" type="move" name="above"/>
    </contour>
    <contour>
      <point x="222" y="0" type="move" name="below"/>
    </contour>
    <contour>
      <point x="81" y="0" type="line"/>
      <point x="81" y="698" type="line"/>
      <point x="472" y="698" type="line"/>
      <point x="472" y="634" type="line"/>
      <point x="158" y="634" type="line"/>
      <point x="158" y="411" type="line"/>
      <point x="403" y="411" type="line"/>
      <point x="403" y="348" type="line"/>
      <point x="158" y="348" type="line"/>
      <point x="158" y="0" type="line"/>
    </contour>
  </outline>
</glyph>
<glyph name="O" format="1">
  <advance width="686"/>
  <unicode hex="004F"/>
  <outline>
    <contour>
      <point x="343" y="743" type="move" name="above"/>
    </contour>
    <contour>
      <point x="343" y="0" type="move" name="below"/>
    </contour>
    <contour>
      <point x="375" y="0" type="move" name="ogonek"/>
    </contour>
    <contour>
      <point x="124" y="348" type="qcurve" smooth="yes"/>
      <point x="124" y="231"/>
      <point x="252" y="54"/>
      <point x="434" y="54"/>
      <point x="562" y="231"/>
      <point x="562" y="348" type="qcurve" smooth="yes"/>
      <point x="562" y="466"/>
      <point x="434" y="644"/>
      <point x="252" y="644"/>
      <point x="124" y="466"/>
    </contour>
    <contour>
      <point x="43" y="495"/>
      <point x="224" y="714"/>
      <point x="462" y="714"/>
      <point x="643" y="495"/>
      <point x="643" y="201"/>
      <point x="462" y="-16"/>
      <point x="224" y="-16"/>
      <point x="43" y="201"/>
    </contour>
  </outline>
</glyph>
<glyph name="P" format="1">
  <advance width="570"/>
  <unicode hex="0050"/>
  <outline>
    <contour>
      <point x="287" y="743" type="move" name="above"/>
    </contour>
    <contour>
      <point x="201" y="0" type="move" name="below"/>
    </contour>
    <contour>
      <point x="81" y="0" type="line"/>
      <point x="81" y="698" type="line"/>
      <point x="304" y="698" type="line" smooth="yes"/>
      <point x="402" y="698"/>
      <point x="549" y="592"/>
      <point x="549" y="394"/>
      <point x="404" y="288"/>
      <point x="306" y="288" type="qcurve" smooth="yes"/>
      <point x="158" y="288" type="line"/>
      <point x="158" y="0" type="line"/>
    </contour>
    <contour>
      <point x="158" y="634" type="line"/>
      <point x="158" y="352" type="line"/>
      <point x="304" y="352" type="line" smooth="yes"/>
      <point x="374" y="352"/>
      <point x="465" y="425"/>
      <point x="465" y="561"/>
      <point x="374" y="634"/>
      <point x="304" y="634" type="qcurve" smooth="yes"/>
    </contour>
  </outline>
</glyph>
<glyph name="Q" format="1">
  <advance width="686"/>
  <unicode hex="0051"/>
  <outline>
    <contour>
      <point x="43" y="495"/>
      <point x="224" y="714"/>
      <point x="462" y="714"/>
      <point x="643" y="495"/>
      <point x="643" y="348" type="qcurve" smooth="yes"/>
      <point x="643" y="198"/>
      <point x="549" y="88" type="qcurve"/>
      <point x="623" y="14" type="line"/>
      <point x="578" y="-30" type="line"/>
      <point x="503" y="44" type="line"/>
      <point x="429" y="-16"/>
      <point x="343" y="-16" type="qcurve" smooth="yes"/>
      <point x="224" y="-16"/>
      <point x="43" y="201"/>
    </contour>
    <contour>
      <point x="124" y="348" type="qcurve" smooth="yes"/>
      <point x="124" y="231"/>
      <point x="252" y="54"/>
      <point x="343" y="54" type="qcurve" smooth="yes"/>
      <point x="404" y="54"/>
      <point x="453" y="94" type="qcurve"/>
      <point x="375" y="171" type="line"/>
      <point x="420" y="216" type="line"/>
      <point x="497" y="140" type="line"/>
      <point x="562" y="226"/>
      <point x="562" y="348" type="qcurve" smooth="yes"/>
      <point x="562" y="466"/>
      <point x="434" y="644"/>
      <point x="252" y="644"/>
      <point x="124" y="466"/>
    </contour>
  </outline>
</glyph>
<glyph name="R" format="1">
  <advance width="594"/>
  <unicode hex="0052"/>
  <outline>
    <contour>
      <point x="306" y="743" type="move" name="above"/>
    </contour>
    <contour>
      <point x="300" y="0" type="move" name="below"/>
    </contour>
    <contour>
      <point x="81" y="0" type="line"/>
      <point x="81" y="698" type="line"/>
      <point x="304" y="698" type="line" smooth="yes"/>
      <point x="402" y="698"/>
      <point x="549" y="592"/>
      <point x="549" y="493" type="qcurve" smooth="yes"/>
      <point x="549" y="415"/>
      <point x="458" y="317"/>
      <point x="386" y="298" type="qcurve"/>
      <point x="558" y="0" type="line"/>
      <point x="473" y="0" type="line"/>
      <point x="307" y="288" type="line"/>
      <point x="306" y="288" type="line"/>
      <point x="158" y="288" type="line"/>
      <point x="158" y="0" type="line"/>
    </contour>
    <contour>
      <point x="158" y="634" type="line"/>
      <point x="158" y="352" type="line"/>
      <point x="304" y="352" type="line" smooth="yes"/>
      <point x="374" y="352"/>
      <point x="465" y="425"/>
      <point x="465" y="561"/>
      <point x="374" y="634"/>
      <point x="304" y="634" type="qcurve" smooth="yes"/>
    </contour>
  </outline>
</glyph>
<glyph name="S" format="1">
  <advance width="565"/>
  <unicode hex="0053"/>
  <outline>
    <contour>
      <point x="287" y="743" type="move" name="above"/>
    </contour>
    <contour>
      <point x="269" y="0" type="move" name="ogonek"/>
    </contour>
    <contour>
      <point x="285" y="314" type="qcurve" smooth="yes"/>
      <point x="174" y="344"/>
      <point x="58" y="440"/>
      <point x="58" y="524" type="qcurve" smooth="yes"/>
      <point x="58" y="616"/>
      <point x="176" y="714"/>
      <point x="283" y="714" type="qcurve" smooth="yes"/>
      <point x="414" y="714"/>
      <point x="506" y="594" type="qcurve"/>
      <point x="449" y="546" type="line"/>
      <point x="376" y="644"/>
      <point x="283" y="644" type="qcurve" smooth="yes"/>
      <point x="205" y="644"/>
      <point x="136" y="586"/>
      <point x="136" y="524" type="qcurve" smooth="yes"/>
      <point x="136" y="500"/>
      <point x="151" y="463"/>
      <point x="169" y="441"/>
      <point x="210" y="420"/>
      <point x="234" y="411"/>
      <point x="290" y="394"/>
      <point x="301" y="390" type="qcurve" smooth="yes"/>
      <point x="404" y="355"/>
      <point x="435" y="337" type="qcurve" smooth="yes"/>
      <point x="526" y="285"/>
      <point x="526" y="174" type="qcurve" smooth="yes"/>
      <point x="526" y="82"/>
      <point x="389" y="-16"/>
      <point x="269" y="-16" type="qcurve" smooth="yes"/>
      <point x="201" y="-16"/>
      <point x="74" y="62"/>
      <point x="32" y="128" type="qcurve"/>
      <point x="92" y="171" type="line"/>
      <point x="123" y="119"/>
      <point x="218" y="54"/>
      <point x="269" y="54" type="qcurve" smooth="yes"/>
      <point x="361" y="54"/>
      <point x="449" y="112"/>
      <point x="449" y="174" type="qcurve" smooth="yes"/>
      <point x="449" y="234"/>
      <point x="375" y="290"/>
    </contour>
  </outline>
</glyph>
<glyph name="T" format="1">
  <advance width="514"/>
  <unicode hex="0054"/>
  <outline>
    <contour>
      <point x="256" y="743" type="move" name="above"/>
    </contour>
    <contour>
      <point x="258" y="0" type="move" name="below"/>
    </contour>
    <contour>
      <point x="19" y="635" type="line"/>
      <point x="19" y="698" type="line"/>
      <point x="495" y="698" type="line"/>
      <point x="495" y="635" type="line"/>
      <point x="295" y="635" type="line"/>
      <point x="295" y="0" type="line"/>
      <point x="219" y="0" type="line"/>
      <point x="219" y="635" type="line"/>
    </contour>
  </outline>
</glyph>
<glyph name="U" format="1">
  <advance width="650"/>
  <unicode hex="0055"/>
  <outline>
    <contour>
      <point x="326" y="743" type="move" name="above"/>
    </contour>
    <contour>
      <point x="327" y="0" type="move" name="below"/>
    </contour>
    <contour>
      <point x="345" y="0" type="move" name="ogonek"/>
    </contour>
    <contour>
      <point x="75" y="290" type="qcurve" smooth="yes"/>
      <point x="75" y="698" type="line"/>
      <point x="157" y="698" type="line"/>
      <point x="157" y="290" type="line" smooth="yes"/>
      <point x="157" y="185"/>
      <point x="239" y="54"/>
      <point x="413" y="54"/>
      <point x="495" y="185"/>
      <point x="495" y="290" type="qcurve" smooth="yes"/>
      <point x="495" y="698" type="line"/>
      <point x="575" y="698" type="line"/>
      <point x="575" y="290" type="line" smooth="yes"/>
      <point x="575" y="143"/>
      <point x="444" y="-16"/>
      <point x="326" y="-16" type="qcurve" smooth="yes"/>
      <point x="207" y="-16"/>
      <point x="75" y="143"/>
    </contour>
  </outline>
</glyph>
<glyph name="W" format="1">
  <advance width="871"/>
  <unicode hex="0057"/>
  <outline>
    <contour>
      <point x="437" y="743" type="move" name="above"/>
    </contour>
    <contour>
      <point x="434" y="0" type="move" name="below"/>
    </contour>
    <contour>
      <point x="288" y="0" type="line"/>
      <point x="209" y="0" type="line"/>
      <point x="23" y="698" type="line"/>
      <point x="101" y="698" type="line"/>
      <point x="249" y="147" type="line"/>
      <point x="396" y="698" type="line"/>
      <point x="475" y="698" type="line"/>
      <point x="623" y="148" type="line"/>
      <point x="770" y="698" type="line"/>
      <point x="849" y="698" type="line"/>
      <point x="663" y="0" type="line"/>
      <point x="583" y="0" type="line"/>
      <point x="435" y="551" type="line"/>
    </contour>
  </outline>
</glyph>
<glyph name="Y" format="1">
  <advance width="484"/>
  <unicode hex="0059"/>
  <outline>
    <contour>
      <point x="243" y="743" type="move" name="above"/>
    </contour>
    <contour>
      <point x="244" y="0" type="move" name="below"/>
    </contour>
    <contour>
      <point x="258" y="0" type="move" name="ogonek"/>
    </contour>
    <contour>
      <point x="243" y="442" type="line"/>
      <point x="396" y="698" type="line"/>
      <point x="485" y="698" type="line"/>
      <point x="280" y="355" type="line"/>
      <point x="280" y="0" type="line"/>
      <point x="204" y="0" type="line"/>
      <point x="204" y="358" type="line"/>
      <point x="0" y="698" type="line"/>
      <point x="89" y="698" type="line"/>
    </contour>
  </outline>
</glyph>
<glyph name="backslash" format="1">
  <advance width="386"/>
  <unicode hex="005C"/>
  <outline>
    <contour>
      <point x="34" y="698" type="line"/>
      <point x="97" y="698" type="line"/>
      <point x="351" y="0" type="line"/>
      <point x="288" y="0" type="line"/>
    </contour>
  </outline>
</glyph>
<glyph name="bracketright" format="1">
  <advance width="265"/>
  <unicode hex="005D"/>
  <outline>
    <contour>
      <point x="197" y="-40" type="line"/>
      <point x="20" y="-40" type="line"/>
      <point x="20" y="0" type="line"/>
      <point x="121" y="0" type="line"/>
      <point x="121" y="698" type="line"/>
      <point x="20" y="698" type="line"/>
      <point x="20" y="738" type="line"/>
      <point x="197" y="738" type="line"/>
    </contour>
  </outline>
</glyph>
<glyph name="underscore" format="1">
  <advance width="468"/>
  <unicode hex="005F"/>
  <outline>
    <contour>
      <point x="0" y="-28" type="line"/>
      <point x="469" y="-28" type="line"/>
      <point x="469" y="-88" type="line"/>
      <point x="0" y="-88" type="line"/>
    </contour>
  </outline>
</glyph>
<glyph name="a" format="1">
  <advance width="574"/>
  <unicode hex="0061"/>
  <outline>
    <contour>
      <point x="282" y="581" type="move" name="above"/>
    </contour>
    <contour>
      <point x="274" y="0" type="move" name="below"/>
    </contour>
    <contour>
      <point x="492" y="0" type="move" name="ogonek"/>
    </contour>
    <contour>
      <point x="104" y="165"/>
      <point x="203" y="47"/>
      <point x="341" y="47"/>
      <point x="440" y="165"/>
      <point x="440" y="315"/>
      <point x="341" y="432"/>
      <point x="203" y="432"/>
      <point x="104" y="315"/>
    </contour>
    <contour>
      <point x="177" y="496"/>
      <point x="376" y="496"/>
      <point x="440" y="404" type="qcurve"/>
      <point x="440" y="479" type="line"/>
      <point x="510" y="479" type="line"/>
      <point x="510" y="0" type="line"/>
      <point x="440" y="0" type="line"/>
      <point x="440" y="73" type="line"/>
      <point x="379" y="-16"/>
      <point x="179" y="-16"/>
      <point x="35" y="136"/>
      <point x="35" y="343"/>
    </contour>
  </outline>
</glyph>
<glyph name="d" format="1">
  <advance width="574"/>
  <unicode hex="0064"/>
  <outline>
    <contour>
      <point x="475" y="783" type="move" name="above"/>
    </contour>
    <contour>
      <point x="280" y="0" type="move" name="below"/>
    </contour>
    <contour>
      <point x="104" y="165"/>
      <point x="203" y="47"/>
      <point x="341" y="47"/>
      <point x="440" y="165"/>
      <point x="440" y="315"/>
      <point x="341" y="432"/>
      <point x="203" y="432"/>
      <point x="104" y="315"/>
    </contour>
    <contour>
      <point x="177" y="496"/>
      <point x="376" y="496"/>
      <point x="440" y="404" type="qcurve"/>
      <point x="440" y="743" type="line"/>
      <point x="510" y="743" type="line"/>
      <point x="510" y="0" type="line"/>
      <point x="440" y="0" type="line"/>
      <point x="440" y="73" type="line"/>
      <point x="379" y="-16"/>
      <point x="179" y="-16"/>
      <point x="35" y="136"/>
      <point x="35" y="343"/>
    </contour>
  </outline>
</glyph>
<glyph name="e" format="1">
  <advance width="538"/>
  <unicode hex="0065"/>
  <outline>
    <contour>
      <point x="272" y="581" type="move" name="above"/>
    </contour>
    <contour>
      <point x="284" y="0" type="move" name="below"/>
    </contour>
    <contour>
      <point x="278" y="0" type="move" name="ogonek"/>
    </contour>
    <contour>
      <point x="104" y="240" type="line"/>
      <point x="104" y="161"/>
      <point x="205" y="47"/>
      <point x="272" y="47" type="qcurve" smooth="yes"/>
      <point x="345" y="47"/>
      <point x="412" y="88"/>
      <point x="439" y="134" type="qcurve"/>
      <point x="495" y="97" type="line"/>
      <point x="458" y="40"/>
      <point x="360" y="-16"/>
      <point x="274" y="-16" type="qcurve" smooth="yes"/>
      <point x="183" y="-16"/>
      <point x="35" y="137"/>
      <point x="35" y="343"/>
      <point x="181" y="496"/>
      <point x="363" y="496"/>
      <point x="510" y="343"/>
      <point x="510" y="240" type="qcurve"/>
    </contour>
    <contour>
      <point x="115" y="303" type="qcurve"/>
      <point x="430" y="303" type="line"/>
      <point x="412" y="360"/>
      <point x="324" y="432"/>
      <point x="220" y="432"/>
      <point x="133" y="360"/>
    </contour>
  </outline>
</glyph>
<glyph name="f" format="1">
  <advance width="282"/>
  <unicode hex="0066"/>
  <outline>
    <contour>
      <point x="166" y="787" type="move" name="above"/>
    </contour>
    <contour>
      <point x="127" y="0" type="move" name="below"/>
    </contour>
    <contour>
      <point x="270" y="696" type="line"/>
      <point x="242" y="696" type="line" smooth="yes"/>
      <point x="207" y="696"/>
      <point x="160" y="644"/>
      <point x="160" y="608" type="qcurve" smooth="yes"/>
      <point x="160" y="479" type="line"/>
      <point x="270" y="479" type="line"/>
      <point x="270" y="416" type="line"/>
      <point x="160" y="416" type="line"/>
      <point x="160" y="0" type="line"/>
      <point x="90" y="0" type="line"/>
      <point x="90" y="416" type="line"/>
      <point x="29" y="416" type="line"/>
      <point x="29" y="479" type="line"/>
      <point x="90" y="479" type="line"/>
      <point x="90" y="608" type="line" smooth="yes"/>
      <point x="90" y="671"/>
      <point x="179" y="760"/>
      <point x="242" y="760" type="qcurve" smooth="yes"/>
      <point x="270" y="760" type="line"/>
    </contour>
  </outline>
</glyph>
<glyph name="g" format="1">
  <advance width="574"/>
  <unicode hex="0067"/>
  <outline>
    <contour>
      <point x="272" y="581" type="move" name="above"/>
    </contour>
    <contour>
      <point x="274" y="0" type="move" name="below"/>
    </contour>
    <contour>
      <point x="177" y="496"/>
      <point x="376" y="496"/>
      <point x="440" y="404" type="qcurve"/>
      <point x="440" y="479" type="line"/>
      <point x="510" y="479" type="line"/>
      <point x="510" y="18" type="line" smooth="yes"/>
      <point x="510" y="-88"/>
      <point x="401" y="-205"/>
      <point x="299" y="-205" type="qcurve" smooth="yes"/>
      <point x="141" y="-205" type="line"/>
      <point x="141" y="-141" type="line"/>
      <point x="299" y="-141" type="line" smooth="yes"/>
      <point x="369" y="-141"/>
      <point x="440" y="-57"/>
      <point x="440" y="18" type="qcurve" smooth="yes"/>
      <point x="440" y="73" type="line"/>
      <point x="379" y="-16"/>
      <point x="179" y="-16"/>
      <point x="35" y="136"/>
      <point x="35" y="343"/>
    </contour>
    <contour>
      <point x="104" y="165"/>
      <point x="203" y="47"/>
      <point x="341" y="47"/>
      <point x="440" y="165"/>
      <point x="440" y="315"/>
      <point x="341" y="432"/>
      <point x="203" y="432"/>
      <point x="104" y="315"/>
    </contour>
  </outline>
</glyph>
<glyph name="i" format="1">
  <advance width="198"/>
  <unicode hex="0069"/>
  <outline>
    <contour>
      <point x="104" y="0" type="move" name="below"/>
    </contour>
    <contour>
      <point x="119" y="0" type="move" name="ogonek"/>
    </contour>
    <contour>
      <point x="44" y="651"/>
      <point x="76" y="683"/>
      <point x="122" y="683"/>
      <point x="155" y="651"/>
      <point x="155" y="605"/>
      <point x="122" y="572"/>
      <point x="76" y="572"/>
      <point x="44" y="605"/>
    </contour>
    <contour>
      <point x="65" y="0" type="line"/>
      <point x="65" y="479" type="line"/>
      <point x="134" y="479" type="line"/>
      <point x="134" y="0" type="line"/>
    </contour>
  </outline>
</glyph>
<glyph name="j" format="1">
  <advance width="198"/>
  <unicode hex="006A"/>
  <outline>
    <contour>
      <point x="44" y="651"/>
      <point x="76" y="683"/>
      <point x="122" y="683"/>
      <point x="155" y="651"/>
      <point x="155" y="605"/>
      <point x="122" y="572"/>
      <point x="76" y="572"/>
      <point x="44" y="605"/>
    </contour>
    <contour>
      <point x="-46" y="-141" type="line"/>
      <point x="-17" y="-141" type="line" smooth="yes"/>
      <point x="18" y="-141"/>
      <point x="65" y="-89"/>
      <point x="65" y="-53" type="qcurve" smooth="yes"/>
      <point x="65" y="479" type="line"/>
      <point x="134" y="479" type="line"/>
      <point x="134" y="-53" type="line" smooth="yes"/>
      <point x="134" y="-116"/>
      <point x="46" y="-205"/>
      <point x="-17" y="-205" type="qcurve" smooth="yes"/>
      <point x="-46" y="-205" type="line"/>
    </contour>
  </outline>
</glyph>
<glyph name="p" format="1">
  <advance width="574"/>
  <unicode hex="0070"/>
  <outline>
    <contour>
      <point x="302" y="581" type="move" name="above"/>
    </contour>
    <contour>
      <point x="305" y="0" type="move" name="below"/>
    </contour>
    <contour>
      <point x="471" y="314"/>
      <point x="372" y="432"/>
      <point x="234" y="432"/>
      <point x="135" y="314"/>
      <point x="135" y="164"/>
      <point x="234" y="47"/>
      <point x="372" y="47"/>
      <point x="471" y="164"/>
    </contour>
    <contour>
      <point x="398" y="-17"/>
      <point x="199" y="-17"/>
      <point x="135" y="75" type="qcurve"/>
      <point x="135" y="-205" type="line"/>
      <point x="65" y="-205" type="line"/>
      <point x="65" y="479" type="line"/>
      <point x="135" y="479" type="line"/>
      <point x="135" y="406" type="line"/>
      <point x="196" y="495"/>
      <point x="396" y="495"/>
      <point x="540" y="343"/>
      <point x="540" y="136"/>
    </contour>
  </outline>
</glyph>
<glyph name="r" format="1">
  <advance width="445"/>
  <unicode hex="0072"/>
  <outline>
    <contour>
      <point x="251" y="581" type="move" name="above"/>
    </contour>
    <contour>
      <point x="100" y="0" type="move" name="below"/>
    </contour>
    <contour>
      <point x="384" y="352" type="line"/>
      <point x="351" y="432"/>
      <point x="210" y="432"/>
      <point x="134" y="319"/>
      <point x="134" y="240" type="qcurve" smooth="yes"/>
      <point x="134" y="0" type="line"/>
      <point x="65" y="0" type="line"/>
      <point x="65" y="479" type="line"/>
      <point x="134" y="479" type="line"/>
      <point x="134" y="421" type="line"/>
      <point x="199" y="496"/>
      <point x="276" y="496" type="qcurve" smooth="yes"/>
      <point x="399" y="496"/>
      <point x="447" y="384" type="qcurve"/>
    </contour>
  </outline>
</glyph>
<glyph name="s" format="1">
  <advance width="475"/>
  <unicode hex="0073"/>
  <outline>
    <contour>
      <point x="246" y="581" type="move" name="above"/>
    </contour>
    <contour>
      <point x="226" y="0" type="move" name="below"/>
    </contour>
    <contour>
      <point x="246" y="206" type="qcurve" smooth="yes"/>
      <point x="243" y="207"/>
      <point x="204" y="214"/>
      <point x="191" y="217"/>
      <point x="152" y="226"/>
      <point x="136" y="233"/>
      <point x="103" y="247"/>
      <point x="87" y="260"/>
      <point x="64" y="279"/>
      <point x="53" y="301"/>
      <point x="45" y="329"/>
      <point x="45" y="345" type="qcurve" smooth="yes"/>
      <point x="45" y="415"/>
      <point x="158" y="496"/>
      <point x="248" y="496" type="qcurve" smooth="yes"/>
      <point x="380" y="496"/>
      <point x="428" y="383" type="qcurve"/>
      <point x="366" y="352" type="line"/>
      <point x="334" y="432"/>
      <point x="248" y="432" type="qcurve" smooth="yes"/>
      <point x="184" y="432"/>
      <point x="116" y="385"/>
      <point x="116" y="345" type="qcurve" smooth="yes"/>
      <point x="116" y="336"/>
      <point x="121" y="322"/>
      <point x="132" y="310"/>
      <point x="144" y="301"/>
      <point x="163" y="294"/>
      <point x="178" y="289"/>
      <point x="203" y="284"/>
      <point x="218" y="281"/>
      <point x="246" y="277"/>
      <point x="252" y="276" type="qcurve" smooth="yes"/>
      <point x="290" y="270"/>
      <point x="346" y="254"/>
      <point x="409" y="223"/>
      <point x="443" y="171"/>
      <point x="443" y="135" type="qcurve" smooth="yes"/>
      <point x="443" y="66"/>
      <point x="318" y="-16"/>
      <point x="226" y="-16" type="qcurve" smooth="yes"/>
      <point x="158" y="-16"/>
      <point x="54" y="43"/>
      <point x="31" y="97" type="qcurve"/>
      <point x="93" y="128" type="line"/>
      <point x="108" y="92"/>
      <point x="178" y="48"/>
      <point x="226" y="48" type="qcurve" smooth="yes"/>
      <point x="291" y="48"/>
      <point x="374" y="98"/>
      <point x="374" y="135" type="qcurve" smooth="yes"/>
      <point x="374" y="146"/>
      <point x="367" y="165"/>
      <point x="348" y="178"/>
      <point x="334" y="187"/>
      <point x="303" y="195"/>
      <point x="288" y="199"/>
      <point x="251" y="205"/>
    </contour>
  </outline>
</glyph>
<glyph name="t" format="1">
  <advance width="282"/>
  <unicode hex="0074"/>
  <outline>
    <contour>
      <point x="125" y="683" type="move" name="above"/>
    </contour>
    <contour>
      <point x="126" y="0" type="move" name="below"/>
    </contour>
    <contour>
      <point x="29" y="416" type="line"/>
      <point x="29" y="479" type="line"/>
      <point x="90" y="479" type="line"/>
      <point x="90" y="638" type="line"/>
      <point x="160" y="638" type="line"/>
      <point x="160" y="479" type="line"/>
      <point x="270" y="479" type="line"/>
      <point x="270" y="416" type="line"/>
      <point x="160" y="416" type="line"/>
      <point x="160" y="0" type="line"/>
      <point x="90" y="0" type="line"/>
      <point x="90" y="416" type="line"/>
    </contour>
  </outline>
</glyph>
<glyph name="u" format="1">
  <advance width="547"/>
  <unicode hex="0075"/>
  <outline>
    <contour>
      <point x="270" y="581" type="move" name="above"/>
    </contour>
    <contour>
      <point x="271" y="0" type="move" name="below"/>
    </contour>
    <contour>
      <point x="469" y="0" type="move" name="ogonek"/>
    </contour>
    <contour>
      <point x="413" y="58" type="line"/>
      <point x="348" y="-17"/>
      <point x="271" y="-17" type="qcurve" smooth="yes"/>
      <point x="178" y="-17"/>
      <point x="59" y="87"/>
      <point x="59" y="176" type="qcurve" smooth="yes"/>
      <point x="59" y="479" type="line"/>
      <point x="128" y="479" type="line"/>
      <point x="128" y="176" type="line" smooth="yes"/>
      <point x="128" y="119"/>
      <point x="211" y="47"/>
      <point x="337" y="47"/>
      <point x="413" y="160"/>
      <point x="413" y="239" type="qcurve" smooth="yes"/>
      <point x="413" y="479" type="line"/>
      <point x="482" y="479" type="line"/>
      <point x="482" y="0" type="line"/>
      <point x="413" y="0" type="line"/>
    </contour>
  </outline>
</glyph>
<glyph name="v" format="1">
  <advance width="466"/>
  <unicode hex="0076"/>
  <outline>
    <contour>
      <point x="234" y="581" type="move" name="above"/>
    </contour>
    <contour>
      <point x="234" y="0" type="move" name="below"/>
    </contour>
    <contour>
      <point x="195" y="0" type="line"/>
      <point x="1" y="479" type="line"/>
      <point x="77" y="479" type="line"/>
      <point x="233" y="90" type="line"/>
      <point x="390" y="479" type="line"/>
      <point x="466" y="479" type="line"/>
      <point x="271" y="0" type="line"/>
    </contour>
  </outline>
</glyph>
<glyph name="w" format="1">
  <advance width="736"/>
  <unicode hex="0077"/>
  <outline>
    <contour>
      <point x="369" y="581" type="move" name="above"/>
    </contour>
    <contour>
      <point x="369" y="0" type="move" name="below"/>
    </contour>
    <contour>
      <point x="172" y="0" type="line"/>
      <point x="16" y="479" type="line"/>
      <point x="90" y="479" type="line"/>
      <point x="211" y="104" type="line"/>
      <point x="332" y="479" type="line"/>
      <point x="403" y="479" type="line"/>
      <point x="524" y="105" type="line"/>
      <point x="646" y="479" type="line"/>
      <point x="720" y="479" type="line"/>
      <point x="564" y="0" type="line"/>
      <point x="486" y="0" type="line"/>
      <point x="368" y="362" type="line"/>
      <point x="250" y="0" type="line"/>
    </contour>
  </outline>
</glyph>
<glyph name="y" format="1">
  <advance width="466"/>
  <unicode hex="0079"/>
  <outline>
    <contour>
      <point x="231" y="581" type="move" name="above"/>
    </contour>
    <contour>
      <point x="249" y="0" type="move" name="below"/>
    </contour>
    <contour>
      <point x="357" y="0" type="move" name="ogonek"/>
    </contour>
    <contour>
      <point x="233" y="90" type="line"/>
      <point x="390" y="479" type="line"/>
      <point x="466" y="479" type="line"/>
      <point x="188" y="-205" type="line"/>
      <point x="114" y="-205" type="line"/>
      <point x="196" y="-1" type="line"/>
      <point x="1" y="479" type="line"/>
      <point x="77" y="479" type="line"/>
    </contour>
  </outline>
</glyph>
<glyph name="braceleft" format="1">
  <advance width="253"/>
  <unicode hex="007B"/>
  <outline>
    <contour>
      <point x="168" y="207" type="qcurve" smooth="yes"/>
      <point x="168" y="173"/>
      <point x="151" y="65"/>
      <point x="151" y="47" type="qcurve" smooth="yes"/>
      <point x="151" y="12"/>
      <point x="194" y="-31"/>
      <point x="218" y="-36" type="qcurve"/>
      <point x="218" y="-83" type="line"/>
      <point x="163" y="-75"/>
      <point x="77" y="-12"/>
      <point x="77" y="48" type="qcurve" smooth="yes"/>
      <point x="77" y="82"/>
      <point x="94" y="191"/>
      <point x="94" y="208" type="qcurve" smooth="yes"/>
      <point x="94" y="236"/>
      <point x="50" y="288"/>
      <point x="28" y="292" type="qcurve"/>
      <point x="28" y="339" type="line"/>
      <point x="51" y="343"/>
      <point x="101" y="395"/>
      <point x="101" y="423" type="qcurve" smooth="yes"/>
      <point x="101" y="440"/>
      <point x="77" y="549"/>
      <point x="77" y="583" type="qcurve" smooth="yes"/>
      <point x="77" y="643"/>
      <point x="162" y="706"/>
      <point x="217" y="714" type="qcurve"/>
      <point x="218" y="667" type="line"/>
      <point x="194" y="662"/>
      <point x="152" y="619"/>
      <point x="152" y="584" type="qcurve" smooth="yes"/>
      <point x="152" y="566"/>
      <point x="169" y="458"/>
      <point x="169" y="424" type="qcurve" smooth="yes"/>
      <point x="169" y="352"/>
      <point x="109" y="315" type="qcurve"/>
      <point x="168" y="278"/>
    </contour>
  </outline>
</glyph>
<glyph name="braceright" format="1">
  <advance width="253"/>
  <unicode hex="007D"/>
  <outline>
    <contour>
      <point x="86" y="424" type="qcurve" smooth="yes"/>
      <point x="86" y="458"/>
      <point x="103" y="566"/>
      <point x="103" y="584" type="qcurve" smooth="yes"/>
      <point x="103" y="619"/>
      <point x="60" y="662"/>
      <point x="36" y="667" type="qcurve"/>
      <point x="36" y="714" type="line"/>
      <point x="91" y="706"/>
      <point x="177" y="643"/>
      <point x="177" y="583" type="qcurve" smooth="yes"/>
      <point x="177" y="549"/>
      <point x="160" y="440"/>
      <point x="160" y="423" type="qcurve" smooth="yes"/>
      <point x="160" y="395"/>
      <point x="204" y="343"/>
      <point x="226" y="339" type="qcurve"/>
      <point x="226" y="292" type="line"/>
      <point x="203" y="288"/>
      <point x="153" y="236"/>
      <point x="153" y="208" type="qcurve" smooth="yes"/>
      <point x="153" y="191"/>
      <point x="177" y="82"/>
      <point x="177" y="48" type="qcurve" smooth="yes"/>
      <point x="177" y="-12"/>
      <point x="92" y="-75"/>
      <point x="37" y="-83" type="qcurve"/>
      <point x="36" y="-36" type="line"/>
      <point x="60" y="-31"/>
      <point x="102" y="12"/>
      <point x="102" y="47" type="qcurve" smooth="yes"/>
      <point x="102" y="65"/>
      <point x="85" y="173"/>
      <point x="85" y="207" type="qcurve" smooth="yes"/>
      <point x="85" y="278"/>
      <point x="145" y="315" type="qcurve"/>
      <point x="86" y="352"/>
    </contour>
  </outline>
</glyph>
<glyph name="asciitilde" format="1">
  <advance width="517"/>
  <unicode hex="007E"/>
  <outline>
    <contour>
      <point x="342" y="329" type="qcurve" smooth="yes"/>
      <point x="370" y="329"/>
      <point x="422" y="372"/>
      <point x="426" y="394" type="qcurve"/>
      <point x="473" y="394" type="line"/>
      <point x="468" y="348"/>
      <point x="386" y="261"/>
      <point x="342" y="261" type="qcurve" smooth="yes"/>
      <point x="308" y="261"/>
      <point x="201" y="326"/>
      <point x="184" y="326" type="qcurve" smooth="yes"/>
      <point x="156" y="326"/>
      <point x="103" y="283"/>
      <point x="99" y="261" type="qcurve"/>
      <point x="53" y="261" type="line"/>
      <point x="58" y="307"/>
      <point x="140" y="394"/>
      <point x="184" y="394" type="qcurve" smooth="yes"/>
      <point x="218" y="394"/>
      <point x="325" y="329"/>
    </contour>
  </outline>
</glyph>
<glyph name="exclamdown" format="1">
  <advance width="236"/>
  <unicode hex="00A1"/>
  <outline>
    <contour>
      <point x="172" y="519"/>
      <point x="141" y="487"/>
      <point x="95" y="487"/>
      <point x="61" y="519"/>
      <point x="61" y="565"/>
      <point x="95" y="598"/>
      <point x="141" y="598"/>
      <point x="172" y="565"/>
    </contour>
    <contour>
      <point x="154" y="400" type="line"/>
      <point x="154" y="-108" type="line"/>
      <point x="84" y="-108" type="line"/>
      <point x="84" y="400" type="line"/>
    </contour>
  </outline>
</glyph>
<glyph name="yen" format="1">
  <advance width="536"/>
  <unicode hex="00A5"/>
  <outline>
    <contour>
      <point x="268" y="442" type="line"/>
      <point x="422" y="698" type="line"/>
      <point x="511" y="698" type="line"/>
      <point x="305" y="355" type="line"/>
      <point x="305" y="326" type="line"/>
      <point x="395" y="326" type="line"/>
      <point x="395" y="276" type="line"/>
      <point x="305" y="276" type="line"/>
      <point x="305" y="226" type="line"/>
      <point x="395" y="226" type="line"/>
      <point x="395" y="176" type="line"/>
      <point x="305" y="176" type="line"/>
      <point x="305" y="0" type="line"/>
      <point x="229" y="0" type="line"/>
      <point x="229" y="176" type="line"/>
      <point x="139" y="176" type="line"/>
      <point x="139" y="226" type="line"/>
      <point x="229" y="226" type="line"/>
      <point x="229" y="276" type="line"/>
      <point x="139" y="276" type="line"/>
      <point x="139" y="326" type="line"/>
      <point x="229" y="326" type="line"/>
      <point x="229" y="358" type="line"/>
      <point x="26" y="698" type="line"/>
      <point x="115" y="698" type="line"/>
    </contour>
  </outline>
</glyph>
<glyph name="brokenbar" format="1">
  <advance width="183"/>
  <unicode hex="00A6"/>
  <outline>
    <contour>
      <point x="71" y="398" type="line"/>
      <point x="71" y="768" type="line"/>
      <point x="113" y="768" type="line"/>
      <point x="113" y="398" type="line"/>
    </contour>
    <contour>
      <point x="71" y="-70" type="line"/>
      <point x="71" y="300" type="line"/>
      <point x="113" y="300" type="line"/>
      <point x="113" y="-70" type="line"/>
    </contour>
  </outline>
</glyph>
<glyph name="section" format="1">
  <advance width="503"/>
  <unicode hex="00A7"/>
  <outline>
    <contour>
      <point x="116" y="461" type="qcurve"/>
      <point x="76" y="497"/>
      <point x="76" y="629"/>
      <point x="175" y="714"/>
      <point x="243" y="714" type="qcurve" smooth="yes"/>
      <point x="282" y="714"/>
      <point x="377" y="662"/>
      <point x="404" y="622" type="qcurve"/>
      <point x="358" y="589" type="line"/>
      <point x="343" y="613"/>
      <point x="279" y="649"/>
      <point x="206" y="649"/>
      <point x="147" y="598"/>
      <point x="147" y="520"/>
      <point x="212" y="484"/>
      <point x="241" y="475" type="qcurve" smooth="yes"/>
      <point x="379" y="432"/>
      <point x="426" y="385" type="qcurve"/>
      <point x="466" y="343"/>
      <point x="467" y="282" type="qcurve" smooth="yes"/>
      <point x="467" y="222"/>
      <point x="387" y="173" type="qcurve"/>
      <point x="427" y="137"/>
      <point x="427" y="5"/>
      <point x="328" y="-80"/>
      <point x="260" y="-80" type="qcurve" smooth="yes"/>
      <point x="221" y="-80"/>
      <point x="126" y="-28"/>
      <point x="99" y="12" type="qcurve"/>
      <point x="145" y="45" type="line"/>
      <point x="160" y="21"/>
      <point x="224" y="-15"/>
      <point x="297" y="-15"/>
      <point x="356" y="36"/>
      <point x="356" y="114"/>
      <point x="292" y="150"/>
      <point x="262" y="159" type="qcurve" smooth="yes"/>
      <point x="123" y="201"/>
      <point x="36" y="291"/>
      <point x="36" y="345" type="qcurve" smooth="yes"/>
      <point x="36" y="411"/>
    </contour>
    <contour>
      <point x="155" y="435" type="qcurve"/>
      <point x="104" y="400"/>
      <point x="104" y="291"/>
      <point x="154" y="266" type="qcurve" smooth="yes"/>
      <point x="195" y="245"/>
      <point x="226" y="238" type="qcurve" smooth="yes"/>
      <point x="310" y="219"/>
      <point x="348" y="199" type="qcurve"/>
      <point x="398" y="234"/>
      <point x="398" y="343"/>
      <point x="348" y="368" type="qcurve" smooth="yes"/>
      <point x="307" y="389"/>
      <point x="277" y="396" type="qcurve" smooth="yes"/>
      <point x="193" y="415"/>
    </contour>
  </outline>
</glyph>
<glyph name="dieresis" format="1">
  <advance width="452"/>
  <unicode hex="00A8"/>
  <outline>
    <contour>
      <point x="259" y="651"/>
      <point x="291" y="683"/>
      <point x="337" y="683"/>
      <point x="371" y="651"/>
      <point x="371" y="605"/>
      <point x="337" y="572"/>
      <point x="291" y="572"/>
      <point x="259" y="605"/>
    </contour>
    <contour>
      <point x="59" y="651"/>
      <point x="92" y="683"/>
      <point x="138" y="683"/>
      <point x="171" y="651"/>
      <point x="171" y="605"/>
      <point x="138" y="572"/>
      <point x="92" y="572"/>
      <point x="59" y="605"/>
    </contour>
  </outline>
</glyph>
<glyph name="ordfeminine" format="1">
  <advance width="422"/>
  <unicode hex="00AA"/>
  <outline>
    <contour>
      <point x="356" y="292" type="line"/>
      <point x="61" y="292" type="line"/>
      <point x="61" y="344" type="line"/>
      <point x="356" y="344" type="line"/>
    </contour>
    <contour>
      <point x="168" y="665"/>
      <point x="113" y="597"/>
      <point x="113" y="511"/>
      <point x="170" y="444"/>
      <point x="248" y="444"/>
      <point x="304" y="513"/>
      <point x="304" y="599"/>
      <point x="246" y="665"/>
    </contour>
    <contour>
      <point x="61" y="616"/>
      <point x="150" y="713"/>
      <point x="207" y="713" type="qcurve" smooth="yes"/>
      <point x="261" y="713"/>
      <point x="304" y="673" type="qcurve"/>
      <point x="304" y="703" type="line"/>
      <point x="356" y="703" type="line"/>
      <point x="356" y="406" type="line"/>
      <point x="304" y="406" type="line"/>
      <point x="304" y="436" type="line"/>
      <point x="261" y="396"/>
      <point x="207" y="396" type="qcurve" smooth="yes"/>
      <point x="149" y="396"/>
      <point x="61" y="494"/>
    </contour>
  </outline>
</glyph>
<glyph name="guillemotleft" format="1">
  <advance width="580"/>
  <unicode hex="00AB"/>
  <outline>
    <contour>
      <point x="23" y="244" type="line"/>
      <point x="271" y="432" type="line"/>
      <point x="313" y="375" type="line"/>
      <point x="137" y="244" type="line"/>
      <point x="313" y="112" type="line"/>
      <point x="271" y="56" type="line"/>
    </contour>
    <contour>
      <point x="243" y="244" type="line"/>
      <point x="492" y="432" type="line"/>
      <point x="534" y="375" type="line"/>
      <point x="357" y="244" type="line"/>
      <point x="534" y="112" type="line"/>
      <point x="492" y="56" type="line"/>
    </contour>
  </outline>
</glyph>
<glyph name="logicalnot" format="1">
  <advance width="394"/>
  <unicode hex="00AC"/>
  <outline>
    <contour>
      <point x="328" y="274" type="line"/>
      <point x="328" y="121" type="line"/>
      <point x="271" y="121" type="line"/>
      <point x="271" y="218" type="line"/>
      <point x="67" y="218" type="line"/>
      <point x="67" y="274" type="line"/>
    </contour>
  </outline>
</glyph>
<glyph name="registered" format="1">
  <advance width="719"/>
  <unicode hex="00AE"/>
  <outline>
    <contour>
      <point x="242" y="120" type="line"/>
      <point x="242" y="460" type="line"/>
      <point x="374" y="460" type="line" smooth="yes"/>
      <point x="416" y="460"/>
      <point x="481" y="403"/>
      <point x="481" y="358" type="qcurve" smooth="yes"/>
      <point x="481" y="296"/>
      <point x="428" y="269" type="qcurve"/>
      <point x="517" y="120" type="line"/>
      <point x="452" y="120" type="line"/>
      <point x="370" y="256" type="line"/>
      <point x="298" y="256" type="line"/>
      <point x="298" y="120" type="line"/>
    </contour>
    <contour>
      <point x="46" y="293" type="qcurve" smooth="yes"/>
      <point x="46" y="424"/>
      <point x="230" y="607"/>
      <point x="359" y="607" type="qcurve" smooth="yes"/>
      <point x="490" y="607"/>
      <point x="674" y="422"/>
      <point x="674" y="293" type="qcurve" smooth="yes"/>
      <point x="674" y="162"/>
      <point x="488" y="-22"/>
      <point x="359" y="-22" type="qcurve" smooth="yes"/>
      <point x="229" y="-22"/>
      <point x="46" y="164"/>
    </contour>
    <contour>
      <point x="93" y="293" type="qcurve" smooth="yes"/>
      <point x="93" y="181"/>
      <point x="249" y="27"/>
      <point x="359" y="27" type="qcurve" smooth="yes"/>
      <point x="471" y="27"/>
      <point x="626" y="183"/>
      <point x="626" y="293" type="qcurve" smooth="yes"/>
      <point x="626" y="405"/>
      <point x="469" y="559"/>
      <point x="359" y="559" type="qcurve" smooth="yes"/>
      <point x="247" y="559"/>
      <point x="93" y="403"/>
    </contour>
    <contour>
      <point x="298" y="409" type="line"/>
      <point x="298" y="308" type="line"/>
      <point x="354" y="308" type="line" smooth="yes"/>
      <point x="393" y="308"/>
      <point x="426" y="338"/>
      <point x="426" y="358" type="qcurve" smooth="yes"/>
      <point x="426" y="380"/>
      <point x="390" y="409"/>
      <point x="354" y="409" type="qcurve" smooth="yes"/>
    </contour>
  </outline>
</glyph>
<glyph name="macron" format="1">
  <advance width="415"/>
  <unicode hex="00AF"/>
  <outline>
    <contour>
      <point x="60" y="646" type="line"/>
      <point x="334" y="646" type="line"/>
      <point x="334" y="600" type="line"/>
      <point x="60" y="600" type="line"/>
    </contour>
  </outline>
</glyph>
<glyph name="degree" format="1">
  <advance width="349"/>
  <unicode hex="00B0"/>
  <outline>
    <contour>
      <point x="37" y="632"/>
      <point x="117" y="714"/>
      <point x="231" y="714"/>
      <point x="312" y="632"/>
      <point x="312" y="518"/>
      <point x="231" y="439"/>
      <point x="117" y="439"/>
      <point x="37" y="518"/>
    </contour>
    <contour>
      <point x="92" y="575" type="qcurve" smooth="yes"/>
      <point x="92" y="541"/>
      <point x="139" y="494"/>
      <point x="209" y="494"/>
      <point x="256" y="541"/>
      <point x="256" y="575" type="qcurve" smooth="yes"/>
      <point x="256" y="610"/>
      <point x="208" y="659"/>
      <point x="140" y="659"/>
      <point x="92" y="610"/>
    </contour>
  </outline>
</glyph>
<glyph name="uni00B2" format="1">
  <advance width="364"/>
  <unicode hex="00B2"/>
  <outline>
    <contour>
      <point x="41" y="626" type="line"/>
      <point x="73" y="668"/>
      <point x="133" y="706"/>
      <point x="175" y="706" type="qcurve" smooth="yes"/>
      <point x="237" y="706"/>
      <point x="309" y="642"/>
      <point x="309" y="585" type="qcurve" smooth="yes"/>
      <point x="309" y="540"/>
      <point x="262" y="473"/>
      <point x="204" y="430" type="qcurve" smooth="yes"/>
      <point x="133" y="376"/>
      <point x="114" y="319" type="qcurve"/>
      <point x="314" y="319" type="line"/>
      <point x="314" y="264" type="line"/>
      <point x="48" y="264" type="line"/>
      <point x="48" y="297" type="line" smooth="yes"/>
      <point x="48" y="377"/>
      <point x="174" y="477" type="qcurve" smooth="yes"/>
      <point x="216" y="511"/>
      <point x="250" y="556"/>
      <point x="250" y="585" type="qcurve" smooth="yes"/>
      <point x="250" y="650"/>
      <point x="175" y="650" type="qcurve" smooth="yes"/>
      <point x="155" y="650"/>
      <point x="121" y="631"/>
      <point x="103" y="611"/>
      <point x="86" y="588" type="qcurve"/>
    </contour>
  </outline>
</glyph>
<glyph name="uni00B3" format="1">
  <advance width="348"/>
  <unicode hex="00B3"/>
  <outline>
    <contour>
      <point x="49" y="642" type="line"/>
      <point x="68" y="671"/>
      <point x="136" y="706"/>
      <point x="167" y="706" type="qcurve" smooth="yes"/>
      <point x="221" y="706"/>
      <point x="296" y="641"/>
      <point x="296" y="590" type="qcurve" smooth="yes"/>
      <point x="296" y="541"/>
      <point x="234" y="502" type="qcurve"/>
      <point x="310" y="462"/>
      <point x="310" y="388" type="qcurve" smooth="yes"/>
      <point x="310" y="325"/>
      <point x="214" y="260"/>
      <point x="153" y="260" type="qcurve" smooth="yes"/>
      <point x="117" y="260"/>
      <point x="48" y="297"/>
      <point x="25" y="326" type="qcurve"/>
      <point x="69" y="361" type="line"/>
      <point x="106" y="315"/>
      <point x="153" y="315" type="qcurve" smooth="yes"/>
      <point x="251" y="315"/>
      <point x="251" y="388" type="qcurve" smooth="yes"/>
      <point x="251" y="471"/>
      <point x="120" y="471" type="qcurve"/>
      <point x="120" y="526" type="line"/>
      <point x="166" y="526"/>
      <point x="237" y="562"/>
      <point x="237" y="590" type="qcurve" smooth="yes"/>
      <point x="237" y="617"/>
      <point x="200" y="651"/>
      <point x="167" y="651" type="qcurve" smooth="yes"/>
      <point x="125" y="651"/>
      <point x="93" y="607" type="qcurve"/>
    </contour>
  </outline>
</glyph>
<glyph name="paragraph" format="1">
  <advance width="537"/>
  <unicode hex="00B6"/>
  <outline>
    <contour>
      <point x="328" y="0" type="line"/>
      <point x="251" y="0" type="line"/>
      <point x="251" y="289" type="line"/>
      <point x="160" y="296"/>
      <point x="33" y="401"/>
      <point x="33" y="493" type="qcurve" smooth="yes"/>
      <point x="33" y="592"/>
      <point x="181" y="698"/>
      <point x="279" y="698" type="qcurve" smooth="yes"/>
      <point x="452" y="698" type="line"/>
      <point x="452" y="0" type="line"/>
      <point x="375" y="0" type="line"/>
      <point x="375" y="634" type="line"/>
      <point x="328" y="634" type="line"/>
    </contour>
    <contour>
      <point x="251" y="354" type="qcurve"/>
      <point x="251" y="632" type="line"/>
      <point x="191" y="625"/>
      <point x="117" y="554"/>
      <point x="117" y="432"/>
      <point x="191" y="361"/>
    </contour>
  </outline>
</glyph>
<glyph name="uni00B9" format="1">
  <advance width="227"/>
  <unicode hex="00B9"/>
  <outline>
    <contour>
      <point x="111" y="698" type="line"/>
      <point x="166" y="698" type="line"/>
      <point x="166" y="266" type="line"/>
      <point x="108" y="266" type="line"/>
      <point x="108" y="572" type="line"/>
      <point x="49" y="518" type="line"/>
      <point x="12" y="532" type="line"/>
    </contour>
  </outline>
</glyph>
<glyph name="guillemotright" format="1">
  <advance width="581"/>
  <unicode hex="00BB"/>
  <outline>
    <contour>
      <point x="339" y="244" type="line"/>
      <point x="90" y="56" type="line"/>
      <point x="48" y="113" type="line"/>
      <point x="223" y="244" type="line"/>
      <point x="48" y="376" type="line"/>
      <point x="90" y="432" type="line"/>
    </contour>
    <contour>
      <point x="559" y="244" type="line"/>
      <point x="310" y="56" type="line"/>
      <point x="268" y="113" type="line"/>
      <point x="443" y="244" type="line"/>
      <point x="268" y="376" type="line"/>
      <point x="310" y="432" type="line"/>
    </contour>
  </outline>
</glyph>
<glyph name="onequarter" format="1">
  <advance width="707"/>
  <unicode hex="00BC"/>
  <outline>
    <contour>
      <point x="483" y="698" type="line"/>
      <point x="229" y="0" type="line"/>
      <point x="166" y="0" type="line"/>
      <point x="420" y="698" type="line"/>
    </contour>
    <contour>
      <point x="128" y="698" type="line"/>
      <point x="183" y="698" type="line"/>
      <point x="183" y="266" type="line"/>
      <point x="125" y="266" type="line"/>
      <point x="125" y="572" type="line"/>
      <point x="67" y="518" type="line"/>
      <point x="30" y="532" type="line"/>
    </contour>
    <contour>
      <point x="565" y="332" type="line"/>
      <point x="450" y="167" type="line"/>
      <point x="565" y="167" type="line"/>
    </contour>
    <contour>
      <point x="568" y="432" type="line"/>
      <point x="626" y="432" type="line"/>
      <point x="626" y="167" type="line"/>
      <point x="667" y="167" type="line"/>
      <point x="667" y="108" type="line"/>
      <point x="626" y="108" type="line"/>
      <point x="626" y="0" type="line"/>
      <point x="565" y="0" type="line"/>
      <point x="565" y="108" type="line"/>
      <point x="380" y="108" type="line"/>
      <point x="380" y="162" type="line"/>
    </contour>
  </outline>
</glyph>
<glyph name="onehalf" format="1">
  <advance width="750"/>
  <unicode hex="00BD"/>
  <outline>
    <contour>
      <point x="432" y="362" type="line"/>
      <point x="464" y="404"/>
      <point x="524" y="442"/>
      <point x="566" y="442" type="qcurve" smooth="yes"/>
      <point x="628" y="442"/>
      <point x="700" y="378"/>
      <point x="700" y="321" type="qcurve" smooth="yes"/>
      <point x="700" y="276"/>
      <point x="653" y="209"/>
      <point x="595" y="166" type="qcurve" smooth="yes"/>
      <point x="523" y="112"/>
      <point x="505" y="56" type="qcurve"/>
      <point x="706" y="56" type="line"/>
      <point x="706" y="0" type="line"/>
      <point x="439" y="0" type="line"/>
      <point x="439" y="33" type="line" smooth="yes"/>
      <point x="439" y="113"/>
      <point x="565" y="213" type="qcurve" smooth="yes"/>
      <point x="607" y="247"/>
      <point x="641" y="292"/>
      <point x="641" y="321" type="qcurve" smooth="yes"/>
      <point x="641" y="386"/>
      <point x="566" y="386" type="qcurve" smooth="yes"/>
      <point x="546" y="386"/>
      <point x="512" y="367"/>
      <point x="494" y="347"/>
      <point x="477" y="324" type="qcurve"/>
    </contour>
    <contour>
      <point x="483" y="698" type="line"/>
      <point x="229" y="0" type="line"/>
      <point x="166" y="0" type="line"/>
      <point x="420" y="698" type="line"/>
    </contour>
    <contour>
      <point x="128" y="698" type="line"/>
      <point x="183" y="698" type="line"/>
      <point x="183" y="266" type="line"/>
      <point x="125" y="266" type="line"/>
      <point x="125" y="572" type="line"/>
      <point x="67" y="518" type="line"/>
      <point x="30" y="532" type="line"/>
    </contour>
  </outline>
</glyph>
<glyph name="threequarters" format="1">
  <advance width="791"/>
  <unicode hex="00BE"/>
  <outline>
    <contour>
      <point x="56" y="642" type="line"/>
      <point x="75" y="671"/>
      <point x="143" y="706"/>
      <point x="174" y="706" type="qcurve" smooth="yes"/>
      <point x="228" y="706"/>
      <point x="303" y="641"/>
      <point x="303" y="590" type="qcurve" smooth="yes"/>
      <point x="303" y="540"/>
      <point x="242" y="502" type="qcurve"/>
      <point x="317" y="463"/>
      <point x="317" y="388" type="qcurve" smooth="yes"/>
      <point x="317" y="325"/>
      <point x="221" y="260"/>
      <point x="160" y="260" type="qcurve" smooth="yes"/>
      <point x="124" y="260"/>
      <point x="55" y="297"/>
      <point x="32" y="326" type="qcurve"/>
      <point x="76" y="361" type="line"/>
      <point x="113" y="315"/>
      <point x="160" y="315" type="qcurve" smooth="yes"/>
      <point x="258" y="315"/>
      <point x="258" y="388" type="qcurve" smooth="yes"/>
      <point x="258" y="471"/>
      <point x="127" y="471" type="qcurve"/>
      <point x="127" y="526" type="line"/>
      <point x="173" y="526"/>
      <point x="244" y="562"/>
      <point x="244" y="590" type="qcurve" smooth="yes"/>
      <point x="244" y="617"/>
      <point x="207" y="651"/>
      <point x="174" y="651" type="qcurve" smooth="yes"/>
      <point x="132" y="651"/>
      <point x="100" y="607" type="qcurve"/>
    </contour>
    <contour>
      <point x="571" y="698" type="line"/>
      <point x="317" y="0" type="line"/>
      <point x="254" y="0" type="line"/>
      <point x="508" y="698" type="line"/>
    </contour>
    <contour>
      <point x="653" y="332" type="line"/>
      <point x="538" y="167" type="line"/>
      <point x="653" y="167" type="line"/>
    </contour>
    <contour>
      <point x="656" y="432" type="line"/>
      <point x="714" y="432" type="line"/>
      <point x="714" y="167" type="line"/>
      <point x="755" y="167" type="line"/>
      <point x="755" y="108" type="line"/>
      <point x="714" y="108" type="line"/>
      <point x="714" y="0" type="line"/>
      <point x="653" y="0" type="line"/>
      <point x="653" y="108" type="line"/>
      <point x="468" y="108" type="line"/>
      <point x="468" y="162" type="line"/>
    </contour>
  </outline>
</glyph>
<glyph name="AE" format="1">
  <advance width="790"/>
  <unicode hex="00C6"/>
  <outline>
    <contour>
      <point x="413" y="743" type="move" name="above"/>
    </contour>
    <contour>
      <point x="167" y="196" type="line"/>
      <point x="61" y="0" type="line"/>
      <point x="-20" y="0" type="line"/>
      <point x="356" y="696" type="line"/>
      <point x="356" y="698" type="line"/>
      <point x="748" y="698" type="line"/>
      <point x="748" y="634" type="line"/>
      <point x="432" y="634" type="line"/>
      <point x="432" y="411" type="line"/>
      <point x="678" y="411" type="line"/>
      <point x="678" y="348" type="line"/>
      <point x="432" y="348" type="line"/>
      <point x="432" y="63" type="line"/>
      <point x="751" y="63" type="line"/>
      <point x="751" y="0" type="line"/>
      <point x="356" y="0" type="line"/>
      <point x="356" y="196" type="line"/>
    </contour>
    <contour>
      <point x="202" y="259" type="line"/>
      <point x="356" y="259" type="line"/>
      <point x="356" y="545" type="line"/>
    </contour>
  </outline>
</glyph>
<glyph name="Eth" format="1">
  <advance width="626"/>
  <unicode hex="00D0"/>
  <outline>
    <contour>
      <point x="22" y="316" type="line"/>
      <point x="22" y="380" type="line"/>
      <point x="83" y="380" type="line"/>
      <point x="83" y="698" type="line"/>
      <point x="235" y="698" type="line" smooth="yes"/>
      <point x="303" y="698"/>
      <point x="363.5" y="677" type="qcurve" smooth="yes"/>
      <point x="424" y="656"/>
      <point x="473.5" y="615" type="qcurve" smooth="yes"/>
      <point x="523" y="574"/>
      <point x="552" y="505" type="qcurve" smooth="yes"/>
      <point x="581" y="436"/>
      <point x="581" y="348" type="qcurve" smooth="yes"/>
      <point x="581" y="260"/>
      <point x="552" y="191.5" type="qcurve" smooth="yes"/>
      <point x="523" y="123"/>
      <point x="473.5" y="82" type="qcurve" smooth="yes"/>
      <point x="424" y="41"/>
      <point x="363.5" y="20.5" type="qcurve" smooth="yes"/>
      <point x="303" y="0"/>
      <point x="235" y="0" type="qcurve" smooth="yes"/>
      <point x="83" y="0" type="line"/>
      <point x="83" y="316" type="line"/>
    </contour>
    <contour>
      <point x="160" y="380" type="line"/>
      <point x="290" y="380" type="line"/>
      <point x="290" y="316" type="line"/>
      <point x="160" y="316" type="line"/>
      <point x="160" y="70" type="line"/>
      <point x="213" y="70" type="line" smooth="yes"/>
      <point x="350" y="70"/>
      <point x="425" y="138.5" type="qcurve" smooth="yes"/>
      <point x="500" y="207"/>
      <point x="500" y="348" type="qcurve" smooth="yes"/>
      <point x="500" y="490"/>
      <point x="425" y="559" type="qcurve" smooth="yes"/>
      <point x="350" y="628"/>
      <point x="213" y="628" type="qcurve" smooth="yes"/>
      <point x="160" y="628" type="line"/>
    </contour>
  </outline>
</glyph>
<glyph name="Oslash" format="1">
  <advance width="686"/>
  <unicode hex="00D8"/>
  <outline>
    <contour>
      <point x="343" y="743" type="move" name="above"/>
    </contour>
    <contour>
      <point x="496" y="748" type="line"/>
      <point x="543" y="726" type="line"/>
      <point x="507.77" y="650.452" type="line"/>
      <point x="530.944" y="630.582"/>
      <point x="552.5" y="604.5" type="qcurve" smooth="yes"/>
      <point x="643" y="495"/>
      <point x="643" y="348" type="qcurve" smooth="yes"/>
      <point x="643" y="201"/>
      <point x="552.5" y="92.5" type="qcurve" smooth="yes"/>
      <point x="462" y="-16"/>
      <point x="343" y="-16" type="qcurve" smooth="yes"/>
      <point x="273.738" y="-16"/>
      <point x="214.13" y="20.7563" type="qcurve"/>
      <point x="183" y="-46" type="line"/>
      <point x="136" y="-24" type="line"/>
      <point x="171.736" y="52.6343" type="line"/>
      <point x="152.021" y="70.295"/>
      <point x="133.5" y="92.5" type="qcurve" smooth="yes"/>
      <point x="43" y="201"/>
      <point x="43" y="348" type="qcurve" smooth="yes"/>
      <point x="43" y="495"/>
      <point x="133.5" y="604.5" type="qcurve" smooth="yes"/>
      <point x="224" y="714"/>
      <point x="343" y="714" type="qcurve" smooth="yes"/>
      <point x="408.187" y="714"/>
      <point x="464.822" y="681.142" type="qcurve"/>
    </contour>
    <contour>
      <point x="124" y="348" type="qcurve" smooth="yes"/>
      <point x="124" y="231"/>
      <point x="188" y="142.5" type="qcurve" smooth="yes"/>
      <point x="195.86" y="131.631"/>
      <point x="204.128" y="122.096" type="qcurve"/>
      <point x="434.944" y="617.07" type="line"/>
      <point x="393.057" y="644"/>
      <point x="343" y="644" type="qcurve" smooth="yes"/>
      <point x="252" y="644"/>
      <point x="188" y="555" type="qcurve" smooth="yes"/>
      <point x="124" y="466"/>
    </contour>
    <contour>
      <point x="475.932" y="582.177" type="qcurve"/>
      <point x="244.249" y="85.345" type="line"/>
      <point x="288.843" y="54"/>
      <point x="343" y="54" type="qcurve" smooth="yes"/>
      <point x="434" y="54"/>
      <point x="498" y="142.5" type="qcurve" smooth="yes"/>
      <point x="562" y="231"/>
      <point x="562" y="348" type="qcurve" smooth="yes"/>
      <point x="562" y="466"/>
      <point x="498" y="555" type="qcurve" smooth="yes"/>
      <point x="487.341" y="569.823"/>
    </contour>
  </outline>
</glyph>
<glyph name="germandbls" format="1">
  <advance width="500"/>
  <unicode hex="00DF"/>
  <outline>
    <contour>
      <point x="209" y="440" type="line"/>
      <point x="267" y="440"/>
      <point x="367" y="540"/>
      <point x="367" y="576" type="qcurve" smooth="yes"/>
      <point x="367" y="624"/>
      <point x="302" y="695"/>
      <point x="190" y="695"/>
      <point x="134" y="625"/>
      <point x="134" y="564" type="qcurve" smooth="yes"/>
      <point x="134" y="0" type="line"/>
      <point x="65" y="0" type="line"/>
      <point x="65" y="546" type="line" smooth="yes"/>
      <point x="65" y="759"/>
      <point x="244" y="759" type="qcurve" smooth="yes"/>
      <point x="338" y="759"/>
      <point x="438" y="661"/>
      <point x="438" y="501"/>
      <point x="364" y="450" type="qcurve" smooth="yes"/>
      <point x="337" y="431"/>
      <point x="309" y="419" type="qcurve"/>
      <point x="364" y="402"/>
      <point x="404" y="365" type="qcurve" smooth="yes"/>
      <point x="477" y="298"/>
      <point x="477" y="217" type="qcurve" smooth="yes"/>
      <point x="477" y="216"/>
      <point x="477" y="215" type="qcurve" smooth="yes"/>
      <point x="477" y="96"/>
      <point x="385" y="-16"/>
      <point x="317" y="-16" type="qcurve" smooth="yes"/>
      <point x="280" y="-16"/>
      <point x="197" y="47"/>
      <point x="176" y="97" type="qcurve"/>
      <point x="227" y="120" type="line"/>
      <point x="239" y="92"/>
      <point x="296" y="48"/>
      <point x="317" y="48" type="qcurve" smooth="yes"/>
      <point x="407" y="48"/>
      <point x="407" y="215" type="qcurve" smooth="yes"/>
      <point x="407" y="286"/>
      <point x="278" y="390"/>
      <point x="209" y="390" type="qcurve"/>
    </contour>
  </outline>
</glyph>
<glyph name="ccedilla" format="1">
  <advance width="488"/>
  <unicode hex="00E7"/>
  <outline>
    <contour>
      <point x="465" y="76" type="line"/>
      <point x="428" y="30"/>
      <point x="384" y="7" type="qcurve" smooth="yes"/>
      <point x="350.355" y="-10.587"/>
      <point x="303.847" y="-14.7261" type="qcurve"/>
      <point x="277" y="-70" type="line"/>
      <point x="332" y="-70"/>
      <point x="359.5" y="-88" type="qcurve" smooth="yes"/>
      <point x="387" y="-106"/>
      <point x="387" y="-128" type="qcurve" smooth="yes"/>
      <point x="387" y="-205"/>
      <point x="177" y="-205" type="qcurve"/>
      <point x="177" y="-177" type="line"/>
      <point x="228" y="-177"/>
      <point x="274" y="-165.5" type="qcurve" smooth="yes"/>
      <point x="320" y="-154"/>
      <point x="320" y="-134" type="qcurve" smooth="yes"/>
      <point x="320" y="-124"/>
      <point x="313" y="-118" type="qcurve" smooth="yes"/>
      <point x="306" y="-112"/>
      <point x="281.5" y="-108.5" type="qcurve" smooth="yes"/>
      <point x="257" y="-105"/>
      <point x="210" y="-105" type="qcurve"/>
      <point x="252.064" y="-14.8629" type="line"/>
      <point x="173.978" y="-6.67342"/>
      <point x="109" y="60.5" type="qcurve" smooth="yes"/>
      <point x="35" y="137"/>
      <point x="35" y="240" type="qcurve" smooth="yes"/>
      <point x="35" y="343"/>
      <point x="108" y="419.5" type="qcurve" smooth="yes"/>
      <point x="181" y="496"/>
      <point x="272" y="496" type="qcurve" smooth="yes"/>
      <point x="322" y="496"/>
      <point x="370.5" y="469.5" type="qcurve" smooth="yes"/>
      <point x="419" y="443"/>
      <point x="454" y="399" type="qcurve"/>
      <point x="402" y="359" type="line"/>
      <point x="350" y="432"/>
      <point x="272" y="432" type="qcurve" smooth="yes"/>
      <point x="205" y="432"/>
      <point x="154.5" y="375.5" type="qcurve" smooth="yes"/>
      <point x="104" y="319"/>
      <point x="104" y="240" type="qcurve" smooth="yes"/>
      <point x="104" y="161"/>
      <point x="154.5" y="104" type="qcurve" smooth="yes"/>
      <point x="205" y="47"/>
      <point x="272" y="47" type="qcurve" smooth="yes"/>
      <point x="325" y="47"/>
      <point x="354.5" y="63" type="qcurve" smooth="yes"/>
      <point x="384" y="79"/>
      <point x="411" y="114" type="qcurve"/>
    </contour>
  </outline>
</glyph>
<glyph name="eth" format="1">
  <advance width="557"/>
  <unicode hex="00F0"/>
  <outline>
    <contour>
      <point x="103" y="316"/>
      <point x="103" y="162"/>
      <point x="202" y="47"/>
      <point x="340" y="47"/>
      <point x="440" y="165"/>
      <point x="440" y="240" type="qcurve" smooth="yes"/>
      <point x="440" y="292"/>
      <point x="434" y="337" type="qcurve"/>
      <point x="386" y="396"/>
      <point x="329" y="419" type="qcurve" smooth="yes"/>
      <point x="301" y="431"/>
      <point x="272" y="431" type="qcurve" smooth="yes"/>
      <point x="203" y="431"/>
    </contour>
    <contour>
      <point x="202" y="548" type="line"/>
      <point x="166" y="594" type="line"/>
      <point x="234" y="646" type="line"/>
      <point x="204" y="669"/>
      <point x="165" y="696" type="qcurve"/>
      <point x="200" y="743" type="line"/>
      <point x="245" y="714"/>
      <point x="284" y="684" type="qcurve"/>
      <point x="359" y="742" type="line"/>
      <point x="395" y="696" type="line"/>
      <point x="330" y="646" type="line"/>
      <point x="462" y="529"/>
      <point x="496" y="379" type="qcurve" smooth="yes"/>
      <point x="510" y="316"/>
      <point x="510" y="240" type="qcurve" smooth="yes"/>
      <point x="510" y="138"/>
      <point x="367" y="-16"/>
      <point x="169" y="-16"/>
      <point x="35" y="146"/>
      <point x="35" y="333"/>
      <point x="170" y="496"/>
      <point x="272" y="496" type="qcurve" smooth="yes"/>
      <point x="308" y="496"/>
      <point x="382" y="460"/>
      <point x="410" y="432" type="qcurve"/>
      <point x="375" y="526"/>
      <point x="281" y="609" type="qcurve"/>
    </contour>
  </outline>
</glyph>
<glyph name="oslash" format="1">
  <advance width="544"/>
  <unicode hex="00F8"/>
  <outline>
    <contour>
      <point x="272" y="581" type="move" name="above"/>
    </contour>
    <contour>
      <point x="390" y="557" type="line"/>
      <point x="438" y="535" type="line"/>
      <point x="399.508" y="452.339" type="line"/>
      <point x="418.527" y="438.206"/>
      <point x="436.5" y="419.5" type="qcurve" smooth="yes"/>
      <point x="510" y="343"/>
      <point x="510" y="240" type="qcurve" smooth="yes"/>
      <point x="510" y="136"/>
      <point x="437.5" y="60" type="qcurve" smooth="yes"/>
      <point x="365" y="-16"/>
      <point x="274" y="-16" type="qcurve" smooth="yes"/>
      <point x="229.897" y="-16"/>
      <point x="189.788" y="1.96837" type="qcurve"/>
      <point x="160" y="-62" type="line"/>
      <point x="112" y="-40" type="line"/>
      <point x="144.204" y="29.1571" type="line"/>
      <point x="126.146" y="42.7752"/>
      <point x="109" y="60.5" type="qcurve" smooth="yes"/>
      <point x="35" y="137"/>
      <point x="35" y="240" type="qcurve" smooth="yes"/>
      <point x="35" y="343"/>
      <point x="108" y="419.5" type="qcurve" smooth="yes"/>
      <point x="181" y="496"/>
      <point x="272" y="496" type="qcurve" smooth="yes"/>
      <point x="314.793" y="496"/>
      <point x="353.717" y="479.083" type="qcurve"/>
    </contour>
    <contour>
      <point x="104" y="240" type="qcurve" smooth="yes"/>
      <point x="104" y="161"/>
      <point x="154.5" y="104" type="qcurve" smooth="yes"/>
      <point x="162.633" y="94.82"/>
      <point x="171.194" y="87.1185" type="qcurve"/>
      <point x="326.871" y="421.431" type="line"/>
      <point x="300.979" y="432"/>
      <point x="272" y="432" type="qcurve" smooth="yes"/>
      <point x="205" y="432"/>
      <point x="154.5" y="375.5" type="qcurve" smooth="yes"/>
      <point x="104" y="319"/>
    </contour>
    <contour>
      <point x="371.895" y="393.04" type="qcurve"/>
      <point x="215.951" y="58.1544" type="line"/>
      <point x="242.361" y="47"/>
      <point x="272" y="47" type="qcurve" smooth="yes"/>
      <point x="339" y="47"/>
      <point x="389.5" y="104" type="qcurve" smooth="yes"/>
      <point x="440" y="161"/>
      <point x="440" y="240" type="qcurve" smooth="yes"/>
      <point x="440" y="319"/>
      <point x="389.5" y="375.5" type="qcurve" smooth="yes"/>
      <point x="380.935" y="385.083"/>
    </contour>
  </outline>
</glyph>
<glyph name="thorn" format="1">
  <advance width="513"/>
  <unicode hex="00FE"/>
  <outline>
    <contour>
      <point x="134" y="-205" type="line"/>
      <point x="65" y="-205" type="line"/>
      <point x="65" y="638" type="line"/>
      <point x="134" y="638" type="line"/>
      <point x="134" y="402" type="line"/>
      <point x="168" y="442"/>
      <point x="192" y="458" type="qcurve" smooth="yes"/>
      <point x="251" y="496"/>
      <point x="392" y="496"/>
      <point x="485" y="401"/>
      <point x="485" y="321" type="qcurve" smooth="yes"/>
      <point x="485" y="261"/>
      <point x="438" y="155"/>
      <point x="400" y="119" type="qcurve"/>
      <point x="303" y="23"/>
      <point x="134" y="-19" type="qcurve"/>
    </contour>
    <contour>
      <point x="134" y="324" type="qcurve"/>
      <point x="134" y="33" type="line"/>
      <point x="219" y="54"/>
      <point x="301" y="119" type="qcurve" smooth="yes"/>
      <point x="348" y="157"/>
      <point x="410" y="266"/>
      <point x="410" y="373"/>
      <point x="353" y="431"/>
      <point x="323" y="431" type="qcurve" smooth="yes"/>
      <point x="226" y="431"/>
    </contour>
  </outline>
</glyph>
<glyph name="Eogonek" format="1">
  <advance width="515"/>
  <unicode hex="0118"/>
  <outline>
    <contour>
      <point x="292" y="743" type="move" name="above"/>
    </contour>
    <contour>
      <point x="345" y="-84" type="qcurve" smooth="yes"/>
      <point x="345" y="-154"/>
      <point x="451" y="-154" type="qcurve" smooth="yes"/>
      <point x="478" y="-154"/>
      <point x="506" y="-147" type="qcurve"/>
      <point x="513" y="-174" type="line"/>
      <point x="453" y="-190"/>
      <point x="407" y="-190" type="qcurve" smooth="yes"/>
      <point x="278" y="-190"/>
      <point x="278" y="-93" type="qcurve" smooth="yes"/>
      <point x="278" y="-30.6178"/>
      <point x="331.603" y="0" type="qcurve"/>
      <point x="81" y="0" type="line"/>
      <point x="81" y="698" type="line"/>
      <point x="472" y="698" type="line"/>
      <point x="472" y="634" type="line"/>
      <point x="158" y="634" type="line"/>
      <point x="158" y="411" type="line"/>
      <point x="403" y="411" type="line"/>
      <point x="403" y="348" type="line"/>
      <point x="158" y="348" type="line"/>
      <point x="158" y="63" type="line"/>
      <point x="475" y="63" type="line"/>
      <point x="475" y="0" type="line"/>
      <point x="413" y="0" type="line"/>
      <point x="371" y="-13"/>
      <point x="358" y="-30" type="qcurve" smooth="yes"/>
      <point x="345" y="-47"/>
    </contour>
  </outline>
</glyph>
<glyph name="eogonek" format="1">
  <advance width="538"/>
  <unicode hex="0119"/>
  <outline>
    <contour>
      <point x="272" y="581" type="move" name="above"/>
    </contour>
    <contour>
      <point x="291" y="-84" type="qcurve" smooth="yes"/>
      <point x="291" y="-154"/>
      <point x="397" y="-154" type="qcurve" smooth="yes"/>
      <point x="424" y="-154"/>
      <point x="452" y="-147" type="qcurve"/>
      <point x="459" y="-174" type="line"/>
      <point x="399" y="-190"/>
      <point x="353" y="-190" type="qcurve" smooth="yes"/>
      <point x="224" y="-190"/>
      <point x="224" y="-93" type="qcurve" smooth="yes"/>
      <point x="224" y="-44.554"/>
      <point x="256.328" y="-15.2654" type="qcurve"/>
      <point x="175.748" y="-8.50332"/>
      <point x="109" y="60.5" type="qcurve" smooth="yes"/>
      <point x="35" y="137"/>
      <point x="35" y="240" type="qcurve" smooth="yes"/>
      <point x="35" y="343"/>
      <point x="108" y="419.5" type="qcurve" smooth="yes"/>
      <point x="181" y="496"/>
      <point x="272" y="496" type="qcurve" smooth="yes"/>
      <point x="363" y="496"/>
      <point x="436.5" y="419.5" type="qcurve" smooth="yes"/>
      <point x="510" y="343"/>
      <point x="510" y="240" type="qcurve"/>
      <point x="104" y="240" type="line"/>
      <point x="104" y="161"/>
      <point x="154.5" y="104" type="qcurve" smooth="yes"/>
      <point x="205" y="47"/>
      <point x="272" y="47" type="qcurve" smooth="yes"/>
      <point x="345" y="47"/>
      <point x="378.5" y="67.5" type="qcurve" smooth="yes"/>
      <point x="412" y="88"/>
      <point x="439" y="134" type="qcurve"/>
      <point x="495" y="97" type="line"/>
      <point x="458" y="40"/>
      <point x="409" y="12" type="qcurve" smooth="yes"/>
      <point x="375.947" y="-6.88741"/>
      <point x="326.058" y="-13.0343" type="qcurve"/>
      <point x="310.92" y="-20.9504"/>
      <point x="304" y="-30" type="qcurve" smooth="yes"/>
      <point x="291" y="-47"/>
    </contour>
    <contour>
      <point x="115" y="303" type="qcurve"/>
      <point x="430" y="303" type="line"/>
      <point x="412" y="360"/>
      <point x="368" y="396" type="qcurve" smooth="yes"/>
      <point x="324" y="432"/>
      <point x="272" y="432" type="qcurve" smooth="yes"/>
      <point x="220" y="432"/>
      <point x="176.5" y="396" type="qcurve" smooth="yes"/>
      <point x="133" y="360"/>
    </contour>
  </outline>
</glyph>
<glyph name="Hbar" format="1">
  <advance width="622"/>
  <unicode hex="0126"/>
  <outline>
    <contour>
      <point x="37" y="542" type="line"/>
      <point x="37" y="581" type="line"/>
      <point x="81" y="581" type="line"/>
      <point x="81" y="698" type="line"/>
      <point x="158" y="698" type="line"/>
      <point x="158" y="581" type="line"/>
      <point x="465" y="581" type="line"/>
      <point x="465" y="698" type="line"/>
      <point x="542" y="698" type="line"/>
      <point x="542" y="581" type="line"/>
      <point x="588" y="581" type="line"/>
      <point x="588" y="542" type="line"/>
      <point x="542" y="542" type="line"/>
      <point x="542" y="0" type="line"/>
      <point x="465" y="0" type="line"/>
      <point x="465" y="333" type="line"/>
      <point x="158" y="333" type="line"/>
      <point x="158" y="0" type="line"/>
      <point x="81" y="0" type="line"/>
      <point x="81" y="542" type="line"/>
    </contour>
    <contour>
      <point x="465" y="542" type="line"/>
      <point x="158" y="542" type="line"/>
      <point x="158" y="396" type="line"/>
      <point x="465" y="396" type="line"/>
    </contour>
  </outline>
</glyph>
<glyph name="dotlessi" format="1">
  <advance width="198"/>
  <unicode hex="0131"/>
  <outline>
    <contour>
      <point x="99" y="581" type="move" name="above"/>
    </contour>
    <contour>
      <point x="65" y="0" type="line"/>
      <point x="65" y="479" type="line"/>
      <point x="134" y="479" type="line"/>
      <point x="134" y="0" type="line"/>
    </contour>
  </outline>
</glyph>
<glyph name="Lslash" format="1">
  <advance width="451"/>
  <unicode hex="0141"/>
  <outline>
    <contour>
      <point x="163" y="450.73" type="line"/>
      <point x="249" y="511" type="line"/>
      <point x="272" y="478" type="line"/>
      <point x="163" y="401.611" type="line"/>
      <point x="163" y="63" type="line"/>
      <point x="436" y="63" type="line"/>
      <point x="436" y="0" type="line"/>
      <point x="86" y="0" type="line"/>
      <point x="86" y="347.648" type="line"/>
      <point x="28" y="307" type="line"/>
      <point x="5" y="340" type="line"/>
      <point x="86" y="396.766" type="line"/>
      <point x="86" y="698" type="line"/>
      <point x="163" y="698" type="line"/>
    </contour>
  </outline>
</glyph>
<glyph name="lslash" format="1">
  <advance width="231"/>
  <unicode hex="0142"/>
  <outline>
    <contour>
      <point x="151" y="454.934" type="line"/>
      <point x="231" y="511" type="line"/>
      <point x="254" y="478" type="line"/>
      <point x="151" y="405.816" type="line"/>
      <point x="151" y="0" type="line"/>
      <point x="82" y="0" type="line"/>
      <point x="82" y="357.459" type="line"/>
      <point x="10" y="307" type="line"/>
      <point x="-13" y="340" type="line"/>
      <point x="82" y="406.578" type="line"/>
      <point x="82" y="743" type="line"/>
      <point x="151" y="743" type="line"/>
    </contour>
  </outline>
</glyph>
<glyph name="oe" format="1">
  <advance width="944"/>
  <unicode hex="0153"/>
  <outline>
    <contour>
      <point x="472" y="581" type="move" name="above"/>
    </contour>
    <contour>
      <point x="35" y="341"/>
      <point x="178" y="496"/>
      <point x="366" y="496"/>
      <point x="431" y="420" type="qcurve" smooth="yes"/>
      <point x="459" y="387"/>
      <point x="475" y="350" type="qcurve"/>
      <point x="491" y="388"/>
      <point x="519" y="420" type="qcurve" smooth="yes"/>
      <point x="584" y="496"/>
      <point x="771" y="496"/>
      <point x="915" y="342"/>
      <point x="915" y="240" type="qcurve"/>
      <point x="509" y="240" type="line"/>
      <point x="509" y="165"/>
      <point x="608" y="47"/>
      <point x="748" y="47"/>
      <point x="815" y="85"/>
      <point x="844" y="134" type="qcurve"/>
      <point x="900" y="97" type="line"/>
      <point x="862" y="38"/>
      <point x="764" y="-16"/>
      <point x="586" y="-16"/>
      <point x="520" y="60" type="qcurve" smooth="yes"/>
      <point x="492" y="93"/>
      <point x="475" y="130" type="qcurve"/>
      <point x="460" y="92"/>
      <point x="433" y="60" type="qcurve" smooth="yes"/>
      <point x="370" y="-16"/>
      <point x="177" y="-16"/>
      <point x="35" y="139"/>
    </contour>
    <contour>
      <point x="104" y="165"/>
      <point x="203" y="47"/>
      <point x="341" y="47"/>
      <point x="440" y="165"/>
      <point x="440" y="315"/>
      <point x="341" y="432"/>
      <point x="203" y="432"/>
      <point x="104" y="315"/>
    </contour>
    <contour>
      <point x="836" y="303" type="line"/>
      <point x="822" y="345"/>
      <point x="792" y="377" type="qcurve" smooth="yes"/>
      <point x="740" y="432"/>
      <point x="608" y="432"/>
      <point x="558" y="374" type="qcurve" smooth="yes"/>
      <point x="530" y="341"/>
      <point x="519" y="303" type="qcurve"/>
    </contour>
  </outline>
</glyph>
<glyph name="Scedilla" format="1">
  <advance width="565"/>
  <unicode hex="015E"/>
  <outline>
    <contour>
      <point x="285" y="314" type="qcurve" smooth="yes"/>
      <point x="174" y="344"/>
      <point x="116" y="392" type="qcurve" smooth="yes"/>
      <point x="58" y="440"/>
      <point x="58" y="524" type="qcurve" smooth="yes"/>
      <point x="58" y="616"/>
      <point x="117" y="665" type="qcurve" smooth="yes"/>
      <point x="176" y="714"/>
      <point x="283" y="714" type="qcurve" smooth="yes"/>
      <point x="414" y="714"/>
      <point x="506" y="594" type="qcurve"/>
      <point x="449" y="546" type="line"/>
      <point x="376" y="644"/>
      <point x="283" y="644" type="qcurve" smooth="yes"/>
      <point x="205" y="644"/>
      <point x="170.5" y="615" type="qcurve" smooth="yes"/>
      <point x="136" y="586"/>
      <point x="136" y="524" type="qcurve" smooth="yes"/>
      <point x="136" y="500"/>
      <point x="143.5" y="481.5" type="qcurve" smooth="yes"/>
      <point x="151" y="463"/>
      <point x="160" y="452" type="qcurve" smooth="yes"/>
      <point x="169" y="441"/>
      <point x="189.5" y="430.5" type="qcurve" smooth="yes"/>
      <point x="210" y="420"/>
      <point x="222" y="415.5" type="qcurve" smooth="yes"/>
      <point x="234" y="411"/>
      <point x="262" y="402.5" type="qcurve" smooth="yes"/>
      <point x="290" y="394"/>
      <point x="301" y="390" type="qcurve" smooth="yes"/>
      <point x="404" y="355"/>
      <point x="435" y="337" type="qcurve" smooth="yes"/>
      <point x="526" y="285"/>
      <point x="526" y="174" type="qcurve" smooth="yes"/>
      <point x="526" y="82"/>
      <point x="457.5" y="33" type="qcurve" smooth="yes"/>
      <point x="398.936" y="-8.89236"/>
      <point x="302.729" y="-14.969" type="qcurve"/>
      <point x="276" y="-70" type="line"/>
      <point x="331" y="-70"/>
      <point x="358.5" y="-88" type="qcurve" smooth="yes"/>
      <point x="386" y="-106"/>
      <point x="386" y="-128" type="qcurve" smooth="yes"/>
      <point x="386" y="-205"/>
      <point x="176" y="-205" type="qcurve"/>
      <point x="176" y="-177" type="line"/>
      <point x="227" y="-177"/>
      <point x="273" y="-165.5" type="qcurve" smooth="yes"/>
      <point x="319" y="-154"/>
      <point x="319" y="-134" type="qcurve" smooth="yes"/>
      <point x="319" y="-124"/>
      <point x="312" y="-118" type="qcurve" smooth="yes"/>
      <point x="305" y="-112"/>
      <point x="280.5" y="-108.5" type="qcurve" smooth="yes"/>
      <point x="256" y="-105"/>
      <point x="209" y="-105" type="qcurve"/>
      <point x="250.86" y="-15.3" type="line"/>
      <point x="192.493" y="-10.7749"/>
      <point x="137.5" y="23" type="qcurve" smooth="yes"/>
      <point x="74" y="62"/>
      <point x="32" y="128" type="qcurve"/>
      <point x="92" y="171" type="line"/>
      <point x="123" y="119"/>
      <point x="170.5" y="86.5" type="qcurve" smooth="yes"/>
      <point x="218" y="54"/>
      <point x="269" y="54" type="qcurve" smooth="yes"/>
      <point x="361" y="54"/>
      <point x="405" y="83" type="qcurve" smooth="yes"/>
      <point x="449" y="112"/>
      <point x="449" y="174" type="qcurve" smooth="yes"/>
      <point x="449" y="234"/>
      <point x="412" y="262" type="qcurve" smooth="yes"/>
      <point x="375" y="290"/>
    </contour>
  </outline>
</glyph>
<glyph name="tbar" format="1">
  <advance width="282"/>
  <unicode hex="0167"/>
  <outline>
    <contour>
      <point x="29" y="280" type="line"/>
      <point x="29" y="325" type="line"/>
      <point x="90" y="325" type="line"/>
      <point x="90" y="416" type="line"/>
      <point x="29" y="416" type="line"/>
      <point x="29" y="479" type="line"/>
      <point x="90" y="479" type="line"/>
      <point x="90" y="638" type="line"/>
      <point x="160" y="638" type="line"/>
      <point x="160" y="479" type="line"/>
      <point x="270" y="479" type="line"/>
      <point x="270" y="416" type="line"/>
      <point x="160" y="416" type="line"/>
      <point x="160" y="325" type="line"/>
      <point x="253" y="325" type="line"/>
      <point x="253" y="280" type="line"/>
      <point x="160" y="280" type="line"/>
      <point x="160" y="0" type="line"/>
      <point x="90" y="0" type="line"/>
      <point x="90" y="280" type="line"/>
    </contour>
  </outline>
</glyph>
<glyph name="Uogonek" format="1">
  <advance width="650"/>
  <unicode hex="0172"/>
  <outline>
    <contour>
      <point x="326" y="743" type="move" name="above"/>
    </contour>
    <contour>
      <point x="348" y="-84" type="qcurve" smooth="yes"/>
      <point x="348" y="-154"/>
      <point x="454" y="-154" type="qcurve" smooth="yes"/>
      <point x="481" y="-154"/>
      <point x="509" y="-147" type="qcurve"/>
      <point x="516" y="-174" type="line"/>
      <point x="456" y="-190"/>
      <point x="410" y="-190" type="qcurve" smooth="yes"/>
      <point x="281" y="-190"/>
      <point x="281" y="-93" type="qcurve" smooth="yes"/>
      <point x="281" y="-44.953"/>
      <point x="312.798" y="-15.7491" type="qcurve"/>
      <point x="203.292" y="-11.5341"/>
      <point x="141" y="63.5" type="qcurve" smooth="yes"/>
      <point x="75" y="143"/>
      <point x="75" y="290" type="qcurve" smooth="yes"/>
      <point x="75" y="698" type="line"/>
      <point x="157" y="698" type="line"/>
      <point x="157" y="290" type="line" smooth="yes"/>
      <point x="157" y="185"/>
      <point x="198" y="119.5" type="qcurve" smooth="yes"/>
      <point x="239" y="54"/>
      <point x="326" y="54" type="qcurve" smooth="yes"/>
      <point x="413" y="54"/>
      <point x="454" y="119.5" type="qcurve" smooth="yes"/>
      <point x="495" y="185"/>
      <point x="495" y="290" type="qcurve" smooth="yes"/>
      <point x="495" y="698" type="line"/>
      <point x="575" y="698" type="line"/>
      <point x="575" y="290" type="line" smooth="yes"/>
      <point x="575" y="143"/>
      <point x="509.5" y="63.5" type="qcurve" smooth="yes"/>
      <point x="463.481" y="7.6449"/>
      <point x="391.547" y="-8.96753" type="qcurve"/>
      <point x="369.732" y="-18.5815"/>
      <point x="361" y="-30" type="qcurve" smooth="yes"/>
      <point x="348" y="-47"/>
    </contour>
  </outline>
</glyph>
<glyph name="uni0181" format="1">
  <advance width="714"/>
  <unicode hex="0181"/>
  <outline>
    <contour>
      <point x="284" y="634" type="line"/>
      <point x="284" y="411" type="line"/>
      <point x="410" y="411" type="line" smooth="yes"/>
      <point x="469" y="411"/>
      <point x="506.5" y="441.5" type="qcurve" smooth="yes"/>
      <point x="544" y="472"/>
      <point x="544" y="520.5" type="qcurve" smooth="yes"/>
      <point x="544" y="569"/>
      <point x="509" y="601.5" type="qcurve" smooth="yes"/>
      <point x="474" y="634"/>
      <point x="408" y="634" type="qcurve" smooth="yes"/>
    </contour>
    <contour>
      <point x="284" y="346" type="line"/>
      <point x="284" y="63" type="line"/>
      <point x="428" y="63" type="line" smooth="yes"/>
      <point x="500" y="63"/>
      <point x="545.5" y="100.5" type="qcurve" smooth="yes"/>
      <point x="591" y="138"/>
      <point x="591" y="204" type="qcurve" smooth="yes"/>
      <point x="591" y="270"/>
      <point x="547.5" y="308" type="qcurve" smooth="yes"/>
      <point x="504" y="346"/>
      <point x="433" y="346" type="qcurve" smooth="yes"/>
    </contour>
    <contour>
      <point x="628" y="525" type="qcurve" smooth="yes"/>
      <point x="628" y="435"/>
      <point x="546" y="385" type="qcurve"/>
      <point x="579" y="372"/>
      <point x="606" y="351" type="qcurve" smooth="yes"/>
      <point x="675" y="296"/>
      <point x="675" y="208" type="qcurve" smooth="yes"/>
      <point x="675" y="138"/>
      <point x="638" y="90" type="qcurve" smooth="yes"/>
      <point x="570" y="0"/>
      <point x="433" y="0" type="qcurve" smooth="yes"/>
      <point x="207" y="0" type="line"/>
      <point x="207" y="629" type="line"/>
      <point x="180" y="629" type="line" smooth="yes"/>
      <point x="143" y="629"/>
      <point x="117.5" y="605.5" type="qcurve" smooth="yes"/>
      <point x="92" y="582"/>
      <point x="92" y="547" type="qcurve" smooth="yes"/>
      <point x="92" y="436" type="line"/>
      <point x="28" y="436" type="line"/>
      <point x="28" y="547" type="line" smooth="yes"/>
      <point x="28" y="610"/>
      <point x="72" y="654" type="qcurve" smooth="yes"/>
      <point x="116" y="698"/>
      <point x="180" y="698" type="qcurve" smooth="yes"/>
      <point x="207" y="698" type="line"/>
      <point x="262" y="698" type="line"/>
      <point x="407" y="698" type="line" smooth="yes"/>
      <point x="510" y="698"/>
      <point x="569" y="647" type="qcurve" smooth="yes"/>
      <point x="628" y="596"/>
    </contour>
  </outline>
</glyph>
<glyph name="uni0188" format="1">
  <advance width="488"/>
  <unicode hex="0188"/>
  <outline>
    <contour>
      <point x="542" y="538" type="line"/>
      <point x="505" y="538"/>
      <point x="480" y="514" type="qcurve" smooth="yes"/>
      <point x="454" y="489"/>
      <point x="454" y="456" type="qcurve" smooth="yes"/>
      <point x="454" y="399" type="line"/>
      <point x="402" y="359" type="line"/>
      <point x="350" y="432"/>
      <point x="272" y="432" type="qcurve" smooth="yes"/>
      <point x="205" y="432"/>
      <point x="154.5" y="375.5" type="qcurve" smooth="yes"/>
      <point x="104" y="319"/>
      <point x="104" y="240" type="qcurve" smooth="yes"/>
      <point x="104" y="161"/>
      <point x="154.5" y="104" type="qcurve" smooth="yes"/>
      <point x="205" y="47"/>
      <point x="272" y="47" type="qcurve" smooth="yes"/>
      <point x="325" y="47"/>
      <point x="354.5" y="63" type="qcurve" smooth="yes"/>
      <point x="384" y="79"/>
      <point x="411" y="114" type="qcurve"/>
      <point x="465" y="76" type="line"/>
      <point x="428" y="30"/>
      <point x="384" y="7" type="qcurve" smooth="yes"/>
      <point x="340" y="-16"/>
      <point x="274" y="-16" type="qcurve" smooth="yes"/>
      <point x="183" y="-16"/>
      <point x="109" y="60.5" type="qcurve" smooth="yes"/>
      <point x="35" y="137"/>
      <point x="35" y="240" type="qcurve" smooth="yes"/>
      <point x="35" y="343"/>
      <point x="108" y="419.5" type="qcurve" smooth="yes"/>
      <point x="181" y="496"/>
      <point x="272" y="496" type="qcurve" smooth="yes"/>
      <point x="322" y="496"/>
      <point x="370.5" y="469.5" type="qcurve" smooth="yes"/>
      <point x="380.544" y="464.012"/>
      <point x="390.009" y="457.774" type="qcurve"/>
      <point x="390.621" y="519.621"/>
      <point x="434" y="563" type="qcurve" smooth="yes"/>
      <point x="478" y="607"/>
      <point x="542" y="607" type="qcurve"/>
    </contour>
  </outline>
</glyph>
<glyph name="uni0190" format="1">
  <advance width="528"/>
  <unicode hex="0190"/>
  <outline>
    <contour>
      <point x="272" y="743" type="move" name="above"/>
    </contour>
    <contour>
      <point x="151" y="374" type="qcurve"/>
      <point x="71" y="425"/>
      <point x="71" y="523" type="qcurve" smooth="yes"/>
      <point x="71" y="618"/>
      <point x="185" y="714"/>
      <point x="273" y="714" type="qcurve" smooth="yes"/>
      <point x="326" y="714"/>
      <point x="442" y="677"/>
      <point x="477" y="640" type="qcurve"/>
      <point x="426" y="592" type="line"/>
      <point x="402" y="620"/>
      <point x="315" y="645"/>
      <point x="273" y="645" type="qcurve" smooth="yes"/>
      <point x="217" y="645"/>
      <point x="147" y="572"/>
      <point x="147" y="523" type="qcurve" smooth="yes"/>
      <point x="147" y="471"/>
      <point x="225" y="403"/>
      <point x="311" y="403" type="qcurve"/>
      <point x="311" y="335" type="line"/>
      <point x="223" y="335"/>
      <point x="124" y="254"/>
      <point x="124" y="190" type="qcurve" smooth="yes"/>
      <point x="124" y="134"/>
      <point x="219" y="53"/>
      <point x="289" y="53" type="qcurve" smooth="yes"/>
      <point x="414" y="53"/>
      <point x="464" y="124" type="qcurve"/>
      <point x="518" y="81" type="line"/>
      <point x="480" y="33"/>
      <point x="376" y="-16"/>
      <point x="289" y="-16" type="qcurve" smooth="yes"/>
      <point x="181" y="-16"/>
      <point x="47" y="101"/>
      <point x="47" y="207" type="qcurve" smooth="yes"/>
      <point x="47" y="326"/>
    </contour>
  </outline>
</glyph>
<glyph name="uni0191" format="1">
  <advance width="490"/>
  <unicode hex="0191"/>
  <outline>
    <contour>
      <point x="81" y="698" type="line"/>
      <point x="472" y="698" type="line"/>
      <point x="472" y="634" type="line"/>
      <point x="158" y="634" type="line"/>
      <point x="158" y="411" type="line"/>
      <point x="403" y="411" type="line"/>
      <point x="403" y="348" type="line"/>
      <point x="158" y="348" type="line"/>
      <point x="158" y="-53" type="line" smooth="yes"/>
      <point x="158" y="-115"/>
      <point x="57" y="-205"/>
      <point x="-7" y="-205" type="qcurve" smooth="yes"/>
      <point x="-35" y="-205" type="line"/>
      <point x="-35" y="-135" type="line"/>
      <point x="-7" y="-135" type="line" smooth="yes"/>
      <point x="29" y="-135"/>
      <point x="81" y="-88"/>
      <point x="81" y="-53" type="qcurve" smooth="yes"/>
    </contour>
  </outline>
</glyph>
<glyph name="florin" format="1">
  <advance width="282"/>
  <unicode hex="0192"/>
  <outline>
    <contour>
      <point x="160" y="-53" type="line" smooth="yes"/>
      <point x="160" y="-115"/>
      <point x="66" y="-205"/>
      <point x="2" y="-205" type="qcurve" smooth="yes"/>
      <point x="-26" y="-205" type="line"/>
      <point x="-26" y="-135" type="line"/>
      <point x="2" y="-135" type="line" smooth="yes"/>
      <point x="38" y="-135"/>
      <point x="90" y="-88"/>
      <point x="90" y="-53" type="qcurve" smooth="yes"/>
      <point x="90" y="416" type="line"/>
      <point x="29" y="416" type="line"/>
      <point x="29" y="479" type="line"/>
      <point x="90" y="479" type="line"/>
      <point x="90" y="608" type="line" smooth="yes"/>
      <point x="90" y="671"/>
      <point x="179" y="760"/>
      <point x="242" y="760" type="qcurve" smooth="yes"/>
      <point x="270" y="760" type="line"/>
      <point x="270" y="696" type="line"/>
      <point x="242" y="696" type="line" smooth="yes"/>
      <point x="207" y="696"/>
      <point x="160" y="644"/>
      <point x="160" y="608" type="qcurve" smooth="yes"/>
      <point x="160" y="479" type="line"/>
      <point x="270" y="479" type="line"/>
      <point x="270" y="416" type="line"/>
      <point x="160" y="416" type="line"/>
    </contour>
  </outline>
</glyph>
<glyph name="uni0193" format="1">
  <advance width="621"/>
  <unicode hex="0193"/>
  <outline>
    <contour>
      <point x="645" y="709" type="line"/>
      <point x="608" y="709"/>
      <point x="583" y="685" type="qcurve" smooth="yes"/>
      <point x="557" y="660"/>
      <point x="557" y="627" type="qcurve" smooth="yes"/>
      <point x="557" y="570" type="line"/>
      <point x="496" y="527" type="line"/>
      <point x="461" y="585"/>
      <point x="425" y="614.5" type="qcurve" smooth="yes"/>
      <point x="389" y="644"/>
      <point x="332" y="644" type="qcurve" smooth="yes"/>
      <point x="238" y="644"/>
      <point x="180.5" y="556.5" type="qcurve" smooth="yes"/>
      <point x="123" y="469"/>
      <point x="123" y="348" type="qcurve" smooth="yes"/>
      <point x="123" y="226"/>
      <point x="173.5" y="140" type="qcurve" smooth="yes"/>
      <point x="224" y="54"/>
      <point x="312" y="54" type="qcurve" smooth="yes"/>
      <point x="358" y="54"/>
      <point x="388.5" y="62.5" type="qcurve" smooth="yes"/>
      <point x="419" y="71"/>
      <point x="447" y="95.5" type="qcurve" smooth="yes"/>
      <point x="475" y="120"/>
      <point x="488.5" y="170" type="qcurve" smooth="yes"/>
      <point x="502" y="220"/>
      <point x="502" y="298" type="qcurve"/>
      <point x="337" y="298" type="line"/>
      <point x="337" y="361" type="line"/>
      <point x="578" y="361" type="line"/>
      <point x="578" y="298" type="line" smooth="yes"/>
      <point x="578" y="133"/>
      <point x="509.5" y="58.5" type="qcurve" smooth="yes"/>
      <point x="441" y="-16"/>
      <point x="312" y="-16" type="qcurve" smooth="yes"/>
      <point x="196" y="-16"/>
      <point x="120.5" y="90.5" type="qcurve" smooth="yes"/>
      <point x="45" y="197"/>
      <point x="45" y="348" type="qcurve" smooth="yes"/>
      <point x="45" y="499"/>
      <point x="126" y="606.5" type="qcurve" smooth="yes"/>
      <point x="207" y="714"/>
      <point x="332" y="714" type="qcurve" smooth="yes"/>
      <point x="411" y="714"/>
      <point x="460.5" y="678.5" type="qcurve" smooth="yes"/>
      <point x="477.637" y="666.21"/>
      <point x="494.474" y="649.425" type="qcurve"/>
      <point x="501.053" y="698.053"/>
      <point x="537" y="734" type="qcurve" smooth="yes"/>
      <point x="581" y="778"/>
      <point x="645" y="778" type="qcurve"/>
    </contour>
  </outline>
</glyph>
<glyph name="uni0194" format="1">
  <advance width="540"/>
  <unicode hex="0194"/>
  <outline>
    <contour>
      <point x="270" y="-141" type="qcurve" smooth="yes"/>
      <point x="287" y="-141"/>
      <point x="287" y="-109" type="qcurve" smooth="yes"/>
      <point x="287" y="-95"/>
      <point x="270" y="-46" type="qcurve"/>
      <point x="254" y="-92"/>
      <point x="254" y="-109" type="qcurve" smooth="yes"/>
      <point x="254" y="-141"/>
    </contour>
    <contour>
      <point x="229" y="67" type="qcurve"/>
      <point x="0" y="698" type="line"/>
      <point x="81" y="698" type="line"/>
      <point x="270" y="178" type="line"/>
      <point x="460" y="698" type="line"/>
      <point x="541" y="698" type="line"/>
      <point x="311" y="67" type="line"/>
      <point x="358" y="-65"/>
      <point x="358" y="-98" type="qcurve" smooth="yes"/>
      <point x="358" y="-147"/>
      <point x="314" y="-205"/>
      <point x="226" y="-205"/>
      <point x="182" y="-147"/>
      <point x="182" y="-98" type="qcurve" smooth="yes"/>
      <point x="182" y="-65"/>
    </contour>
  </outline>
</glyph>
<glyph name="uni0197" format="1">
  <advance width="304"/>
  <unicode hex="0197"/>
  <outline>
    <contour>
      <point x="153" y="743" type="move" name="above"/>
    </contour>
    <contour>
      <point x="114" y="336" type="line"/>
      <point x="22" y="336" type="line"/>
      <point x="22" y="379" type="line"/>
      <point x="114" y="379" type="line"/>
      <point x="114" y="631" type="line"/>
      <point x="77" y="631" type="line"/>
      <point x="77" y="698" type="line"/>
      <point x="227" y="698" type="line"/>
      <point x="227" y="631" type="line"/>
      <point x="190" y="631" type="line"/>
      <point x="190" y="379" type="line"/>
      <point x="282" y="379" type="line"/>
      <point x="282" y="336" type="line"/>
      <point x="190" y="336" type="line"/>
      <point x="190" y="68" type="line"/>
      <point x="227" y="68" type="line"/>
      <point x="227" y="0" type="line"/>
      <point x="77" y="0" type="line"/>
      <point x="77" y="68" type="line"/>
      <point x="114" y="68" type="line"/>
    </contour>
  </outline>
</glyph>
<glyph name="uni0199" format="1">
  <advance width="445"/>
  <unicode hex="0199"/>
  <outline>
    <contour>
      <point x="133" y="0" type="line"/>
      <point x="63" y="0" type="line"/>
      <point x="65" y="608" type="line" smooth="yes"/>
      <point x="65" y="671"/>
      <point x="152" y="759"/>
      <point x="215" y="759" type="qcurve" smooth="yes"/>
      <point x="287" y="759" type="line"/>
      <point x="287" y="690" type="line"/>
      <point x="215" y="690" type="line" smooth="yes"/>
      <point x="180" y="690"/>
      <point x="134" y="643"/>
      <point x="134" y="608" type="qcurve" smooth="yes"/>
      <point x="133" y="290" type="line"/>
      <point x="323" y="479" type="line"/>
      <point x="423" y="479" type="line"/>
      <point x="239" y="295" type="line"/>
      <point x="437" y="0" type="line"/>
      <point x="352" y="0" type="line"/>
      <point x="188" y="245" type="line"/>
      <point x="133" y="190" type="line"/>
    </contour>
  </outline>
</glyph>
<glyph name="uni01AC" format="1">
  <advance width="579"/>
  <unicode hex="01AC"/>
  <outline>
    <contour>
      <point x="16" y="626"/>
      <point x="95" y="698"/>
      <point x="158" y="698" type="qcurve" smooth="yes"/>
      <point x="558" y="698" type="line"/>
      <point x="558" y="635" type="line"/>
      <point x="358" y="635" type="line"/>
      <point x="358" y="0" type="line"/>
      <point x="283" y="0" type="line"/>
      <point x="283" y="635" type="line"/>
      <point x="158" y="635" type="line" smooth="yes"/>
      <point x="125" y="635"/>
      <point x="84" y="602"/>
      <point x="84" y="581" type="qcurve" smooth="yes"/>
      <point x="84" y="561"/>
      <point x="125" y="530"/>
      <point x="158" y="530" type="qcurve"/>
      <point x="158" y="467" type="line"/>
      <point x="95" y="467"/>
      <point x="16" y="536"/>
    </contour>
  </outline>
</glyph>
<glyph name="uni01AE" format="1">
  <advance width="518"/>
  <unicode hex="01AE"/>
  <outline>
    <contour>
      <point x="221" y="635" type="line"/>
      <point x="22" y="635" type="line"/>
      <point x="22" y="698" type="line"/>
      <point x="497" y="698" type="line"/>
      <point x="497" y="635" type="line"/>
      <point x="297" y="635" type="line"/>
      <point x="297" y="-53" type="line" smooth="yes"/>
      <point x="297" y="-88"/>
      <point x="349" y="-135"/>
      <point x="385" y="-135" type="qcurve" smooth="yes"/>
      <point x="413" y="-135" type="line"/>
      <point x="413" y="-205" type="line"/>
      <point x="385" y="-205" type="line" smooth="yes"/>
      <point x="321" y="-205"/>
      <point x="221" y="-115"/>
      <point x="221" y="-53" type="qcurve" smooth="yes"/>
    </contour>
  </outline>
</glyph>
<glyph name="uni01B2" format="1">
  <advance width="656"/>
  <unicode hex="01B2"/>
  <outline>
    <contour>
      <point x="338" y="743" type="move" name="above"/>
    </contour>
    <contour>
      <point x="469" y="698" type="line"/>
      <point x="475" y="692"/>
      <point x="494" y="670"/>
      <point x="542" y="598"/>
      <point x="580" y="521"/>
      <point x="610" y="405"/>
      <point x="610" y="348" type="qcurve" smooth="yes"/>
      <point x="610" y="198"/>
      <point x="454" y="-16"/>
      <point x="338" y="-16" type="qcurve" smooth="yes"/>
      <point x="223" y="-16"/>
      <point x="74" y="197"/>
      <point x="74" y="348" type="qcurve" smooth="yes"/>
      <point x="74" y="698" type="line"/>
      <point x="155" y="698" type="line"/>
      <point x="155" y="348" type="line" smooth="yes"/>
      <point x="155" y="227"/>
      <point x="255" y="54"/>
      <point x="338" y="54" type="qcurve" smooth="yes"/>
      <point x="423" y="54"/>
      <point x="529" y="228"/>
      <point x="529" y="348" type="qcurve" smooth="yes"/>
      <point x="529" y="407"/>
      <point x="493" y="523"/>
      <point x="442" y="603"/>
      <point x="416" y="635" type="qcurve" smooth="yes"/>
      <point x="391" y="666"/>
      <point x="373" y="682" type="qcurve" smooth="yes"/>
      <point x="355" y="698" type="line"/>
    </contour>
  </outline>
</glyph>
<glyph name="uni01B3" format="1">
  <advance width="656"/>
  <unicode hex="01B3"/>
  <outline>
    <contour>
      <point x="562" y="579" type="qcurve" smooth="yes"/>
      <point x="562" y="604"/>
      <point x="527" y="635"/>
      <point x="501" y="635" type="qcurve" smooth="yes"/>
      <point x="450" y="635"/>
      <point x="429" y="599" type="qcurve" smooth="yes"/>
      <point x="283" y="355" type="line"/>
      <point x="283" y="0" type="line"/>
      <point x="207" y="0" type="line"/>
      <point x="207" y="358" type="line"/>
      <point x="3" y="698" type="line"/>
      <point x="92" y="698" type="line"/>
      <point x="246" y="442" type="line"/>
      <point x="361" y="635" type="line"/>
      <point x="410" y="714"/>
      <point x="505" y="714" type="qcurve" smooth="yes"/>
      <point x="560" y="714"/>
      <point x="632" y="655"/>
      <point x="640" y="611" type="qcurve" smooth="yes"/>
      <point x="642" y="599"/>
      <point x="642" y="592" type="qcurve" smooth="yes"/>
      <point x="642" y="533"/>
      <point x="593" y="488" type="qcurve"/>
      <point x="540" y="530" type="line"/>
      <point x="562" y="552"/>
    </contour>
  </outline>
</glyph>
<glyph name="uni01EB" format="1">
  <advance width="546"/>
  <unicode hex="01EB"/>
  <outline>
    <contour>
      <point x="285" y="-84" type="qcurve" smooth="yes"/>
      <point x="285" y="-154"/>
      <point x="390" y="-154" type="qcurve" smooth="yes"/>
      <point x="417" y="-154"/>
      <point x="445" y="-147" type="qcurve"/>
      <point x="453" y="-174" type="line"/>
      <point x="393" y="-190"/>
      <point x="346" y="-190" type="qcurve" smooth="yes"/>
      <point x="217" y="-190"/>
      <point x="217" y="-93" type="qcurve" smooth="yes"/>
      <point x="217" y="-44"/>
      <point x="252" y="-15" type="qcurve"/>
      <point x="167" y="-4"/>
      <point x="36" y="144"/>
      <point x="36" y="240" type="qcurve" smooth="yes"/>
      <point x="36" y="343"/>
      <point x="182" y="496"/>
      <point x="364" y="496"/>
      <point x="511" y="343"/>
      <point x="511" y="240" type="qcurve" smooth="yes"/>
      <point x="511" y="153"/>
      <point x="404" y="13"/>
      <point x="328" y="-9" type="qcurve"/>
      <point x="302" y="-20"/>
      <point x="285" y="-52"/>
    </contour>
    <contour>
      <point x="105" y="161"/>
      <point x="206" y="47"/>
      <point x="340" y="47"/>
      <point x="441" y="161"/>
      <point x="441" y="319"/>
      <point x="340" y="432"/>
      <point x="206" y="432"/>
      <point x="105" y="319"/>
    </contour>
  </outline>
</glyph>
<glyph name="uni021C" format="1">
  <advance width="476"/>
  <unicode hex="021C"/>
  <outline>
    <contour>
      <point x="123" y="307" type="qcurve"/>
      <point x="123" y="386" type="line"/>
      <point x="152" y="399"/>
      <point x="237" y="454"/>
      <point x="325" y="541"/>
      <point x="325" y="574" type="qcurve" smooth="yes"/>
      <point x="325" y="608"/>
      <point x="271" y="648"/>
      <point x="247" y="648" type="qcurve" smooth="yes"/>
      <point x="211" y="648"/>
      <point x="151" y="629"/>
      <point x="116" y="603"/>
      <point x="104" y="590" type="qcurve" smooth="yes"/>
      <point x="92" y="578"/>
      <point x="88" y="568" type="qcurve" smooth="yes"/>
      <point x="84" y="558" type="line"/>
      <point x="29" y="604" type="line"/>
      <point x="31" y="608"/>
      <point x="40" y="623"/>
      <point x="76" y="661"/>
      <point x="121" y="689"/>
      <point x="201" y="713"/>
      <point x="247" y="713" type="qcurve" smooth="yes"/>
      <point x="317" y="713"/>
      <point x="400" y="634"/>
      <point x="400" y="571" type="qcurve" smooth="yes"/>
      <point x="400" y="516"/>
      <point x="315" y="438" type="qcurve"/>
      <point x="374" y="412"/>
      <point x="440" y="324"/>
      <point x="440" y="274" type="qcurve" smooth="yes"/>
      <point x="440" y="211"/>
      <point x="362" y="101"/>
      <point x="251" y="33"/>
      <point x="129" y="-18"/>
      <point x="44" y="-39"/>
      <point x="29" y="-39" type="qcurve"/>
      <point x="29" y="38" type="line"/>
      <point x="39" y="39"/>
      <point x="104" y="53"/>
      <point x="207" y="90"/>
      <point x="298" y="142"/>
      <point x="365" y="228"/>
      <point x="365" y="278" type="qcurve" smooth="yes"/>
      <point x="365" y="308"/>
      <point x="303" y="375"/>
      <point x="265" y="396" type="qcurve"/>
      <point x="175" y="328"/>
    </contour>
  </outline>
</glyph>
<glyph name="uni021D" format="1">
  <advance width="422"/>
  <unicode hex="021D"/>
  <outline>
    <contour>
      <point x="97" y="92" type="line"/>
      <point x="97" y="177" type="line"/>
      <point x="104" y="179"/>
      <point x="129" y="187"/>
      <point x="192" y="216"/>
      <point x="240" y="249"/>
      <point x="280" y="305"/>
      <point x="280" y="335" type="qcurve" smooth="yes"/>
      <point x="280" y="370"/>
      <point x="234" y="431"/>
      <point x="214" y="431" type="qcurve" smooth="yes"/>
      <point x="178" y="431"/>
      <point x="120" y="412"/>
      <point x="89" y="386"/>
      <point x="69" y="360"/>
      <point x="66" y="350" type="qcurve" smooth="yes"/>
      <point x="63" y="341" type="line"/>
      <point x="8" y="387" type="line"/>
      <point x="10" y="391"/>
      <point x="17" y="406"/>
      <point x="49" y="444"/>
      <point x="90" y="472"/>
      <point x="168" y="496"/>
      <point x="214" y="496" type="qcurve" smooth="yes"/>
      <point x="281" y="496"/>
      <point x="355" y="399"/>
      <point x="355" y="332" type="qcurve" smooth="yes"/>
      <point x="355" y="270"/>
      <point x="305" y="215" type="qcurve"/>
      <point x="344" y="198"/>
      <point x="387" y="131"/>
      <point x="387" y="89" type="qcurve" smooth="yes"/>
      <point x="387" y="22"/>
      <point x="308" y="-90"/>
      <point x="196" y="-155"/>
      <point x="140" y="-178" type="qcurve" smooth="yes"/>
      <point x="84" y="-200"/>
      <point x="44" y="-208" type="qcurve" smooth="yes"/>
      <point x="4" y="-216" type="line"/>
      <point x="4" y="-125" type="line"/>
      <point x="10" y="-124"/>
      <point x="33" y="-121"/>
      <point x="96" y="-107"/>
      <point x="154" y="-88"/>
      <point x="225" y="-53"/>
      <point x="276" y="-10"/>
      <point x="311" y="54"/>
      <point x="311" y="92" type="qcurve" smooth="yes"/>
      <point x="311" y="121"/>
      <point x="270" y="158"/>
      <point x="245" y="164" type="qcurve"/>
      <point x="214" y="143"/>
      <point x="177" y="125" type="qcurve" smooth="yes"/>
      <point x="140" y="108"/>
      <point x="118" y="100" type="qcurve" smooth="yes"/>
    </contour>
  </outline>
</glyph>
<glyph name="uni0220" format="1">
  <advance width="635"/>
  <unicode hex="0220"/>
  <outline>
    <contour>
      <point x="501" y="-205" type="line"/>
      <point x="501" y="408" type="line" smooth="yes"/>
      <point x="501" y="512.996"/>
      <point x="419" y="644"/>
      <point x="332" y="644" type="qcurve" smooth="yes"/>
      <point x="219" y="644"/>
      <point x="163" y="547" type="qcurve"/>
      <point x="163" y="0" type="line"/>
      <point x="81" y="0" type="line"/>
      <point x="81" y="698" type="line"/>
      <point x="163" y="698" type="line"/>
      <point x="163" y="644" type="line"/>
      <point x="237" y="714"/>
      <point x="332" y="714" type="qcurve" smooth="yes"/>
      <point x="456" y="714"/>
      <point x="519" y="631" type="qcurve" smooth="yes"/>
      <point x="582" y="547.669"/>
      <point x="582" y="408" type="qcurve" smooth="yes"/>
      <point x="582" y="-205" type="line"/>
    </contour>
  </outline>
</glyph>
<glyph name="uni0222" format="1">
  <advance width="575"/>
  <unicode hex="0222"/>
  <outline>
    <contour>
      <point x="305" y="743" type="move" name="above"/>
    </contour>
    <contour>
      <point x="288" y="400" type="qcurve"/>
      <point x="367" y="424"/>
      <point x="390" y="439" type="qcurve" smooth="yes"/>
      <point x="436" y="468"/>
      <point x="436" y="524" type="qcurve" smooth="yes"/>
      <point x="436" y="538"/>
      <point x="430" y="556" type="qcurve"/>
      <point x="422" y="574"/>
      <point x="416" y="585" type="qcurve" smooth="yes"/>
      <point x="410" y="596" type="line"/>
      <point x="480" y="629" type="line"/>
      <point x="514" y="571"/>
      <point x="514" y="524" type="qcurve" smooth="yes"/>
      <point x="514" y="420"/>
      <point x="400" y="361" type="qcurve"/>
      <point x="465" y="334"/>
      <point x="535" y="251"/>
      <point x="535" y="174" type="qcurve" smooth="yes"/>
      <point x="535" y="86"/>
      <point x="388" y="-16"/>
      <point x="188" y="-16"/>
      <point x="41" y="86"/>
      <point x="41" y="174" type="qcurve" smooth="yes"/>
      <point x="41" y="252"/>
      <point x="110" y="334"/>
      <point x="175" y="361" type="qcurve"/>
      <point x="61" y="420"/>
      <point x="61" y="524" type="qcurve" smooth="yes"/>
      <point x="61" y="615"/>
      <point x="192" y="714"/>
      <point x="301" y="714" type="qcurve"/>
      <point x="301" y="644" type="line"/>
      <point x="139" y="644"/>
      <point x="139" y="524" type="qcurve" smooth="yes"/>
      <point x="139" y="495"/>
      <point x="157" y="456"/>
      <point x="209" y="426"/>
      <point x="232" y="417"/>
      <point x="273" y="405" type="qcurve" smooth="yes"/>
      <point x="283" y="402"/>
    </contour>
    <contour>
      <point x="288" y="318" type="qcurve"/>
      <point x="192" y="291"/>
      <point x="119" y="238"/>
      <point x="119" y="174" type="qcurve" smooth="yes"/>
      <point x="119" y="116"/>
      <point x="220" y="54"/>
      <point x="356" y="54"/>
      <point x="457" y="116"/>
      <point x="457" y="174" type="qcurve" smooth="yes"/>
      <point x="457" y="238"/>
      <point x="384" y="291"/>
    </contour>
  </outline>
</glyph>
<glyph name="uni023C" format="1">
  <advance width="488"/>
  <unicode hex="023C"/>
  <outline>
    <contour>
      <point x="354.155" y="556.775" type="line"/>
      <point x="401.283" y="534.8" type="line"/>
      <point x="370.765" y="469.355" type="line"/>
      <point x="419.096" y="442.88"/>
      <point x="454" y="399" type="qcurve"/>
      <point x="402" y="359" type="line"/>
      <point x="376.423" y="394.906"/>
      <point x="344.557" y="413.151" type="qcurve"/>
      <point x="186.702" y="74.6306" type="line"/>
      <point x="225.352" y="47"/>
      <point x="272" y="47" type="qcurve" smooth="yes"/>
      <point x="325" y="47"/>
      <point x="354.5" y="63" type="qcurve" smooth="yes"/>
      <point x="384" y="79"/>
      <point x="411" y="114" type="qcurve"/>
      <point x="465" y="76" type="line"/>
      <point x="428" y="30"/>
      <point x="384" y="7" type="qcurve" smooth="yes"/>
      <point x="340" y="-16"/>
      <point x="274" y="-16" type="qcurve" smooth="yes"/>
      <point x="213.365" y="-16"/>
      <point x="160.278" y="17.9641" type="qcurve"/>
      <point x="123.2" y="-61.5508" type="line"/>
      <point x="76.0723" y="-39.5752" type="line"/>
      <point x="118.387" y="51.1689" type="line"/>
      <point x="113.66" y="55.6828"/>
      <point x="109" y="60.5" type="qcurve" smooth="yes"/>
      <point x="35" y="137"/>
      <point x="35" y="240" type="qcurve" smooth="yes"/>
      <point x="35" y="343"/>
      <point x="108" y="419.5" type="qcurve" smooth="yes"/>
      <point x="181" y="496"/>
      <point x="272" y="496" type="qcurve" smooth="yes"/>
      <point x="297.496" y="496"/>
      <point x="322.602" y="489.109" type="qcurve"/>
    </contour>
    <contour>
      <point x="147.12" y="112.786" type="qcurve"/>
      <point x="295.18" y="430.303" type="line"/>
      <point x="283.892" y="432"/>
      <point x="272" y="432" type="qcurve" smooth="yes"/>
      <point x="205" y="432"/>
      <point x="154.5" y="375.5" type="qcurve" smooth="yes"/>
      <point x="104" y="319"/>
      <point x="104" y="240" type="qcurve" smooth="yes"/>
      <point x="104" y="167.001"/>
    </contour>
  </outline>
</glyph>
<glyph name="uni0241" format="1">
  <advance width="471"/>
  <unicode hex="0241"/>
  <outline>
    <contour>
      <point x="180" y="170" type="line" smooth="yes"/>
      <point x="180" y="217"/>
      <point x="207" y="289"/>
      <point x="247" y="330"/>
      <point x="295" y="374"/>
      <point x="335" y="411"/>
      <point x="362" y="475"/>
      <point x="362" y="516" type="qcurve" smooth="yes"/>
      <point x="362" y="574"/>
      <point x="288" y="650"/>
      <point x="224" y="650" type="qcurve" smooth="yes"/>
      <point x="178" y="650"/>
      <point x="109" y="599"/>
      <point x="94" y="552" type="qcurve"/>
      <point x="30" y="572" type="line"/>
      <point x="53" y="636"/>
      <point x="161" y="714"/>
      <point x="224" y="714" type="qcurve" smooth="yes"/>
      <point x="312" y="714"/>
      <point x="432" y="600"/>
      <point x="432" y="516" type="qcurve" smooth="yes"/>
      <point x="432" y="469"/>
      <point x="405" y="397"/>
      <point x="365" y="356"/>
      <point x="317" y="312"/>
      <point x="277" y="275"/>
      <point x="250" y="211"/>
      <point x="250" y="170" type="qcurve" smooth="yes"/>
      <point x="250" y="0" type="line"/>
      <point x="180" y="0" type="line"/>
    </contour>
  </outline>
</glyph>
<glyph name="uni0242" format="1">
  <advance width="458"/>
  <unicode hex="0242"/>
  <outline>
    <contour>
      <point x="172" y="66" type="line" smooth="yes"/>
      <point x="172" y="117"/>
      <point x="199" y="189"/>
      <point x="239" y="223"/>
      <point x="287" y="252"/>
      <point x="327" y="271"/>
      <point x="354" y="311"/>
      <point x="354" y="340" type="qcurve" smooth="yes"/>
      <point x="354" y="383"/>
      <point x="282" y="432"/>
      <point x="216" y="432" type="qcurve" smooth="yes"/>
      <point x="170" y="432"/>
      <point x="101" y="381"/>
      <point x="86" y="334" type="qcurve"/>
      <point x="22" y="354" type="line"/>
      <point x="45" y="418"/>
      <point x="153" y="496"/>
      <point x="216" y="496" type="qcurve" smooth="yes"/>
      <point x="310" y="496"/>
      <point x="424" y="419"/>
      <point x="424" y="340" type="qcurve" smooth="yes"/>
      <point x="424" y="295"/>
      <point x="397" y="237"/>
      <point x="357" y="214"/>
      <point x="309" y="190"/>
      <point x="269" y="167"/>
      <point x="242" y="110"/>
      <point x="242" y="66" type="qcurve" smooth="yes"/>
      <point x="242" y="0" type="line"/>
      <point x="172" y="0" type="line"/>
    </contour>
  </outline>
</glyph>
<glyph name="uni0243" format="1">
  <advance width="588"/>
  <unicode hex="0243"/>
  <outline>
    <contour>
      <point x="158" y="634" type="line"/>
      <point x="158" y="411" type="line"/>
      <point x="288" y="411" type="line" smooth="yes"/>
      <point x="350" y="411"/>
      <point x="418" y="478"/>
      <point x="418" y="523" type="qcurve" smooth="yes"/>
      <point x="418" y="567"/>
      <point x="350" y="634"/>
      <point x="288" y="634" type="qcurve" smooth="yes"/>
    </contour>
    <contour>
      <point x="158" y="188" type="line"/>
      <point x="158" y="63" type="line"/>
      <point x="304" y="63" type="line" smooth="yes"/>
      <point x="373" y="63"/>
      <point x="465" y="137"/>
      <point x="465" y="273"/>
      <point x="374" y="346"/>
      <point x="304" y="346" type="qcurve" smooth="yes"/>
      <point x="158" y="346" type="line"/>
      <point x="158" y="238" type="line"/>
      <point x="323" y="238" type="line"/>
      <point x="323" y="188" type="line"/>
    </contour>
    <contour>
      <point x="81" y="188" type="line"/>
      <point x="44" y="188" type="line"/>
      <point x="44" y="238" type="line"/>
      <point x="81" y="238" type="line"/>
      <point x="81" y="698" type="line"/>
      <point x="288" y="698" type="line" smooth="yes"/>
      <point x="378" y="698"/>
      <point x="502" y="600"/>
      <point x="502" y="523" type="qcurve" smooth="yes"/>
      <point x="502" y="437"/>
      <point x="425" y="386" type="qcurve"/>
      <point x="481" y="362"/>
      <point x="549" y="271"/>
      <point x="549" y="205" type="qcurve" smooth="yes"/>
      <point x="549" y="106"/>
      <point x="404" y="0"/>
      <point x="306" y="0" type="qcurve" smooth="yes"/>
      <point x="81" y="0" type="line"/>
    </contour>
  </outline>
</glyph>
<glyph name="uni0244" format="1">
  <advance width="651"/>
  <unicode hex="0244"/>
  <outline>
    <contour>
      <point x="326" y="743" type="move" name="above"/>
    </contour>
    <contour>
      <point x="38" y="430" type="line"/>
      <point x="38" y="479" type="line"/>
      <point x="75" y="479" type="line"/>
      <point x="75" y="698" type="line"/>
      <point x="157" y="698" type="line"/>
      <point x="157" y="479" type="line"/>
      <point x="495" y="479" type="line"/>
      <point x="495" y="698" type="line"/>
      <point x="575" y="698" type="line"/>
      <point x="575" y="479" type="line"/>
      <point x="624" y="479" type="line"/>
      <point x="624" y="430" type="line"/>
      <point x="575" y="430" type="line"/>
      <point x="575" y="290" type="line" smooth="yes"/>
      <point x="575" y="143"/>
      <point x="444" y="-16"/>
      <point x="326" y="-16" type="qcurve" smooth="yes"/>
      <point x="207" y="-16"/>
      <point x="75" y="143"/>
      <point x="75" y="290" type="qcurve" smooth="yes"/>
      <point x="75" y="430" type="line"/>
    </contour>
    <contour>
      <point x="495" y="430" type="line"/>
      <point x="157" y="430" type="line"/>
      <point x="157" y="290" type="line" smooth="yes"/>
      <point x="157" y="185"/>
      <point x="239" y="54"/>
      <point x="413" y="54"/>
      <point x="495" y="185"/>
      <point x="495" y="290" type="qcurve" smooth="yes"/>
    </contour>
  </outline>
</glyph>
<glyph name="uni0248" format="1">
  <advance width="508"/>
  <unicode hex="0248"/>
  <outline>
    <contour>
      <point x="252" y="336" type="line"/>
      <point x="252" y="379" type="line"/>
      <point x="349" y="379" type="line"/>
      <point x="349" y="698" type="line"/>
      <point x="426" y="698" type="line"/>
      <point x="426" y="379" type="line"/>
      <point x="512" y="379" type="line"/>
      <point x="512" y="336" type="line"/>
      <point x="426" y="336" type="line"/>
      <point x="426" y="210" type="line" smooth="yes"/>
      <point x="426" y="107"/>
      <point x="302" y="-16"/>
      <point x="210" y="-16" type="qcurve" smooth="yes"/>
      <point x="147" y="-16"/>
      <point x="39" y="65"/>
      <point x="12" y="130" type="qcurve"/>
      <point x="77" y="161" type="line"/>
      <point x="92" y="112"/>
      <point x="161" y="55"/>
      <point x="208" y="55" type="qcurve" smooth="yes"/>
      <point x="276" y="55"/>
      <point x="349" y="132"/>
      <point x="349" y="210" type="qcurve" smooth="yes"/>
      <point x="349" y="336" type="line"/>
    </contour>
  </outline>
</glyph>
<glyph name="uni024A" format="1">
  <advance width="723"/>
  <unicode hex="024A"/>
  <outline>
    <contour>
      <point x="567" y="698" type="line"/>
      <point x="644" y="698" type="line"/>
      <point x="643" y="-53" type="line" smooth="yes"/>
      <point x="643" y="-88"/>
      <point x="694" y="-135"/>
      <point x="730" y="-135" type="qcurve" smooth="yes"/>
      <point x="758" y="-135" type="line"/>
      <point x="758" y="-205" type="line"/>
      <point x="730" y="-205" type="line" smooth="yes"/>
      <point x="667" y="-205"/>
      <point x="567" y="-114"/>
      <point x="567" y="-53" type="qcurve" smooth="yes"/>
      <point x="567" y="149.252" type="line"/>
      <point x="539.046" y="84.0079"/>
      <point x="427" y="-16"/>
      <point x="261" y="-16"/>
      <point x="120" y="92"/>
      <point x="43" y="259"/>
      <point x="43" y="437"/>
      <point x="120" y="605"/>
      <point x="261" y="714"/>
      <point x="343" y="714" type="qcurve" smooth="yes"/>
      <point x="461" y="714"/>
      <point x="532.5" y="612.5" type="qcurve" smooth="yes"/>
      <point x="552.566" y="584.015"/>
      <point x="567" y="550.687" type="qcurve"/>
    </contour>
    <contour>
      <point x="343" y="644" type="qcurve" smooth="yes"/>
      <point x="279" y="644"/>
      <point x="177" y="553"/>
      <point x="124" y="419"/>
      <point x="124" y="278"/>
      <point x="177" y="144"/>
      <point x="279" y="54"/>
      <point x="405" y="54"/>
      <point x="511" y="148"/>
      <point x="567" y="283"/>
      <point x="567" y="348" type="qcurve" smooth="yes"/>
      <point x="567" y="465"/>
      <point x="433" y="644"/>
    </contour>
  </outline>
</glyph>
<glyph name="uni024C" format="1">
  <advance width="676"/>
  <unicode hex="024C"/>
  <outline>
    <contour>
      <point x="240" y="634" type="line"/>
      <point x="240" y="352" type="line"/>
      <point x="386" y="352" type="line" smooth="yes"/>
      <point x="456" y="352"/>
      <point x="547" y="425"/>
      <point x="547" y="561"/>
      <point x="456" y="634"/>
      <point x="386" y="634" type="qcurve" smooth="yes"/>
    </contour>
    <contour>
      <point x="163" y="352" type="line"/>
      <point x="163" y="698" type="line"/>
      <point x="386" y="698" type="line" smooth="yes"/>
      <point x="484" y="698"/>
      <point x="631" y="592"/>
      <point x="631" y="493" type="qcurve" smooth="yes"/>
      <point x="631" y="415"/>
      <point x="540" y="317"/>
      <point x="468" y="298" type="qcurve"/>
      <point x="640" y="0" type="line"/>
      <point x="555" y="0" type="line"/>
      <point x="389" y="288" type="line"/>
      <point x="388" y="288" type="line"/>
      <point x="240" y="288" type="line"/>
      <point x="240" y="0" type="line"/>
      <point x="163" y="0" type="line"/>
      <point x="163" y="288" type="line"/>
      <point x="9" y="288" type="line"/>
      <point x="9" y="352" type="line"/>
    </contour>
  </outline>
</glyph>
<glyph name="uni0251" format="1">
  <advance width="567"/>
  <unicode hex="0251"/>
  <outline>
    <contour>
      <point x="264" y="581" type="move" name="above"/>
    </contour>
    <contour>
      <point x="36" y="345"/>
      <point x="164" y="496"/>
      <point x="253" y="496" type="qcurve" smooth="yes"/>
      <point x="470" y="496"/>
      <point x="470" y="339" type="qcurve" smooth="yes"/>
      <point x="470" y="151" type="line" smooth="yes"/>
      <point x="470" y="116"/>
      <point x="516" y="69"/>
      <point x="551" y="69" type="qcurve"/>
      <point x="551" y="0" type="line"/>
      <point x="510" y="0"/>
      <point x="442" y="39"/>
      <point x="422" y="73" type="qcurve"/>
      <point x="368" y="-16"/>
      <point x="255" y="-16" type="qcurve" smooth="yes"/>
      <point x="166" y="-16"/>
      <point x="36" y="135"/>
    </contour>
    <contour>
      <point x="105" y="240" type="qcurve" smooth="yes"/>
      <point x="105" y="162"/>
      <point x="195" y="47"/>
      <point x="253" y="47" type="qcurve" smooth="yes"/>
      <point x="283" y="47"/>
      <point x="330" y="69"/>
      <point x="361" y="102"/>
      <point x="383" y="156"/>
      <point x="393" y="202"/>
      <point x="399" y="269"/>
      <point x="400" y="309"/>
      <point x="400" y="339" type="qcurve" smooth="yes"/>
      <point x="400" y="432"/>
      <point x="253" y="432" type="qcurve" smooth="yes"/>
      <point x="194" y="432"/>
      <point x="105" y="319"/>
    </contour>
  </outline>
</glyph>
<glyph name="uni0254" format="1">
  <advance width="487"/>
  <unicode hex="0254"/>
  <outline>
    <contour>
      <point x="215" y="581" type="move" name="above"/>
    </contour>
    <contour>
      <point x="23" y="403" type="line"/>
      <point x="60" y="449"/>
      <point x="147" y="496"/>
      <point x="213" y="496" type="qcurve" smooth="yes"/>
      <point x="304" y="496"/>
      <point x="453" y="343"/>
      <point x="453" y="137"/>
      <point x="306" y="-16"/>
      <point x="215" y="-16" type="qcurve" smooth="yes"/>
      <point x="165" y="-16"/>
      <point x="69" y="36"/>
      <point x="34" y="80" type="qcurve"/>
      <point x="85" y="120" type="line"/>
      <point x="137" y="47"/>
      <point x="215" y="47" type="qcurve" smooth="yes"/>
      <point x="282" y="47"/>
      <point x="383" y="161"/>
      <point x="383" y="319"/>
      <point x="282" y="432"/>
      <point x="215" y="432" type="qcurve" smooth="yes"/>
      <point x="161" y="432"/>
      <point x="104" y="401"/>
      <point x="77" y="366" type="qcurve"/>
    </contour>
  </outline>
</glyph>
<glyph name="uni0256" format="1">
  <advance width="574"/>
  <unicode hex="0256"/>
  <outline>
    <contour>
      <point x="510" y="-54" type="line" smooth="yes"/>
      <point x="510" y="-89"/>
      <point x="556" y="-136"/>
      <point x="591" y="-136" type="qcurve" smooth="yes"/>
      <point x="664" y="-136" type="line"/>
      <point x="664" y="-205" type="line"/>
      <point x="591" y="-205" type="line" smooth="yes"/>
      <point x="528" y="-205"/>
      <point x="440" y="-117"/>
      <point x="440" y="-54" type="qcurve" smooth="yes"/>
      <point x="440" y="62" type="line"/>
      <point x="368" y="-16"/>
      <point x="274" y="-16" type="qcurve" smooth="yes"/>
      <point x="183" y="-16"/>
      <point x="35" y="137"/>
      <point x="35" y="343"/>
      <point x="181" y="496"/>
      <point x="272" y="496" type="qcurve" smooth="yes"/>
      <point x="367" y="496"/>
      <point x="440" y="416" type="qcurve"/>
      <point x="440" y="743" type="line"/>
      <point x="510" y="743" type="line"/>
    </contour>
    <contour>
      <point x="104" y="161"/>
      <point x="205" y="47"/>
      <point x="339" y="47"/>
      <point x="440" y="161"/>
      <point x="440" y="319"/>
      <point x="339" y="432"/>
      <point x="205" y="432"/>
      <point x="104" y="319"/>
    </contour>
  </outline>
</glyph>
<glyph name="uni025B" format="1">
  <advance width="434"/>
  <unicode hex="025B"/>
  <outline>
    <contour>
      <point x="231" y="581" type="move" name="above"/>
    </contour>
    <component base="epsilon"/>
  </outline>
</glyph>
<glyph name="uni0260" format="1">
  <advance width="575"/>
  <unicode hex="0260"/>
  <outline>
    <contour>
      <point x="510" y="18" type="line" smooth="yes"/>
      <point x="510" y="-94"/>
      <point x="395" y="-205"/>
      <point x="299" y="-205" type="qcurve" smooth="yes"/>
      <point x="141" y="-205" type="line"/>
      <point x="141" y="-141" type="line"/>
      <point x="299" y="-141" type="line" smooth="yes"/>
      <point x="366" y="-141"/>
      <point x="440" y="-60"/>
      <point x="440" y="18" type="qcurve" smooth="yes"/>
      <point x="440" y="62" type="line"/>
      <point x="368" y="-16"/>
      <point x="274" y="-16" type="qcurve" smooth="yes"/>
      <point x="183" y="-16"/>
      <point x="35" y="137"/>
      <point x="35" y="343"/>
      <point x="181" y="496"/>
      <point x="272" y="496" type="qcurve" smooth="yes"/>
      <point x="367" y="496"/>
      <point x="440" y="416" type="qcurve"/>
      <point x="440" y="430" type="line" smooth="yes"/>
      <point x="440" y="493"/>
      <point x="528" y="581"/>
      <point x="591" y="581" type="qcurve" smooth="yes"/>
      <point x="663" y="581" type="line"/>
      <point x="663" y="512" type="line"/>
      <point x="591" y="512" type="line" smooth="yes"/>
      <point x="556" y="512"/>
      <point x="510" y="465"/>
      <point x="510" y="430" type="qcurve" smooth="yes"/>
    </contour>
    <contour>
      <point x="104" y="161"/>
      <point x="205" y="47"/>
      <point x="339" y="47"/>
      <point x="440" y="161"/>
      <point x="440" y="319"/>
      <point x="339" y="432"/>
      <point x="205" y="432"/>
      <point x="104" y="319"/>
    </contour>
  </outline>
</glyph>
<glyph name="uni0263" format="1">
  <advance width="407"/>
  <unicode hex="0263"/>
  <outline>
    <contour>
      <point x="78" y="479" type="line"/>
      <point x="204" y="175" type="line"/>
      <point x="330" y="479" type="line"/>
      <point x="407" y="479" type="line"/>
      <point x="243" y="80" type="line"/>
      <point x="248" y="69" type="line"/>
      <point x="266" y="26"/>
      <point x="292" y="-73"/>
      <point x="292" y="-98" type="qcurve" smooth="yes"/>
      <point x="292" y="-147"/>
      <point x="248" y="-205"/>
      <point x="160" y="-205"/>
      <point x="116" y="-147"/>
      <point x="116" y="-98" type="qcurve" smooth="yes"/>
      <point x="116" y="-73"/>
      <point x="142" y="27"/>
      <point x="160" y="69" type="qcurve" smooth="yes"/>
      <point x="165" y="80" type="line"/>
      <point x="1" y="479" type="line"/>
    </contour>
    <contour>
      <point x="204" y="-22" type="qcurve"/>
      <point x="183" y="-87"/>
      <point x="183" y="-109" type="qcurve" smooth="yes"/>
      <point x="183" y="-141"/>
      <point x="204" y="-141" type="qcurve" smooth="yes"/>
      <point x="224" y="-141"/>
      <point x="224" y="-109" type="qcurve" smooth="yes"/>
      <point x="224" y="-84"/>
    </contour>
  </outline>
</glyph>
<glyph name="uni0266" format="1">
  <advance width="547"/>
  <unicode hex="0266"/>
  <outline>
    <contour>
      <point x="134" y="435" type="line"/>
      <point x="193" y="496"/>
      <point x="276" y="496" type="qcurve" smooth="yes"/>
      <point x="368" y="496"/>
      <point x="488" y="393"/>
      <point x="488" y="303" type="qcurve" smooth="yes"/>
      <point x="488" y="0" type="line"/>
      <point x="419" y="0" type="line"/>
      <point x="419" y="303" type="line" smooth="yes"/>
      <point x="419" y="357"/>
      <point x="340" y="432"/>
      <point x="212" y="432"/>
      <point x="134" y="322"/>
      <point x="134" y="240" type="qcurve" smooth="yes"/>
      <point x="134" y="0" type="line"/>
      <point x="65" y="0" type="line"/>
      <point x="65" y="593" type="line" smooth="yes"/>
      <point x="65" y="656"/>
      <point x="152" y="743"/>
      <point x="215" y="743" type="qcurve" smooth="yes"/>
      <point x="287" y="743" type="line"/>
      <point x="287" y="675" type="line"/>
      <point x="215" y="675" type="line" smooth="yes"/>
      <point x="180" y="675"/>
      <point x="134" y="628"/>
      <point x="134" y="593" type="qcurve" smooth="yes"/>
    </contour>
  </outline>
</glyph>
<glyph name="uni0269" format="1">
  <advance width="235"/>
  <unicode hex="0269"/>
  <outline>
    <contour>
      <point x="96" y="581" type="move" name="above"/>
    </contour>
    <contour>
      <point x="222" y="0" type="line"/>
      <point x="154" y="0"/>
      <point x="60" y="78"/>
      <point x="60" y="152" type="qcurve" smooth="yes"/>
      <point x="60" y="479" type="line"/>
      <point x="130" y="479" type="line"/>
      <point x="130" y="152" type="line" smooth="yes"/>
      <point x="130" y="70"/>
      <point x="222" y="70" type="qcurve"/>
    </contour>
  </outline>
</glyph>
<glyph name="uni026A" format="1">
  <advance width="232"/>
  <unicode hex="026A"/>
  <outline>
    <contour>
      <point x="117" y="581" type="move" name="above"/>
    </contour>
    <contour>
      <point x="190" y="0" type="line"/>
      <point x="42" y="0" type="line"/>
      <point x="42" y="49" type="line"/>
      <point x="78" y="49" type="line"/>
      <point x="78" y="430" type="line"/>
      <point x="42" y="430" type="line"/>
      <point x="42" y="479" type="line"/>
      <point x="190" y="479" type="line"/>
      <point x="190" y="430" type="line"/>
      <point x="155" y="430" type="line"/>
      <point x="155" y="49" type="line"/>
      <point x="190" y="49" type="line"/>
    </contour>
  </outline>
</glyph>
<glyph name="uni0272" format="1">
  <advance width="547"/>
  <unicode hex="0272"/>
  <outline>
    <contour>
      <point x="-44" y="-174" type="line"/>
      <point x="-44" y="-110" type="line"/>
      <point x="-17" y="-110" type="line" smooth="yes"/>
      <point x="18" y="-110"/>
      <point x="65" y="-58"/>
      <point x="65" y="-22" type="qcurve" smooth="yes"/>
      <point x="65" y="479" type="line"/>
      <point x="134" y="479" type="line"/>
      <point x="134" y="435" type="line"/>
      <point x="193" y="496"/>
      <point x="276" y="496" type="qcurve" smooth="yes"/>
      <point x="368" y="496"/>
      <point x="488" y="393"/>
      <point x="488" y="303" type="qcurve" smooth="yes"/>
      <point x="488" y="0" type="line"/>
      <point x="419" y="0" type="line"/>
      <point x="419" y="303" type="line" smooth="yes"/>
      <point x="419" y="357"/>
      <point x="340" y="432"/>
      <point x="212" y="432"/>
      <point x="134" y="322"/>
      <point x="134" y="240" type="qcurve" smooth="yes"/>
      <point x="134" y="-22" type="line" smooth="yes"/>
      <point x="134" y="-85"/>
      <point x="46" y="-174"/>
      <point x="-17" y="-174" type="qcurve" smooth="yes"/>
    </contour>
  </outline>
</glyph>
<glyph name="uni0275" format="1">
  <advance width="544"/>
  <unicode hex="0275"/>
  <outline>
    <contour>
      <point x="272" y="581" type="move" name="above"/>
    </contour>
    <component base="uni04E9"/>
  </outline>
</glyph>
<glyph name="uni027D" format="1">
  <advance width="471"/>
  <unicode hex="027D"/>
  <outline>
    <contour>
      <point x="139" y="-54" type="line" smooth="yes"/>
      <point x="139" y="-89"/>
      <point x="185" y="-136"/>
      <point x="220" y="-136" type="qcurve" smooth="yes"/>
      <point x="293" y="-136" type="line"/>
      <point x="293" y="-205" type="line"/>
      <point x="220" y="-205" type="line" smooth="yes"/>
      <point x="157" y="-205"/>
      <point x="70" y="-117"/>
      <point x="70" y="-54" type="qcurve" smooth="yes"/>
      <point x="70" y="479" type="line"/>
      <point x="139" y="479" type="line"/>
      <point x="139" y="441" type="line"/>
      <point x="194" y="496"/>
      <point x="271" y="496" type="qcurve" smooth="yes"/>
      <point x="405" y="496"/>
      <point x="453" y="383" type="qcurve"/>
      <point x="389" y="352" type="line"/>
      <point x="357" y="432"/>
      <point x="271" y="432" type="qcurve" smooth="yes"/>
      <point x="208" y="432"/>
      <point x="139" y="324"/>
      <point x="139" y="240" type="qcurve" smooth="yes"/>
    </contour>
  </outline>
</glyph>
<glyph name="uni0283" format="1">
  <advance width="198"/>
  <unicode hex="0283"/>
  <outline>
    <contour>
      <point x="134" y="-53" type="line" smooth="yes"/>
      <point x="134" y="-115"/>
      <point x="40" y="-205"/>
      <point x="-24" y="-205" type="qcurve" smooth="yes"/>
      <point x="-51" y="-205" type="line"/>
      <point x="-51" y="-135" type="line"/>
      <point x="-24" y="-135" type="line" smooth="yes"/>
      <point x="12" y="-135"/>
      <point x="65" y="-88"/>
      <point x="65" y="-53" type="qcurve" smooth="yes"/>
      <point x="65" y="608" type="line" smooth="yes"/>
      <point x="65" y="671"/>
      <point x="153" y="760"/>
      <point x="216" y="760" type="qcurve" smooth="yes"/>
      <point x="245" y="760" type="line"/>
      <point x="245" y="696" type="line"/>
      <point x="216" y="696" type="line" smooth="yes"/>
      <point x="181" y="696"/>
      <point x="134" y="644"/>
      <point x="134" y="608" type="qcurve" smooth="yes"/>
    </contour>
  </outline>
</glyph>
<glyph name="uni0288" format="1">
  <advance width="275"/>
  <unicode hex="0288"/>
  <outline>
    <contour>
      <point x="157" y="416" type="line"/>
      <point x="157" y="-54" type="line" smooth="yes"/>
      <point x="157" y="-89"/>
      <point x="203" y="-136"/>
      <point x="238" y="-136" type="qcurve" smooth="yes"/>
      <point x="310" y="-136" type="line"/>
      <point x="310" y="-205" type="line"/>
      <point x="238" y="-205" type="line" smooth="yes"/>
      <point x="175" y="-205"/>
      <point x="87" y="-117"/>
      <point x="87" y="-54" type="qcurve" smooth="yes"/>
      <point x="87" y="416" type="line"/>
      <point x="26" y="416" type="line"/>
      <point x="26" y="479" type="line"/>
      <point x="87" y="479" type="line"/>
      <point x="87" y="638" type="line"/>
      <point x="157" y="638" type="line"/>
      <point x="157" y="479" type="line"/>
      <point x="267" y="479" type="line"/>
      <point x="267" y="416" type="line"/>
    </contour>
  </outline>
</glyph>
<glyph name="uni028A" format="1">
  <advance width="569"/>
  <unicode hex="028A"/>
  <outline>
    <contour>
      <point x="285" y="581" type="move" name="above"/>
    </contour>
    <contour>
      <point x="528" y="479" type="line"/>
      <point x="528" y="423" type="line"/>
      <point x="451" y="423" type="line"/>
      <point x="455" y="415"/>
      <point x="488" y="362"/>
      <point x="505" y="328"/>
      <point x="522" y="259"/>
      <point x="522" y="219" type="qcurve" smooth="yes"/>
      <point x="522" y="115"/>
      <point x="386" y="-16"/>
      <point x="188" y="-16"/>
      <point x="47" y="116"/>
      <point x="47" y="219" type="qcurve" smooth="yes"/>
      <point x="47" y="259"/>
      <point x="64" y="328"/>
      <point x="81" y="362"/>
      <point x="114" y="415"/>
      <point x="118" y="423" type="qcurve"/>
      <point x="41" y="423" type="line"/>
      <point x="41" y="479" type="line"/>
      <point x="203" y="479" type="line"/>
      <point x="203" y="449"/>
      <point x="176" y="387"/>
      <point x="144" y="342"/>
      <point x="117" y="264"/>
      <point x="117" y="219" type="qcurve" smooth="yes"/>
      <point x="117" y="142"/>
      <point x="216" y="47"/>
      <point x="354" y="47"/>
      <point x="453" y="142"/>
      <point x="453" y="219" type="qcurve" smooth="yes"/>
      <point x="453" y="264"/>
      <point x="426" y="342"/>
      <point x="394" y="387"/>
      <point x="367" y="449"/>
      <point x="367" y="479" type="qcurve"/>
    </contour>
  </outline>
</glyph>
<glyph name="uni028B" format="1">
  <advance width="530"/>
  <unicode hex="028B"/>
  <outline>
    <contour>
      <point x="234" y="582" type="move" name="above"/>
    </contour>
    <contour>
      <point x="380" y="479" type="line"/>
      <point x="385" y="475"/>
      <point x="400" y="459"/>
      <point x="439" y="405"/>
      <point x="469" y="348"/>
      <point x="493" y="262"/>
      <point x="493" y="219" type="qcurve" smooth="yes"/>
      <point x="493" y="113"/>
      <point x="375" y="-16"/>
      <point x="181" y="-16"/>
      <point x="58" y="114"/>
      <point x="58" y="219" type="qcurve" smooth="yes"/>
      <point x="58" y="479" type="line"/>
      <point x="128" y="479" type="line"/>
      <point x="128" y="219" type="line" smooth="yes"/>
      <point x="128" y="140"/>
      <point x="209" y="47"/>
      <point x="275" y="47" type="qcurve" smooth="yes"/>
      <point x="342" y="47"/>
      <point x="423" y="140"/>
      <point x="423" y="219" type="qcurve" smooth="yes"/>
      <point x="423" y="278"/>
      <point x="358" y="408"/>
      <point x="326" y="444" type="qcurve" smooth="yes"/>
      <point x="294" y="479" type="line"/>
    </contour>
  </outline>
</glyph>
<glyph name="uni028C" format="1">
  <advance width="470"/>
  <unicode hex="028C"/>
  <outline>
    <contour>
      <point x="237" y="581" type="move" name="above"/>
    </contour>
    <contour>
      <point x="273" y="479" type="line"/>
      <point x="467" y="0" type="line"/>
      <point x="391" y="0" type="line"/>
      <point x="234" y="389" type="line"/>
      <point x="78" y="0" type="line"/>
      <point x="2" y="0" type="line"/>
      <point x="197" y="479" type="line"/>
    </contour>
  </outline>
</glyph>
<glyph name="uni0294" format="1">
  <advance width="498"/>
  <unicode hex="0294"/>
  <outline>
    <contour>
      <point x="171" y="170" type="line" smooth="yes"/>
      <point x="171" y="217"/>
      <point x="198" y="289"/>
      <point x="238" y="330"/>
      <point x="286" y="374"/>
      <point x="326" y="411"/>
      <point x="353" y="475"/>
      <point x="353" y="516" type="qcurve" smooth="yes"/>
      <point x="353" y="574"/>
      <point x="279" y="650"/>
      <point x="215" y="650" type="qcurve" smooth="yes"/>
      <point x="169" y="650"/>
      <point x="100" y="599"/>
      <point x="85" y="552" type="qcurve"/>
      <point x="20" y="572" type="line"/>
      <point x="43" y="636"/>
      <point x="152" y="714"/>
      <point x="215" y="714" type="qcurve" smooth="yes"/>
      <point x="303" y="714"/>
      <point x="423" y="600"/>
      <point x="423" y="516" type="qcurve" smooth="yes"/>
      <point x="423" y="469"/>
      <point x="396" y="397"/>
      <point x="356" y="356"/>
      <point x="308" y="312"/>
      <point x="268" y="275"/>
      <point x="241" y="211"/>
      <point x="241" y="170" type="qcurve" smooth="yes"/>
      <point x="241" y="0" type="line"/>
      <point x="171" y="0" type="line"/>
    </contour>
  </outline>
</glyph>
<glyph name="uni02B0" format="1">
  <advance width="395"/>
  <unicode hex="02B0"/>
  <outline>
    <contour>
      <point x="332" y="484" type="qcurve" smooth="yes"/>
      <point x="332" y="314" type="line"/>
      <point x="273" y="314" type="line"/>
      <point x="273" y="484" type="line" smooth="yes"/>
      <point x="273" y="508"/>
      <point x="232" y="540"/>
      <point x="197" y="540" type="qcurve" smooth="yes"/>
      <point x="161" y="540"/>
      <point x="120" y="489"/>
      <point x="120" y="452" type="qcurve" smooth="yes"/>
      <point x="120" y="314" type="line"/>
      <point x="61" y="314" type="line"/>
      <point x="61" y="743" type="line"/>
      <point x="120" y="743" type="line"/>
      <point x="120" y="566" type="line"/>
      <point x="156" y="589"/>
      <point x="197" y="589" type="qcurve" smooth="yes"/>
      <point x="255" y="589"/>
      <point x="332" y="533"/>
    </contour>
  </outline>
</glyph>
<glyph name="uni02B8" format="1">
  <advance width="514"/>
  <unicode hex="02B8"/>
  <outline>
    <contour>
      <point x="353" y="581" type="line"/>
      <point x="178" y="222" type="line"/>
      <point x="116" y="222" type="line"/>
      <point x="169" y="332" type="line"/>
      <point x="48" y="581" type="line"/>
      <point x="112" y="581" type="line"/>
      <point x="201" y="397" type="line"/>
      <point x="290" y="581" type="line"/>
    </contour>
  </outline>
</glyph>
<glyph name="uni02BE" format="1">
  <advance width="281"/>
  <unicode hex="02BE"/>
  <outline>
    <contour>
      <point x="59" y="494" type="line"/>
      <point x="94" y="494"/>
      <point x="141" y="541"/>
      <point x="141" y="575" type="qcurve" smooth="yes"/>
      <point x="141" y="610"/>
      <point x="93" y="659"/>
      <point x="59" y="659" type="qcurve"/>
      <point x="59" y="714" type="line"/>
      <point x="116" y="714"/>
      <point x="198" y="632"/>
      <point x="198" y="518"/>
      <point x="116" y="439"/>
      <point x="59" y="439" type="qcurve"/>
    </contour>
  </outline>
</glyph>
<glyph name="uni02C0" format="1">
  <advance width="417"/>
  <unicode hex="02C0"/>
  <outline>
    <contour>
      <point x="199" y="705" type="qcurve" smooth="yes"/>
      <point x="132" y="705"/>
      <point x="111" y="645" type="qcurve"/>
      <point x="55" y="659" type="line"/>
      <point x="69" y="702"/>
      <point x="153" y="754"/>
      <point x="199" y="754" type="qcurve" smooth="yes"/>
      <point x="264" y="754"/>
      <point x="349" y="682"/>
      <point x="349" y="630" type="qcurve" smooth="yes"/>
      <point x="349" y="595"/>
      <point x="323" y="545"/>
      <point x="285" y="516"/>
      <point x="247" y="489"/>
      <point x="221" y="449"/>
      <point x="221" y="422" type="qcurve" smooth="yes"/>
      <point x="221" y="314" type="line"/>
      <point x="163" y="314" type="line"/>
      <point x="163" y="422" type="line" smooth="yes"/>
      <point x="163" y="457"/>
      <point x="189" y="507"/>
      <point x="227" y="536"/>
      <point x="264" y="563"/>
      <point x="290" y="603"/>
      <point x="290" y="630" type="qcurve" smooth="yes"/>
      <point x="290" y="663"/>
      <point x="241" y="705"/>
    </contour>
  </outline>
</glyph>
<glyph name="circumflex" format="1">
  <advance width="419"/>
  <unicode hex="02C6"/>
  <outline>
    <contour>
      <point x="80" y="581" type="line"/>
      <point x="60" y="615" type="line"/>
      <point x="199" y="742" type="line"/>
      <point x="338" y="615" type="line"/>
      <point x="318" y="581" type="line"/>
      <point x="199" y="659" type="line"/>
    </contour>
  </outline>
</glyph>
<glyph name="caron" format="1">
  <advance width="420"/>
  <unicode hex="02C7"/>
  <outline>
    <contour>
      <point x="317" y="742" type="line"/>
      <point x="337" y="708" type="line"/>
      <point x="198" y="581" type="line"/>
      <point x="59" y="708" type="line"/>
      <point x="79" y="742" type="line"/>
      <point x="198" y="664" type="line"/>
    </contour>
  </outline>
</glyph>
<glyph name="uni02CA" format="1">
  <advance width="398"/>
  <unicode hex="02CA"/>
  <outline>
    <contour>
      <point x="60" y="615" type="line"/>
      <point x="282" y="760" type="line"/>
      <point x="316" y="700" type="line"/>
      <point x="81" y="581" type="line"/>
    </contour>
  </outline>
</glyph>
<glyph name="uni02CB" format="1">
  <advance width="398"/>
  <unicode hex="02CB"/>
  <outline>
    <contour>
      <point x="296" y="581" type="line"/>
      <point x="60" y="700" type="line"/>
      <point x="95" y="760" type="line"/>
      <point x="316" y="615" type="line"/>
    </contour>
  </outline>
</glyph>
<glyph name="ring" format="1">
  <advance width="347"/>
  <unicode hex="02DA"/>
  <outline>
    <contour>
      <point x="111" y="654"/>
      <point x="140" y="624"/>
      <point x="182" y="624"/>
      <point x="212" y="654"/>
      <point x="212" y="696"/>
      <point x="182" y="726"/>
      <point x="140" y="726"/>
      <point x="111" y="696"/>
    </contour>
    <contour>
      <point x="59" y="717"/>
      <point x="119" y="777"/>
      <point x="203" y="777"/>
      <point x="263" y="717"/>
      <point x="263" y="633"/>
      <point x="203" y="573"/>
      <point x="119" y="573"/>
      <point x="59" y="633"/>
    </contour>
  </outline>
</glyph>
<glyph name="uni0307" format="1">
  <advance width="0"/>
  <unicode hex="0307"/>
  <outline>
    <contour>
      <point x="-319" y="581" type="move" name="_above"/>
    </contour>
    <contour>
      <point x="-374" y="651"/>
      <point x="-342" y="683"/>
      <point x="-296" y="683"/>
      <point x="-263" y="651"/>
      <point x="-263" y="605"/>
      <point x="-296" y="572"/>
      <point x="-342" y="572"/>
      <point x="-374" y="605"/>
    </contour>
  </outline>
</glyph>
<glyph name="uni0308" format="1">
  <advance width="0"/>
  <unicode hex="0308"/>
  <outline>
    <contour>
      <point x="-319" y="581" type="move" name="_above"/>
    </contour>
    <contour>
      <point x="-274" y="651"/>
      <point x="-242" y="683"/>
      <point x="-196" y="683"/>
      <point x="-163" y="651"/>
      <point x="-163" y="605"/>
      <point x="-196" y="572"/>
      <point x="-242" y="572"/>
      <point x="-274" y="605"/>
    </contour>
    <contour>
      <point x="-474" y="651"/>
      <point x="-442" y="683"/>
      <point x="-396" y="683"/>
      <point x="-362" y="651"/>
      <point x="-362" y="605"/>
      <point x="-396" y="572"/>
      <point x="-442" y="572"/>
      <point x="-474" y="605"/>
    </contour>
  </outline>
</glyph>
<glyph name="uni030A" format="1">
  <advance width="0"/>
  <unicode hex="030A"/>
  <outline>
    <contour>
      <point x="-319" y="581" type="move" name="_above"/>
    </contour>
    <contour>
      <point x="-370" y="654"/>
      <point x="-340" y="624"/>
      <point x="-298" y="624"/>
      <point x="-268" y="654"/>
      <point x="-268" y="696"/>
      <point x="-298" y="726"/>
      <point x="-340" y="726"/>
      <point x="-370" y="696"/>
    </contour>
    <contour>
      <point x="-421" y="717"/>
      <point x="-361" y="777"/>
      <point x="-277" y="777"/>
      <point x="-217" y="717"/>
      <point x="-217" y="633"/>
      <point x="-277" y="573"/>
      <point x="-361" y="573"/>
      <point x="-421" y="633"/>
    </contour>
  </outline>
</glyph>
<glyph name="uni030B" format="1">
  <advance width="0"/>
  <unicode hex="030B"/>
  <outline>
    <contour>
      <point x="-319" y="581" type="move" name="_above"/>
    </contour>
    <contour>
      <point x="-264" y="601" type="line"/>
      <point x="-88" y="798" type="line"/>
      <point x="-39" y="749" type="line"/>
      <point x="-236" y="573" type="line"/>
    </contour>
    <contour>
      <point x="-440" y="601" type="line"/>
      <point x="-264" y="798" type="line"/>
      <point x="-215" y="749" type="line"/>
      <point x="-412" y="573" type="line"/>
    </contour>
  </outline>
</glyph>
<glyph name="uni0311" format="1">
  <advance width="0"/>
  <unicode hex="0311"/>
  <outline>
    <contour>
      <point x="-319" y="581" type="move" name="_above"/>
    </contour>
    <contour>
      <point x="-416" y="581" type="qcurve"/>
      <point x="-458" y="581" type="line"/>
      <point x="-457" y="587"/>
      <point x="-451" y="606"/>
      <point x="-429" y="654"/>
      <point x="-400" y="692"/>
      <point x="-349" y="722"/>
      <point x="-287" y="722"/>
      <point x="-237" y="693"/>
      <point x="-208" y="652"/>
      <point x="-188" y="610"/>
      <point x="-184" y="596" type="qcurve" smooth="yes"/>
      <point x="-180" y="581" type="line"/>
      <point x="-222" y="581" type="line"/>
      <point x="-230" y="598"/>
      <point x="-238" y="613"/>
      <point x="-262" y="644"/>
      <point x="-296" y="659"/>
      <point x="-340" y="659"/>
      <point x="-375" y="644"/>
      <point x="-399" y="614"/>
      <point x="-409" y="596"/>
    </contour>
  </outline>
</glyph>
<glyph name="uni0325" format="1">
  <advance width="0"/>
  <unicode hex="0325"/>
  <outline>
    <contour>
      <point x="-318" y="0" type="move" name="_ogonek"/>
    </contour>
    <component base="uni030A" yOffset="-821"/>
  </outline>
</glyph>
<glyph name="uni0326" format="1">
  <advance width="0"/>
  <unicode hex="0326"/>
  <outline>
    <contour>
      <point x="-317" y="0" type="move" name="_below"/>
    </contour>
    <component base="uni0313" yOffset="-840"/>
  </outline>
</glyph>
<glyph name="uni0327" format="1">
  <advance width="0"/>
  <unicode hex="0327"/>
  <outline>
    <contour>
      <point x="-325" y="0" type="move" name="_below"/>
    </contour>
    <contour>
      <point x="-352" y="0" type="line"/>
      <point x="-300" y="0" type="line"/>
      <point x="-334" y="-70" type="line"/>
      <point x="-279" y="-70"/>
      <point x="-224" y="-106"/>
      <point x="-224" y="-128" type="qcurve" smooth="yes"/>
      <point x="-224" y="-205"/>
      <point x="-434" y="-205" type="qcurve"/>
      <point x="-434" y="-177" type="line"/>
      <point x="-383" y="-177"/>
      <point x="-291" y="-154"/>
      <point x="-291" y="-134" type="qcurve" smooth="yes"/>
      <point x="-291" y="-124"/>
      <point x="-305" y="-112"/>
      <point x="-354" y="-105"/>
      <point x="-401" y="-105" type="qcurve"/>
    </contour>
  </outline>
</glyph>
<glyph name="uni0328" format="1">
  <advance width="0"/>
  <unicode hex="0328"/>
  <outline>
    <contour>
      <point x="-300" y="0" type="move" name="_ogonek"/>
    </contour>
    <contour>
      <point x="-368" y="-84" type="qcurve" smooth="yes"/>
      <point x="-368" y="-154"/>
      <point x="-262" y="-154" type="qcurve" smooth="yes"/>
      <point x="-235" y="-154"/>
      <point x="-207" y="-147" type="qcurve"/>
      <point x="-200" y="-174" type="line"/>
      <point x="-260" y="-190"/>
      <point x="-306" y="-190" type="qcurve" smooth="yes"/>
      <point x="-435" y="-190"/>
      <point x="-435" y="-93" type="qcurve" smooth="yes"/>
      <point x="-435" y="6"/>
      <point x="-300" y="25" type="qcurve"/>
      <point x="-300" y="0" type="line"/>
      <point x="-342" y="-13"/>
      <point x="-368" y="-47"/>
    </contour>
  </outline>
</glyph>
<glyph name="uni0336" format="1">
  <advance width="0"/>
  <unicode hex="0336"/>
  <outline>
    <contour>
      <point x="-509" y="300" type="line"/>
      <point x="0" y="300" type="line"/>
      <point x="0" y="251" type="line"/>
      <point x="-509" y="251" type="line"/>
    </contour>
  </outline>
</glyph>
<glyph name="uni0337" format="1">
  <advance width="0"/>
  <unicode hex="0337"/>
  <outline>
    <contour>
      <point x="-348" y="340" type="line"/>
      <point x="-104" y="511" type="line"/>
      <point x="-81" y="478" type="line"/>
      <point x="-325" y="307" type="line"/>
    </contour>
  </outline>
</glyph>
<glyph name="uni0338" format="1">
  <advance width="0"/>
  <unicode hex="0338"/>
  <outline>
    <contour>
      <point x="13" y="698" type="line"/>
      <point x="-561" y="0" type="line"/>
      <point x="-625" y="0" type="line"/>
      <point x="-51" y="698" type="line"/>
    </contour>
  </outline>
</glyph>
<glyph name="uni035E" format="1">
  <advance width="0"/>
  <unicode hex="035E"/>
  <outline>
    <contour>
      <point x="-319" y="581" type="move" name="_above"/>
    </contour>
    <contour>
      <point x="-515" y="646" type="line"/>
      <point x="279" y="646" type="line"/>
      <point x="279" y="600" type="line"/>
      <point x="-515" y="600" type="line"/>
    </contour>
  </outline>
</glyph>
<glyph name="uni035F" format="1">
  <advance width="0"/>
  <unicode hex="035F"/>
  <outline>
    <contour>
      <point x="-515" y="-96" type="line"/>
      <point x="279" y="-96" type="line"/>
      <point x="279" y="-142" type="line"/>
      <point x="-515" y="-142" type="line"/>
    </contour>
  </outline>
</glyph>
<glyph name="uni037A" format="1">
  <advance width="233"/>
  <unicode hex="037A"/>
  <outline>
    <contour>
      <point x="177" y="-207" type="line"/>
      <point x="126" y="-207"/>
      <point x="56" y="-148"/>
      <point x="56" y="-93" type="qcurve" smooth="yes"/>
      <point x="56" y="-43" type="line"/>
      <point x="109" y="-43" type="line"/>
      <point x="109" y="-93" type="line" smooth="yes"/>
      <point x="109" y="-155"/>
      <point x="177" y="-155" type="qcurve"/>
    </contour>
  </outline>
</glyph>
<glyph name="uni037E" format="1">
  <advance width="225"/>
  <unicode hex="037E"/>
  <outline>
    <contour>
      <point x="57" y="451"/>
      <point x="90" y="483"/>
      <point x="136" y="483"/>
      <point x="168" y="451"/>
      <point x="168" y="405"/>
      <point x="136" y="372"/>
      <point x="90" y="372"/>
      <point x="57" y="405"/>
    </contour>
    <contour>
      <point x="57" y="71"/>
      <point x="90" y="103"/>
      <point x="136" y="103"/>
      <point x="168" y="71"/>
      <point x="168" y="48" type="qcurve" smooth="yes"/>
      <point x="168" y="13"/>
      <point x="149" y="-48"/>
      <point x="122" y="-86"/>
      <point x="108" y="-100" type="qcurve" smooth="yes"/>
      <point x="96" y="-112"/>
      <point x="86" y="-118" type="qcurve" smooth="yes"/>
      <point x="76" y="-124" type="line"/>
      <point x="58" y="-114" type="line"/>
      <point x="98" y="-75"/>
      <point x="113" y="-8" type="qcurve"/>
      <point x="90" y="-8"/>
      <point x="57" y="25"/>
    </contour>
  </outline>
</glyph>
<glyph name="dieresistonos" format="1">
  <advance width="410"/>
  <unicode hex="0385"/>
  <outline>
    <contour>
      <point x="179" y="702" type="line"/>
      <point x="270" y="896" type="line"/>
      <point x="333" y="866" type="line"/>
      <point x="215" y="686" type="line"/>
    </contour>
    <contour>
      <point x="254" y="651"/>
      <point x="286" y="683"/>
      <point x="332" y="683"/>
      <point x="366" y="651"/>
      <point x="366" y="605"/>
      <point x="332" y="572"/>
      <point x="286" y="572"/>
      <point x="254" y="605"/>
    </contour>
    <contour>
      <point x="54" y="651"/>
      <point x="87" y="683"/>
      <point x="133" y="683"/>
      <point x="166" y="651"/>
      <point x="166" y="605"/>
      <point x="133" y="572"/>
      <point x="87" y="572"/>
      <point x="54" y="605"/>
    </contour>
  </outline>
</glyph>
<glyph name="Epsilontonos" format="1">
  <advance width="611"/>
  <unicode hex="0388"/>
  <outline>
    <contour>
      <point x="-11" y="631" type="line"/>
      <point x="80" y="824" type="line"/>
      <point x="142" y="795" type="line"/>
      <point x="25" y="614" type="line"/>
    </contour>
    <contour>
      <point x="177" y="0" type="line"/>
      <point x="177" y="698" type="line"/>
      <point x="568" y="698" type="line"/>
      <point x="568" y="634" type="line"/>
      <point x="254" y="634" type="line"/>
      <point x="254" y="411" type="line"/>
      <point x="500" y="411" type="line"/>
      <point x="500" y="348" type="line"/>
      <point x="254" y="348" type="line"/>
      <point x="254" y="63" type="line"/>
      <point x="571" y="63" type="line"/>
      <point x="571" y="0" type="line"/>
    </contour>
  </outline>
</glyph>
<glyph name="Etatonos" format="1">
  <advance width="706"/>
  <unicode hex="0389"/>
  <outline>
    <contour>
      <point x="165" y="0" type="line"/>
      <point x="165" y="698" type="line"/>
      <point x="242" y="698" type="line"/>
      <point x="242" y="396" type="line"/>
      <point x="549" y="396" type="line"/>
      <point x="549" y="698" type="line"/>
      <point x="626" y="698" type="line"/>
      <point x="626" y="0" type="line"/>
      <point x="549" y="0" type="line"/>
      <point x="549" y="333" type="line"/>
      <point x="242" y="333" type="line"/>
      <point x="242" y="0" type="line"/>
    </contour>
    <contour>
      <point x="-9" y="631" type="line"/>
      <point x="82" y="824" type="line"/>
      <point x="144" y="795" type="line"/>
      <point x="27" y="614" type="line"/>
    </contour>
  </outline>
</glyph>
<glyph name="Iotatonos" format="1">
  <advance width="391"/>
  <unicode hex="038A"/>
  <outline>
    <contour>
      <point x="300" y="631" type="line"/>
      <point x="300" y="68" type="line"/>
      <point x="337" y="68" type="line"/>
      <point x="337" y="0" type="line"/>
      <point x="186" y="0" type="line"/>
      <point x="186" y="68" type="line"/>
      <point x="223" y="68" type="line"/>
      <point x="223" y="631" type="line"/>
      <point x="186" y="631" type="line"/>
      <point x="186" y="698" type="line"/>
      <point x="337" y="698" type="line"/>
      <point x="337" y="631" type="line"/>
    </contour>
    <contour>
      <point x="-10" y="631" type="line"/>
      <point x="81" y="824" type="line"/>
      <point x="143" y="795" type="line"/>
      <point x="26" y="614" type="line"/>
    </contour>
  </outline>
</glyph>
<glyph name="Omegatonos" format="1">
  <advance width="752"/>
  <unicode hex="038F"/>
  <outline>
    <contour>
      <point x="8" y="631" type="line"/>
      <point x="99" y="824" type="line"/>
      <point x="162" y="795" type="line"/>
      <point x="44" y="614" type="line"/>
    </contour>
    <contour>
      <point x="597" y="56" type="qcurve"/>
      <point x="669" y="56" type="line"/>
      <point x="669" y="0" type="line"/>
      <point x="507" y="0" type="line"/>
      <point x="507" y="53"/>
      <point x="531" y="132"/>
      <point x="566" y="185"/>
      <point x="600" y="239"/>
      <point x="624" y="325"/>
      <point x="624" y="383" type="qcurve" smooth="yes"/>
      <point x="624" y="497"/>
      <point x="497" y="644"/>
      <point x="311" y="644"/>
      <point x="185" y="497"/>
      <point x="185" y="383" type="qcurve" smooth="yes"/>
      <point x="185" y="325"/>
      <point x="209" y="239"/>
      <point x="244" y="185"/>
      <point x="278" y="132"/>
      <point x="302" y="53"/>
      <point x="302" y="0" type="qcurve"/>
      <point x="140" y="0" type="line"/>
      <point x="140" y="56" type="line"/>
      <point x="212" y="56" type="line"/>
      <point x="208" y="85"/>
      <point x="171" y="160"/>
      <point x="134" y="223"/>
      <point x="104" y="326"/>
      <point x="104" y="383" type="qcurve" smooth="yes"/>
      <point x="104" y="527"/>
      <point x="283" y="715"/>
      <point x="404" y="715" type="qcurve" smooth="yes"/>
      <point x="526" y="715"/>
      <point x="705" y="527"/>
      <point x="705" y="383" type="qcurve" smooth="yes"/>
      <point x="705" y="326"/>
      <point x="675" y="223"/>
      <point x="638" y="160"/>
      <point x="601" y="85"/>
    </contour>
  </outline>
</glyph>
<glyph name="iotadieresistonos" format="1">
  <advance width="231"/>
  <unicode hex="0390"/>
  <outline>
    <contour>
      <point x="63" y="702" type="line"/>
      <point x="155" y="896" type="line"/>
      <point x="217" y="866" type="line"/>
      <point x="99" y="686" type="line"/>
    </contour>
    <contour>
      <point x="138" y="651"/>
      <point x="171" y="683"/>
      <point x="217" y="683"/>
      <point x="250" y="651"/>
      <point x="250" y="605"/>
      <point x="217" y="572"/>
      <point x="171" y="572"/>
      <point x="138" y="605"/>
    </contour>
    <contour>
      <point x="-61" y="651"/>
      <point x="-29" y="683"/>
      <point x="17" y="683"/>
      <point x="50" y="651"/>
      <point x="50" y="605"/>
      <point x="17" y="572"/>
      <point x="-29" y="572"/>
      <point x="-61" y="605"/>
    </contour>
    <contour>
      <point x="222" y="0" type="line"/>
      <point x="154" y="0"/>
      <point x="60" y="78"/>
      <point x="60" y="152" type="qcurve" smooth="yes"/>
      <point x="60" y="479" type="line"/>
      <point x="130" y="479" type="line"/>
      <point x="130" y="152" type="line" smooth="yes"/>
      <point x="130" y="70"/>
      <point x="222" y="70" type="qcurve"/>
    </contour>
  </outline>
</glyph>
<glyph name="Gamma" format="1">
  <advance width="477"/>
  <unicode hex="0393"/>
  <outline>
    <contour>
      <point x="158" y="634" type="line"/>
      <point x="158" y="0" type="line"/>
      <point x="81" y="0" type="line"/>
      <point x="81" y="698" type="line"/>
      <point x="472" y="698" type="line"/>
      <point x="472" y="634" type="line"/>
    </contour>
  </outline>
</glyph>
<glyph name="Xi" format="1">
  <advance width="544"/>
  <unicode hex="039E"/>
  <outline>
    <contour>
      <point x="113" y="406" type="line"/>
      <point x="433" y="406" type="line"/>
      <point x="433" y="342" type="line"/>
      <point x="113" y="342" type="line"/>
    </contour>
    <contour>
      <point x="41" y="698" type="line"/>
      <point x="505" y="698" type="line"/>
      <point x="505" y="635" type="line"/>
      <point x="41" y="635" type="line"/>
    </contour>
    <contour>
      <point x="41" y="63" type="line"/>
      <point x="505" y="63" type="line"/>
      <point x="505" y="0" type="line"/>
      <point x="41" y="0" type="line"/>
    </contour>
  </outline>
</glyph>
<glyph name="Sigma" format="1">
  <advance width="510"/>
  <unicode hex="03A3"/>
  <outline>
    <contour>
      <point x="306" y="344" type="line"/>
      <point x="131" y="63" type="line"/>
      <point x="480" y="63" type="line"/>
      <point x="480" y="0" type="line"/>
      <point x="44" y="0" type="line"/>
      <point x="44" y="65" type="line"/>
      <point x="218" y="344" type="line"/>
      <point x="44" y="622" type="line"/>
      <point x="44" y="698" type="line"/>
      <point x="480" y="698" type="line"/>
      <point x="480" y="635" type="line"/>
      <point x="125" y="635" type="line"/>
    </contour>
  </outline>
</glyph>
<glyph name="Psi" format="1">
  <advance width="617"/>
  <unicode hex="03A8"/>
  <outline>
    <contour>
      <point x="33" y="552" type="qcurve" smooth="yes"/>
      <point x="33" y="698" type="line"/>
      <point x="115" y="698" type="line"/>
      <point x="115" y="552" type="line" smooth="yes"/>
      <point x="115" y="463"/>
      <point x="198" y="335"/>
      <point x="271" y="321" type="qcurve"/>
      <point x="271" y="698" type="line"/>
      <point x="348" y="698" type="line"/>
      <point x="348" y="321" type="line"/>
      <point x="421" y="336"/>
      <point x="504" y="464"/>
      <point x="504" y="552" type="qcurve" smooth="yes"/>
      <point x="504" y="698" type="line"/>
      <point x="585" y="698" type="line"/>
      <point x="585" y="552" type="line" smooth="yes"/>
      <point x="585" y="421"/>
      <point x="454" y="260"/>
      <point x="348" y="248" type="qcurve"/>
      <point x="348" y="0" type="line"/>
      <point x="271" y="0" type="line"/>
      <point x="271" y="248" type="line"/>
      <point x="165" y="260"/>
      <point x="33" y="421"/>
    </contour>
  </outline>
</glyph>
<glyph name="Omega" format="1">
  <advance width="696"/>
  <unicode hex="03A9"/>
  <outline>
    <contour>
      <point x="541" y="56" type="qcurve"/>
      <point x="612" y="56" type="line"/>
      <point x="612" y="0" type="line"/>
      <point x="451" y="0" type="line"/>
      <point x="451" y="53"/>
      <point x="475" y="132"/>
      <point x="509" y="185"/>
      <point x="543" y="239"/>
      <point x="567" y="325"/>
      <point x="567" y="383" type="qcurve" smooth="yes"/>
      <point x="567" y="497"/>
      <point x="441" y="644"/>
      <point x="255" y="644"/>
      <point x="129" y="497"/>
      <point x="129" y="383" type="qcurve" smooth="yes"/>
      <point x="129" y="325"/>
      <point x="153" y="239"/>
      <point x="188" y="185"/>
      <point x="222" y="132"/>
      <point x="246" y="53"/>
      <point x="246" y="0" type="qcurve"/>
      <point x="84" y="0" type="line"/>
      <point x="84" y="56" type="line"/>
      <point x="156" y="56" type="line"/>
      <point x="152" y="85"/>
      <point x="115" y="160"/>
      <point x="78" y="223"/>
      <point x="48" y="326"/>
      <point x="48" y="383" type="qcurve" smooth="yes"/>
      <point x="48" y="527"/>
      <point x="227" y="715"/>
      <point x="469" y="715"/>
      <point x="648" y="527"/>
      <point x="648" y="383" type="qcurve" smooth="yes"/>
      <point x="648" y="310"/>
      <point x="601" y="189"/>
      <point x="546" y="90"/>
    </contour>
  </outline>
</glyph>
<glyph name="beta" format="1">
  <advance width="553"/>
  <unicode hex="03B2"/>
  <outline>
    <contour>
      <point x="134" y="71" type="qcurve"/>
      <point x="134" y="-206" type="line"/>
      <point x="65" y="-206" type="line"/>
      <point x="65" y="449" type="line" smooth="yes"/>
      <point x="65" y="572"/>
      <point x="110" y="710"/>
      <point x="193" y="762"/>
      <point x="265" y="762" type="qcurve" smooth="yes"/>
      <point x="356" y="762"/>
      <point x="437" y="674"/>
      <point x="437" y="600" type="qcurve" smooth="yes"/>
      <point x="437" y="557"/>
      <point x="384" y="479"/>
      <point x="340" y="452" type="qcurve"/>
      <point x="419" y="418"/>
      <point x="517" y="287"/>
      <point x="517" y="207" type="qcurve" smooth="yes"/>
      <point x="517" y="109"/>
      <point x="416" y="-15"/>
      <point x="309" y="-15" type="qcurve" smooth="yes"/>
      <point x="204" y="-15"/>
    </contour>
    <contour>
      <point x="207" y="479" type="line"/>
      <point x="282" y="479"/>
      <point x="367" y="555"/>
      <point x="367" y="606" type="qcurve" smooth="yes"/>
      <point x="367" y="653"/>
      <point x="317" y="698"/>
      <point x="265" y="698" type="qcurve" smooth="yes"/>
      <point x="198" y="698"/>
      <point x="134" y="604"/>
      <point x="134" y="467" type="qcurve" smooth="yes"/>
      <point x="134" y="207" type="line"/>
      <point x="144" y="180"/>
      <point x="171" y="132"/>
      <point x="213" y="79"/>
      <point x="274" y="48"/>
      <point x="309" y="48" type="qcurve" smooth="yes"/>
      <point x="374" y="48"/>
      <point x="446" y="136"/>
      <point x="446" y="208" type="qcurve" smooth="yes"/>
      <point x="446" y="285"/>
      <point x="304" y="416"/>
      <point x="207" y="416" type="qcurve"/>
    </contour>
  </outline>
</glyph>
<glyph name="theta" format="1">
  <advance width="558"/>
  <unicode hex="03B8"/>
  <outline>
    <contour>
      <point x="280" y="-16" type="qcurve" smooth="yes"/>
      <point x="204" y="-16"/>
      <point x="96" y="97"/>
      <point x="48" y="268"/>
      <point x="48" y="474"/>
      <point x="96" y="645"/>
      <point x="204" y="759"/>
      <point x="280" y="759" type="qcurve" smooth="yes"/>
      <point x="355" y="759"/>
      <point x="463" y="645"/>
      <point x="511" y="473"/>
      <point x="511" y="269"/>
      <point x="463" y="97"/>
      <point x="355" y="-16"/>
    </contour>
    <contour>
      <point x="429" y="338" type="qcurve"/>
      <point x="130" y="338" type="line"/>
      <point x="135" y="221"/>
      <point x="213" y="54"/>
      <point x="280" y="54" type="qcurve" smooth="yes"/>
      <point x="346" y="54"/>
      <point x="424" y="221"/>
    </contour>
    <contour>
      <point x="429" y="399" type="line"/>
      <point x="426" y="475"/>
      <point x="393" y="602"/>
      <point x="325" y="689"/>
      <point x="280" y="689" type="qcurve" smooth="yes"/>
      <point x="234" y="689"/>
      <point x="166" y="602"/>
      <point x="133" y="474"/>
      <point x="130" y="399" type="qcurve"/>
    </contour>
  </outline>
</glyph>
<glyph name="iota" format="1">
  <advance width="231"/>
  <unicode hex="03B9"/>
  <outline>
    <contour>
      <point x="222" y="0" type="line"/>
      <point x="154" y="0"/>
      <point x="60" y="78"/>
      <point x="60" y="152" type="qcurve" smooth="yes"/>
      <point x="60" y="479" type="line"/>
      <point x="130" y="479" type="line"/>
      <point x="130" y="152" type="line" smooth="yes"/>
      <point x="130" y="70"/>
      <point x="222" y="70" type="qcurve"/>
    </contour>
  </outline>
</glyph>
<glyph name="pi" format="1">
  <advance width="591"/>
  <unicode hex="03C0"/>
  <outline>
    <contour>
      <point x="26" y="479" type="line"/>
      <point x="566" y="479" type="line"/>
      <point x="566" y="416" type="line"/>
      <point x="497" y="416" type="line"/>
      <point x="497" y="0" type="line"/>
      <point x="427" y="0" type="line"/>
      <point x="427" y="416" type="line"/>
      <point x="165" y="416" type="line"/>
      <point x="165" y="0" type="line"/>
      <point x="95" y="0" type="line"/>
      <point x="95" y="416" type="line"/>
      <point x="26" y="416" type="line"/>
    </contour>
  </outline>
</glyph>
<glyph name="tau" format="1">
  <advance width="466"/>
  <unicode hex="03C4"/>
  <outline>
    <contour>
      <point x="268" y="416" type="line"/>
      <point x="268" y="0" type="line"/>
      <point x="199" y="0" type="line"/>
      <point x="199" y="416" type="line"/>
      <point x="13" y="416" type="line"/>
      <point x="13" y="479" type="line"/>
      <point x="454" y="479" type="line"/>
      <point x="454" y="416" type="line"/>
    </contour>
  </outline>
</glyph>
<glyph name="phi" format="1">
  <advance width="649"/>
  <unicode hex="03C6"/>
  <outline>
    <contour>
      <point x="326" y="496" type="qcurve" smooth="yes"/>
      <point x="450" y="496"/>
      <point x="612" y="367"/>
      <point x="612" y="240" type="qcurve" smooth="yes"/>
      <point x="612" y="122"/>
      <point x="473" y="-6"/>
      <point x="362" y="-15" type="qcurve"/>
      <point x="362" y="-204" type="line"/>
      <point x="293" y="-204" type="line"/>
      <point x="293" y="-15" type="line"/>
      <point x="183" y="-6"/>
      <point x="39" y="123"/>
      <point x="39" y="240" type="qcurve" smooth="yes"/>
      <point x="39" y="329"/>
      <point x="113" y="435"/>
      <point x="185" y="478" type="qcurve"/>
      <point x="222" y="425" type="line"/>
      <point x="165" y="392"/>
      <point x="109" y="312"/>
      <point x="109" y="240" type="qcurve" smooth="yes"/>
      <point x="109" y="146"/>
      <point x="211" y="55"/>
      <point x="293" y="48" type="qcurve"/>
      <point x="293" y="465" type="line" smooth="yes"/>
      <point x="293" y="479"/>
      <point x="313" y="496"/>
    </contour>
    <contour>
      <point x="362" y="430" type="qcurve"/>
      <point x="362" y="49" type="line"/>
      <point x="443" y="56"/>
      <point x="543" y="147"/>
      <point x="543" y="240" type="qcurve" smooth="yes"/>
      <point x="543" y="413"/>
    </contour>
  </outline>
</glyph>
<glyph name="afii10021" format="1">
  <advance width="652"/>
  <unicode hex="0414"/>
  <outline>
    <contour>
      <point x="85" y="0" type="line"/>
      <point x="85" y="-84" type="line"/>
      <point x="8" y="-84" type="line"/>
      <point x="8" y="63" type="line"/>
      <point x="75" y="63" type="line"/>
      <point x="121" y="174"/>
      <point x="186" y="514"/>
      <point x="186" y="698" type="qcurve"/>
      <point x="560" y="698" type="line"/>
      <point x="560" y="63" type="line"/>
      <point x="599" y="63" type="line"/>
      <point x="599" y="-84" type="line"/>
      <point x="522" y="-84" type="line"/>
      <point x="522" y="0" type="line"/>
      <point x="483" y="0" type="line"/>
    </contour>
    <contour>
      <point x="160" y="63" type="qcurve"/>
      <point x="483" y="63" type="line"/>
      <point x="483" y="635" type="line"/>
      <point x="263" y="635" type="line"/>
      <point x="263" y="323"/>
    </contour>
  </outline>
</glyph>
<glyph name="afii10025" format="1">
  <advance width="525"/>
  <unicode hex="0417"/>
  <outline>
    <contour>
      <point x="378" y="374" type="qcurve"/>
      <point x="481" y="326"/>
      <point x="481" y="207" type="qcurve" smooth="yes"/>
      <point x="481" y="101"/>
      <point x="348" y="-16"/>
      <point x="240" y="-16" type="qcurve" smooth="yes"/>
      <point x="153" y="-16"/>
      <point x="48" y="33"/>
      <point x="10" y="81" type="qcurve"/>
      <point x="65" y="124" type="line"/>
      <point x="115" y="53"/>
      <point x="240" y="53" type="qcurve" smooth="yes"/>
      <point x="310" y="53"/>
      <point x="404" y="134"/>
      <point x="404" y="190" type="qcurve" smooth="yes"/>
      <point x="404" y="254"/>
      <point x="305" y="335"/>
      <point x="217" y="335" type="qcurve"/>
      <point x="217" y="403" type="line"/>
      <point x="303" y="403"/>
      <point x="381" y="471"/>
      <point x="381" y="523" type="qcurve" smooth="yes"/>
      <point x="381" y="572"/>
      <point x="311" y="645"/>
      <point x="255" y="645" type="qcurve" smooth="yes"/>
      <point x="213" y="645"/>
      <point x="126" y="620"/>
      <point x="102" y="592" type="qcurve"/>
      <point x="51" y="640" type="line"/>
      <point x="86" y="677"/>
      <point x="202" y="714"/>
      <point x="255" y="714" type="qcurve" smooth="yes"/>
      <point x="343" y="714"/>
      <point x="458" y="618"/>
      <point x="458" y="523" type="qcurve" smooth="yes"/>
      <point x="458" y="425"/>
    </contour>
  </outline>
</glyph>
<glyph name="afii10026" format="1">
  <advance width="644"/>
  <unicode hex="0418"/>
  <outline>
    <contour>
      <point x="563" y="0" type="line"/>
      <point x="486" y="0" type="line"/>
      <point x="486" y="570" type="line"/>
      <point x="157" y="0" type="line"/>
      <point x="81" y="0" type="line"/>
      <point x="81" y="698" type="line"/>
      <point x="157" y="698" type="line"/>
      <point x="157" y="126" type="line"/>
      <point x="486" y="698" type="line"/>
      <point x="563" y="698" type="line"/>
    </contour>
  </outline>
</glyph>
<glyph name="afii10028" format="1">
  <advance width="565"/>
  <unicode hex="041A"/>
  <outline>
    <contour>
      <point x="81" y="0" type="line"/>
      <point x="81" y="698" type="line"/>
      <point x="158" y="698" type="line"/>
      <point x="158" y="387" type="line"/>
      <point x="204" y="397"/>
      <point x="276" y="469"/>
      <point x="324" y="556"/>
      <point x="378" y="641"/>
      <point x="463" y="698"/>
      <point x="521" y="698" type="qcurve"/>
      <point x="521" y="683"/>
      <point x="523" y="640"/>
      <point x="523" y="623" type="qcurve"/>
      <point x="484" y="623"/>
      <point x="419" y="571"/>
      <point x="380" y="504"/>
      <point x="321" y="409"/>
      <point x="293" y="381" type="qcurve"/>
      <point x="395" y="296"/>
      <point x="544" y="74"/>
      <point x="544" y="0" type="qcurve"/>
      <point x="451" y="0" type="line"/>
      <point x="451" y="66"/>
      <point x="338" y="250"/>
      <point x="229" y="334" type="qcurve"/>
      <point x="193" y="316"/>
      <point x="158" y="311" type="qcurve"/>
      <point x="158" y="0" type="line"/>
    </contour>
  </outline>
</glyph>
<glyph name="afii10029" format="1">
  <advance width="654"/>
  <unicode hex="041B"/>
  <outline>
    <contour>
      <point x="221" y="152" type="line" smooth="yes"/>
      <point x="221" y="89"/>
      <point x="133" y="0"/>
      <point x="70" y="0" type="qcurve" smooth="yes"/>
      <point x="0" y="0" type="line"/>
      <point x="0" y="63" type="line"/>
      <point x="62" y="63" type="line" smooth="yes"/>
      <point x="97" y="63"/>
      <point x="144" y="116"/>
      <point x="144" y="152" type="qcurve" smooth="yes"/>
      <point x="144" y="698" type="line"/>
      <point x="573" y="698" type="line"/>
      <point x="573" y="0" type="line"/>
      <point x="497" y="0" type="line"/>
      <point x="497" y="635" type="line"/>
      <point x="221" y="635" type="line"/>
    </contour>
  </outline>
</glyph>
<glyph name="afii10037" format="1">
  <advance width="457"/>
  <unicode hex="0423"/>
  <outline>
    <contour>
      <point x="457" y="698" type="line"/>
      <point x="270" y="156" type="line" smooth="yes"/>
      <point x="217" y="0"/>
      <point x="53" y="0" type="qcurve"/>
      <point x="53" y="63" type="line"/>
      <point x="155" y="63"/>
      <point x="190" y="163" type="qcurve"/>
      <point x="211" y="221" type="line"/>
      <point x="18" y="698" type="line"/>
      <point x="101" y="698" type="line"/>
      <point x="249" y="331" type="line"/>
      <point x="376" y="698" type="line"/>
    </contour>
  </outline>
</glyph>
